<?xml version="1.0" encoding="UTF-8"?>
<svg width="107px" height="70px" viewBox="0 0 107 70" version="1.1" xmlns="http://www.w3.org/2000/svg" xmlns:xlink="http://www.w3.org/1999/xlink">
    <!-- Generator: Sketch 49.3 (51167) - http://www.bohemiancoding.com/sketch -->
    <title>admin-teams-icon</title>
    <desc>Created with Sketch.</desc>
    <defs>
        <path d="M17.0015493,63 L16.1110475,62.5777642 C6.32314942,57.957026 0,47.9403391 0,37.0576165 L0.00263447697,20.8851347 L2.10509009,20.8851347 C9.99840397,20.8851347 15.9161974,17.6108003 15.9735272,17.5789162 L17.0010137,17 L18.0311306,17.5815744 C18.0890925,17.6107853 24.0038933,20.8851415 31.8975444,20.8851415 L34,20.8851415 L34,37.0576233 C34,47.9403459 27.679481,57.9569648 17.8943483,62.577771 L17.0015493,63 Z M4.20754165,25.0573141 L4.20754165,37.0576777 C4.20754165,45.9668531 9.19753511,54.1968781 17.0042471,58.2969343 C24.8078566,54.1967421 29.7982547,45.9668531 29.7982547,37.0576777 L29.7956203,25.0573141 C23.7175055,24.6775677 18.9987162,22.7496303 16.9989148,21.8015391 C15.0045091,22.7495624 10.2858547,24.6775609 4.20760505,25.0573141 L4.20754165,25.0573141 Z" id="path-1"></path>
        <path d="M88.0015493,63 L87.1110475,62.5777642 C77.3231494,57.957026 71,47.9403391 71,37.0576165 L71.0026345,20.8851347 L73.1050901,20.8851347 C80.998404,20.8851347 86.9161974,17.6108003 86.9735272,17.5789162 L88.0010137,17 L89.0311306,17.5815744 C89.0890925,17.6107853 95.0038933,20.8851415 102.897544,20.8851415 L105,20.8851415 L105,37.0576233 C105,47.9403459 98.679481,57.9569648 88.8943483,62.577771 L88.0015493,63 Z M75.2075417,25.0573141 L75.2075417,37.0576777 C75.2075417,45.9668531 80.1975351,54.1968781 88.0042471,58.2969343 C95.8078566,54.1967421 100.798255,45.9668531 100.798255,37.0576777 L100.79562,25.0573141 C94.7175055,24.6775677 89.9987162,22.7496303 87.9989148,21.8015391 C86.0045091,22.7495624 81.2858547,24.6775609 75.2076051,25.0573141 L75.2075417,25.0573141 Z" id="path-2"></path>
    </defs>
    <g id="7.1.5.web" stroke="none" stroke-width="1" fill="none" fill-rule="evenodd">
        <g id="d.4.home" transform="translate(-307.000000, -524.000000)" fill-rule="nonzero">
            <g id="Group-3" transform="translate(198.000000, 347.000000)">
                <g id="admin-teams-icon" transform="translate(110.000000, 178.000000)">
                    <g id="Shape">
                        <use fill="#37C2AC" fill-rule="evenodd" xlink:href="#path-1"></use>
                        <path stroke="#FFFFFF" stroke-width="1" d="M16.7873324,63.4517866 L15.8975944,63.0299122 C5.93467521,58.3265488 -0.5,48.1337173 -0.499999993,37.0575351 L-0.49728408,20.3851347 L2.10509009,20.3851347 C5.50303301,20.3851347 8.78232506,19.7798141 11.8200094,18.7695336 C12.8863636,18.4148829 13.846753,18.0344749 14.6857418,17.653668 C14.9801606,17.5200349 15.2385352,17.395789 15.4589113,17.2841234 C15.5919688,17.2167026 15.6822925,17.1686985 15.7280891,17.1433016 L17.0012623,16.4259582 L17.2468291,16.5645981 L18.2561538,17.1350718 C18.463005,17.248331 18.810752,17.4241459 19.3096425,17.6506206 C20.1423541,18.0286357 21.0939799,18.406199 22.1510582,18.7589739 C25.1969301,19.7754618 28.4867103,20.3851415 31.8975444,20.3851415 L34.5,20.3851415 L34.5,37.0576233 C34.5,48.1339507 28.0677569,58.3265567 18.108112,63.0297722 L17.0012719,63.5532271 L16.7873324,63.4517866 Z M4.70754165,25.5240266 L4.70754165,37.0576777 C4.70754165,45.6739996 9.47959791,53.6679457 17.0041966,57.7304405 C24.5265869,53.667393 29.2982547,45.6731007 29.2982547,37.0577875 L29.2957227,25.5240393 C24.5777469,25.1684914 20.3950986,23.933837 16.9991801,22.3540539 C13.6174417,23.9309615 9.42700988,25.168253 4.70754165,25.5240266 Z"></path>
                    </g>
                    <g id="Shape">
                        <use fill="#37C2AC" fill-rule="evenodd" xlink:href="#path-2"></use>
                        <path stroke="#FFFFFF" stroke-width="1" d="M87.7873324,63.4517866 L86.8975944,63.0299122 C76.9346752,58.3265488 70.5,48.1337173 70.5,37.0575351 L70.5027159,20.3851347 L73.1050901,20.3851347 C76.503033,20.3851347 79.7823251,19.7798141 82.8200094,18.7695336 C83.8863636,18.4148829 84.846753,18.0344749 85.6857418,17.653668 C85.9801606,17.5200349 86.2385352,17.395789 86.4589113,17.2841234 C86.5919688,17.2167026 86.6822925,17.1686985 86.7280891,17.1433016 L88.0012623,16.4259582 L88.2468291,16.5645981 L89.2561538,17.1350718 C89.463005,17.248331 89.810752,17.4241459 90.3096425,17.6506206 C91.1423541,18.0286357 92.0939799,18.406199 93.1510582,18.7589739 C96.1969301,19.7754618 99.4867103,20.3851415 102.897544,20.3851415 L105.5,20.3851415 L105.5,37.0576233 C105.5,48.1339507 99.0677569,58.3265567 89.108112,63.0297722 L88.0012719,63.5532271 L87.7873324,63.4517866 Z M75.7075417,25.5240266 L75.7075417,37.0576777 C75.7075417,45.6739996 80.4795979,53.6679457 88.0041966,57.7304405 C95.5265869,53.667393 100.298255,45.6731007 100.298255,37.0577875 L100.295723,25.5240393 C95.5777469,25.1684914 91.3950986,23.933837 87.9991801,22.3540539 C84.6174417,23.9309615 80.4270099,25.168253 75.7075417,25.5240266 Z"></path>
                    </g>
                    <path d="M53,67.832 L51.6797,67.21091 C37.1677,60.41401 27.7927,45.67991 27.7927,29.67191 L27.796606,5.88291 L30.913806,5.88291 C42.616806,5.88291 51.390806,1.06651 51.475806,1.01961 L52.999206,0.16805 L54.526506,1.02352 C54.612443,1.066488 63.382006,5.88292 75.085506,5.88292 L78.202706,5.88292 L78.202706,29.67192 C78.202706,45.67992 68.831606,60.41392 54.323706,67.21092 L53,67.832 Z M34.031,12.02 L34.031,29.672 C34.031,42.777 41.4294,54.883 53.004,60.914 C64.574,54.8828 71.973,42.777 71.973,29.672 L71.969094,12.02 C62.957394,11.46141 55.961094,8.6255 52.996094,7.2309 C50.039094,8.6254 43.042994,11.4614 34.031094,12.02 L34.031,12.02 Z" id="Shape" stroke="#FFFFFF" stroke-width="2" fill="#37C2AC"></path>
                </g>
            </g>
        </g>
    </g>
</svg>