<?xml version="1.0" encoding="UTF-8"?>
<svg width="74px" height="72px" viewBox="0 0 74 72" version="1.1" xmlns="http://www.w3.org/2000/svg" xmlns:xlink="http://www.w3.org/1999/xlink">
    <!-- Generator: Sketch 49.3 (51167) - http://www.bohemiancoding.com/sketch -->
    <title>admin-app-icon</title>
    <desc>Created with Sketch.</desc>
    <defs></defs>
    <g id="7.1.5.web" stroke="none" stroke-width="1" fill="none" fill-rule="evenodd">
        <g id="d.4.home" transform="translate(-1039.000000, -520.000000)" fill="#37C2AC" fill-rule="nonzero">
            <g id="Group-6" transform="translate(908.000000, 347.000000)">
                <g id="admin-app-icon" transform="translate(131.000000, 173.000000)">
                    <path d="M48.4140689,58.8007094 C47.6348652,58.0338445 46.366537,58.0338445 45.5873678,58.8007094 L38.9995324,65.2809108 L38.9995324,42.9686214 C38.9995324,41.8830921 38.1022313,41 36.9992359,41 C35.8962404,41 34.9989394,41.8830921 34.9989394,42.9686214 L34.9989394,65.2809108 L28.411104,58.8007094 C27.6319002,58.0338445 26.363572,58.0338445 25.5844028,58.8007094 C24.8051991,59.5675743 24.8051991,60.8158184 25.5844028,61.5826493 L35.5824311,71.422357 C35.9703491,71.8074467 36.4864678,72 36.9957817,72 C37.5051302,72 38.0212316,71.8074552 38.4091323,71.422357 L48.4071606,61.5826493 C49.196485,60.8157844 49.196485,59.5675404 48.4139075,58.8007094 L48.4140689,58.8007094 Z" id="Shape"></path>
                    <path d="M58.9156264,20.1058024 C57.9543659,8.86088658 48.4905301,0 36.9990934,0 C24.866989,0 14.9988073,9.8694147 14.9988073,22.0011099 C14.9988073,23.002903 15.0696356,24.0113448 15.2146657,25.0198729 C14.9785684,25.0030086 14.7424712,24.9996359 14.4996391,24.9996359 C6.50614426,24.9996359 0,31.5060238 0,39.4998179 C0,47.4936121 6.50614426,54 14.4996391,54 L26.9995662,54 C28.1024298,54 28.9996236,53.1027726 28.9996236,51.9998677 C28.9996236,50.8969628 28.1024298,49.9997354 26.9995662,49.9997354 L14.4996391,49.9963627 C8.71195788,49.9963627 4.0002875,45.2877971 4.0002875,39.4966179 C4.0002875,33.70872 8.70867683,28.9968732 14.4996391,28.9968732 C15.4002003,28.9968732 16.3243332,29.1216699 17.2484661,29.3746395 C17.9432624,29.5668988 18.6886732,29.3645205 19.1945589,28.8484606 C19.7004791,28.3391539 19.8927226,27.5937584 19.6971031,26.8989274 C19.235028,25.2698264 18.9989394,23.6204339 18.9989394,21.9980679 C18.9989394,12.0751184 27.0734243,3.99653184 36.9998014,3.99653184 C46.9261785,3.99653184 55.0006634,12.0713191 55.0006634,21.9980679 C55.0006634,23.1009729 55.8978572,23.9982002 57.0007209,23.9982002 C64.1679098,23.9982002 69.9997125,29.8299623 69.9997125,36.9976787 C69.9997125,44.1653951 64.1681688,49.9971571 57.0007209,49.9971571 L47.0038876,49.9971571 C45.9010239,49.9971571 45.0038301,50.8943845 45.0038301,51.9972894 C45.0038301,53.1001943 45.9010239,53.9974217 47.0038876,53.9974217 L57.0007209,53.9974217 C66.3732917,53.9974217 74,46.3712913 74,36.997506 C74,28.2747739 67.3893803,21.0639706 58.9166798,20.106387 L58.9156264,20.1058024 Z" id="Shape"></path>
                </g>
            </g>
        </g>
    </g>
</svg>