<?xml version="1.0" encoding="UTF-8"?>
<svg width="84px" height="84px" viewBox="0 0 84 84" version="1.1" xmlns="http://www.w3.org/2000/svg" xmlns:xlink="http://www.w3.org/1999/xlink">
    <!-- Generator: Sketch 49.3 (51167) - http://www.bohemiancoding.com/sketch -->
    <title>admin-coaches-icon</title>
    <desc>Created with Sketch.</desc>
    <defs></defs>
    <g id="7.1.5.web" stroke="none" stroke-width="1" fill="none" fill-rule="evenodd">
        <g id="d.4.home" transform="translate(-679.000000, -509.000000)" fill="#37C2AC" fill-rule="nonzero">
            <g id="Group-5" transform="translate(553.000000, 347.000000)">
                <g id="admin-coaches-icon" transform="translate(126.000000, 162.000000)">
                    <path d="M54.5,42 C47.6094,42 42,47.6094 42,54.5 C42,61.3906 47.6094,67 54.5,67 C61.3906,67 67,61.3906 67,54.5 C67,47.6094 61.3906,42 54.5,42 Z M54.5,62.832 C49.9023,62.832 46.168,59.0937 46.168,54.5 C46.168,49.9023 49.9063,46.168 54.5,46.168 C59.0977,46.168 62.832,49.9063 62.832,54.5 C62.832,59.0977 59.0976,62.832 54.5,62.832 Z" id="Shape"></path>
                    <path d="M21.3875611,15.3506887 C21.7547511,16.0772487 22.4891611,16.4990887 23.2508611,16.4990887 C23.5633611,16.4990887 23.8797711,16.4287767 24.1805511,16.2764287 C25.2078511,15.7608087 25.6258511,14.5108287 25.1141411,13.4795287 L20.9461411,5.14752872 C20.4305211,4.12022872 19.1805411,3.70612872 18.1492411,4.22174872 C17.1219411,4.73346872 16.7039411,5.98734872 17.2234611,7.01474872 L21.3875611,15.3506887 Z" id="Shape"></path>
                    <path d="M36.082,16.6679 C37.2304,16.6679 38.164,15.73431 38.164,14.5859 L38.164,2.0859 C38.164,0.9336 37.23041,0 36.082,0 C34.93359,0 34,0.93359 34,2.0859 L34,14.5859 C34,15.7343 34.93359,16.6679 36.082,16.6679 Z" id="Shape"></path>
                    <path d="M47.1506551,16.2737881 C47.4514351,16.4261281 47.7678451,16.4964481 48.0842451,16.4964481 C48.8498651,16.4964481 49.5842451,16.0745681 49.9514451,15.3480481 L54.1194451,7.01604805 C54.6350651,5.98874805 54.2171011,4.73874805 53.1858551,4.21914805 C52.1585551,3.70742805 50.9085551,4.12149205 50.3889551,5.15273805 L46.2209551,13.4847381 C45.7053351,14.5081381 46.1232981,15.7620381 47.1506451,16.2738381 L47.1506551,16.2737881 Z" id="Shape"></path>
                    <path d="M54.1679,25 L2.0859,25 C0.9336,25 0,25.93359 0,27.0859 L0,43.7539 C0,44.7734 0.74219,45.6484 1.75,45.8125 L25.371,49.6328 C25.12491,51.164 24.99991,52.6836 24.99991,54.168 C24.99991,70.25 38.08191,83.336 54.16791,83.336 C70.24991,83.336 83.33591,70.254 83.33591,54.168 C83.33591,38.086 70.24991,25 54.16791,25 L54.1679,25 Z M54.1679,79.168 C40.3789,79.168 29.1679,67.957 29.1679,54.168 C29.1679,52.3008 29.40228,50.3555 29.86321,48.3985 C29.99602,47.836 29.886648,47.2462 29.56634,46.7618 C29.24603,46.27742 28.73821,45.95711 28.17184,45.86336 L4.16784,41.97666 L4.16784,29.16766 L54.16784,29.16766 C67.95684,29.16766 79.16784,40.37866 79.16784,54.16766 C79.16784,67.95666 67.95684,79.16766 54.16784,79.16766 L54.1679,79.168 Z" id="Shape"></path>
                </g>
            </g>
        </g>
    </g>
</svg>