<?xml version="1.0" encoding="UTF-8"?>
<svg width="57px" height="54px" viewBox="0 0 57 54" version="1.1" xmlns="http://www.w3.org/2000/svg" xmlns:xlink="http://www.w3.org/1999/xlink">
    <defs></defs>
    <g id="Design" stroke="none" stroke-width="1" fill="none" fill-rule="evenodd">
        <g id="_assets" transform="translate(-227.000000, -837.000000)" fill="#FFFFFF">
            <g id="control_playloop" transform="translate(227.000000, 837.000000)">
                <path d="M32.1069833,0.188673469 C36.0945609,0.478052041 40.0478548,1.69702041 43.6403998,3.86727551 C53.2209592,9.65933673 58.2176009,21.0025816 56.1056319,32.1698265 C53.9936629,43.3370714 45.2203108,51.9619694 34.2189523,53.6849286 C23.2129786,55.4124898 12.3102958,49.8747755 7.01828612,39.8687041 L7.01828612,39.8730884 C6.29717288,38.5095373 6.7950899,36.8082414 8.12998177,36.0716904 C9.46485165,35.3306945 11.1303623,35.8393098 11.8514206,37.2028945 C16.0536015,45.1389455 24.6550952,49.5060578 33.3864717,48.1380169 C42.117079,46.7699761 49.0405353,39.9607516 50.7151662,31.1037312 C52.3891379,22.2469353 48.4445249,13.2938333 40.8470406,8.70301694 C33.2452708,4.1124251 23.6644916,4.88848633 16.8747641,10.65417 C16.3167625,11.1408527 15.5870344,11.3820108 14.8574051,11.3162353 C14.1234135,11.2548519 13.445177,10.8953169 12.9731156,10.3165598 C12.5052519,9.73780265 12.2820447,8.99240673 12.3550186,8.24261082 C12.4279881,7.49723735 12.7928401,6.80890673 13.36372,6.33534551 C18.7162758,1.79290673 25.4641376,-0.298552449 32.1088183,0.188141429 L32.1069833,0.188673469 Z" id="Shape" fill-rule="nonzero"></path>
                <path d="M9.3401334,2.6255102 C14.1646969,2.6255102 18.1308472,6.67687755 18.1308472,11.605102 C18.1308472,16.5333265 14.1646969,20.5846939 9.3401334,20.5846939 C4.51556991,20.5846939 0.549419612,16.5333265 0.549419612,11.605102 C0.549419612,6.67687755 4.51556991,2.6255102 9.3401334,2.6255102 L9.3401334,2.6255102 Z M9.3401334,8.2377551 C7.48584221,8.2377551 6.04361573,9.71096939 6.04361573,11.605102 C6.04361573,13.4992347 7.48584221,14.972449 9.3401334,14.972449 C11.1944246,14.972449 12.6366511,13.4992347 12.6366511,11.605102 C12.6366511,9.71096939 11.1944246,8.2377551 9.3401334,8.2377551 Z" id="Shape" fill-rule="nonzero"></path>
                <path d="M40.3736698,26.0448451 C40.8381244,26.2962332 40.8346659,26.7056859 40.3736698,26.9552021 L23.8632447,35.8915441 C23.3987901,36.1429323 23.0222752,35.9170833 23.0222752,35.3835378 L23.0222752,17.6165094 C23.0222752,17.0845571 23.4022486,16.8589869 23.8632447,17.1085031 L40.3736698,26.0448451 Z" id="Play"></path>
            </g>
        </g>
    </g>
</svg>