<svg width="39px" height="40px" viewBox="0 0 39 40" version="1.1" xmlns="http://www.w3.org/2000/svg" xmlns:xlink="http://www.w3.org/1999/xlink">
    <!-- Generator: Sketch 47.1 (45422) - http://www.bohemiancoding.com/sketch -->
    <desc>Created with Sketch.</desc>
    <defs></defs>
    <g id="Symbols" stroke="none" stroke-width="1" fill="none" fill-rule="evenodd">
        <g id="icn_player_white" transform="translate(-1.000000, 0.000000)" fill-rule="nonzero" fill="#FFFFFF">
            <path d="M4.02906048,22.83272 L10.1509711,24.2324745 L12.95048,20.4413385 L12.9520746,20.4397443 C13.0397566,20.321771 13.1880212,20.2659719 13.3315065,20.2962631 C13.4765835,20.3249597 13.5897736,20.4365569 13.624848,20.5800381 C13.8687695,21.5955815 14.3311125,22.5473345 14.9799534,23.3667727 L15.9141977,24.5545049 C16.1326112,24.8334967 16.1086949,25.232078 15.8568069,25.48075 L12.8532343,28.4843226 C12.343075,29.0789642 11.5714694,29.3850597 10.7918645,29.3005774 C10.6978034,29.2910121 10.6037423,29.2734753 10.511277,29.2527489 L2.86705124,27.4974747 C2.20543595,27.3460227 1.63948572,26.9219335 1.30788223,26.3304753 C0.974682958,25.7390171 0.909321359,25.0343444 1.12454325,24.3918703 C1.55499519,23.2073622 2.80488527,22.5361559 4.0292674,22.8327013 L4.02906048,22.83272 Z M32.4306445,0.116350375 C30.3644996,-0.365117488 28.2473389,0.682300605 27.3735382,2.61772224 C26.5014924,4.55155218 27.1168628,6.83122925 28.8450414,8.06377392 C30.573216,9.29611453 32.9295802,9.13510828 34.4743423,7.67955873 C36.0175535,6.22401326 36.3172823,3.88046425 35.1901569,2.0837243 C34.5668239,1.08891383 33.5736052,0.382649406 32.430522,0.116427919 L32.4306445,0.116350375 Z M38.4554208,20.2039716 C38.8779142,19.8628016 39.1409523,19.3622089 39.1823772,18.8201749 C39.2317974,17.7456572 38.439463,16.8178204 37.3697203,16.6982391 L31.40249,15.9186342 L29.7508393,11.8373604 C29.3714074,10.9015244 28.7257458,10.098044 27.8935332,9.52727787 C24.6189641,7.27939392 21.0349527,5.52093632 17.2536526,4.30773688 L16.64942,4.11164392 C15.9527466,3.88366805 15.1859161,4.06541126 14.6661659,4.5803374 L9.53110723,9.65009564 C8.76427671,10.3866431 8.69093622,11.5887007 9.36370971,12.4129139 C9.72241694,12.8258164 10.2357555,13.0713458 10.7810136,13.0920787 C11.326231,13.1128038 11.8571231,12.907148 12.2461093,12.522945 L16.5632807,8.26168713 L20.089746,10.1030354 L16.4771658,15.6209175 C15.2974328,17.6153135 15.4695809,20.1311331 16.9108011,21.9468918 L22.1095276,28.5707991 L18.4571141,36.4925514 C17.9724629,37.4857702 18.205222,38.681461 19.0278394,39.4180084 C19.333935,39.6762755 19.6990049,39.8548272 20.0896236,39.9377178 C20.1804973,39.9584434 20.2745543,39.9727915 20.3670237,39.9823588 C21.3968923,40.0923614 22.3805609,39.5343574 22.8157879,38.5937871 L27.0803109,29.2403239 C27.4597428,28.4400269 27.3608985,27.4946407 26.8236355,26.7915596 L23.5267418,20.5994511 L26.5781469,15.2652263 L28.116583,18.4154799 L28.1181772,18.4170741 C28.3525321,19.0372236 28.883416,19.4963669 29.5290735,19.6414562 L29.7171957,19.6733411 L36.9488047,20.6123606 C37.4860635,20.6952594 38.0328726,20.5469949 38.4553661,20.2042332 L38.4554208,20.2039716 Z M32.7832665,31.2234107 C30.71553,30.7483096 28.6015934,31.8005436 27.7326902,33.7343328 C26.8654196,35.6697544 27.4839897,37.9478398 29.212152,39.1771194 C30.9403265,40.4062766 33.2950582,40.2436787 34.8381878,38.7881251 C36.3798074,37.3325796 36.6795361,34.9906223 35.5540024,33.1939231 C34.9274453,32.1943376 33.9294514,31.4832981 32.7784098,31.2186683 L32.7832665,31.2234107 Z" id="Shape"></path>
        </g>
    </g>
</svg>