<?xml version="1.0" encoding="UTF-8"?>
<svg width="40px" height="46px" viewBox="0 0 40 46" version="1.1" xmlns="http://www.w3.org/2000/svg" xmlns:xlink="http://www.w3.org/1999/xlink">
    <!-- Generator: Sketch 44.1 (41455) - http://www.bohemiancoding.com/sketch -->
    <title>icon-video-clips</title>
    <desc>Created with Sketch.</desc>
    <defs></defs>
    <g id="Design" stroke="none" stroke-width="1" fill="none" fill-rule="evenodd">
        <g id="x00_widths" transform="translate(-801.000000, -163.000000)" fill="#FFFFFF">
            <g id="icon-video-clips" transform="translate(801.000000, 163.000000)">
                <g>
                    <path d="M39.4002528,38.3866834 C39.9105976,38.6669131 39.9023933,39.1257602 39.4002528,39.401485 L27.648817,45.854184 C27.1384722,46.1344137 26.724756,45.8982327 26.724756,45.3113845 L26.724756,32.4767839 C26.724756,31.8967743 27.1466765,31.6582597 27.648817,31.9339844 L39.4002528,38.3866834 Z" id="Play"></path>
                    <path d="M22.313056,38.5119092 L22.313056,41.6669998 L3.14995522,41.6669998 C1.40951532,41.6669998 -0.000487955791,40.2589538 1.26676655e-07,38.5126328 L0.00892922705,6.56500991 C0.0094160225,4.82329385 1.42458998,3.41152644 3.16090196,3.41152644 L29.9262378,3.41152644 C31.6651954,3.41152644 33.0778391,4.82798321 33.0770956,6.56629264 L33.0686339,28.5405628 L29.9194649,28.5392108 L29.9279266,6.56494064 C29.9279247,6.56939305 3.16090196,6.56661702 3.16090196,6.56661702 C3.16066446,6.56661702 3.14916972,38.5119702 3.14916972,38.5119702 C3.14938535,38.5119312 22.313056,38.5119092 22.313056,38.5119092 Z" id="Path-3" fill-rule="nonzero"></path>
                    <path d="M12.4492713,5.52140853 L21.1094868,5.52140853 L21.1094868,3.94386323 L12.4492713,3.94386323 L12.4492713,5.52140853 Z M8.51280968,3.15179844 C8.51280968,1.41110823 9.9224158,0 11.6614824,0 L21.8972758,0 C23.6362397,0 25.0459484,1.41704682 25.0459484,3.15179844 L25.0459484,6.31347332 C25.0459484,8.05416353 23.6363423,9.46527176 21.8972758,9.46527176 L11.6614824,9.46527176 C9.92251846,9.46527176 8.51280968,8.04822494 8.51280968,6.31347332 L8.51280968,3.15179844 Z" id="Rectangle-3" fill-rule="nonzero"></path>
                </g>
            </g>
        </g>
    </g>
</svg>