<?xml version="1.0" encoding="UTF-8"?>
<svg width="9px" height="36px" viewBox="0 0 9 36" version="1.1" xmlns="http://www.w3.org/2000/svg" xmlns:xlink="http://www.w3.org/1999/xlink">
    <!-- Generator: Sketch 48.2 (47327) - http://www.bohemiancoding.com/sketch -->
    <title>icon_more</title>
    <desc>Created with Sketch.</desc>
    <defs></defs>
    <g id="controls.d.3" stroke="none" stroke-width="1" fill="none" fill-rule="evenodd" transform="translate(-1036.000000, -131.000000)">
        <g id="icn_more" transform="translate(1020.000000, 129.000000)" fill="#FFFFFF">
            <g id="Group" transform="translate(16.000000, 2.000000)">
                <path d="M4.2155122,8.82926829 C6.41775114,8.82926829 8.2155122,6.99406917 8.2155122,4.82926829 C8.2155122,2.66446741 6.38031308,0.829268293 4.2155122,0.829268293 C2.01327325,0.829268293 0.215512195,2.66446741 0.215512195,4.82926829 C0.215512195,6.99406917 2.05071131,8.82926829 4.2155122,8.82926829 Z" id="Shape" fill-rule="nonzero" transform="translate(4.215512, 4.829268) rotate(90.000000) translate(-4.215512, -4.829268) "></path>
                <path d="M4.2155122,22.0447805 C6.41775114,22.0447805 8.2155122,20.2095814 8.2155122,18.0447805 C8.2155122,15.8799796 6.38031308,14.0447805 4.2155122,14.0447805 C2.01327325,14.0447805 0.215512195,15.8799796 0.215512195,18.0447805 C0.215512195,20.2095814 2.01342007,22.0447805 4.2155122,22.0447805 Z" id="Shape" fill-rule="nonzero" transform="translate(4.215512, 18.044780) rotate(90.000000) translate(-4.215512, -18.044780) "></path>
                <path d="M4.2155122,27.2602927 C2.01327325,27.2602927 0.215512195,29.0954918 0.215512195,31.2602927 C0.215512195,33.4250936 2.05071131,35.2602927 4.2155122,35.2602927 C6.41775114,35.2602927 8.2155122,33.4250936 8.2155122,31.2602927 C8.2155122,29.0954918 6.38031308,27.2602927 4.2155122,27.2602927 Z" id="Shape" fill-rule="nonzero" transform="translate(4.215512, 31.260293) rotate(90.000000) translate(-4.215512, -31.260293) "></path>
            </g>
        </g>
    </g>
</svg>