<?xml version="1.0" encoding="UTF-8"?>
<svg width="54px" height="54px" viewBox="0 0 54 54" version="1.1" xmlns="http://www.w3.org/2000/svg" xmlns:xlink="http://www.w3.org/1999/xlink">
    <!-- Generator: Sketch 49.3 (51167) - http://www.bohemiancoding.com/sketch -->
    <title>login-loading</title>
    <desc>Created with Sketch.</desc>
    <defs></defs>
    <g id="7.1.5.web" stroke="none" stroke-width="1" fill="none" fill-rule="evenodd">
        <g id="d.0d.loginsetup" transform="translate(-694.000000, -228.000000)" fill="#CCCCCC" fill-rule="nonzero">
            <g id="Group-7" transform="translate(470.000000, 86.000000)">
                <path d="M250.973395,142.002023 C250.274796,141.973799 249.597392,142.241926 249.105807,142.740566 C248.614216,143.236833 248.357832,143.918886 248.395466,144.617449 C248.433099,145.316012 248.764744,145.965142 249.308065,146.407328 C249.849049,146.847148 250.554669,147.040021 251.243815,146.93417 C258.057597,147.014136 264.448679,150.241054 268.562479,155.671926 C272.67393,161.104965 274.042889,168.132499 272.269354,174.711104 C270.49588,181.289709 265.782533,186.677951 259.497427,189.309754 C253.214729,191.93927 246.066761,191.518277 240.13511,188.164369 C234.205446,184.812809 230.1577,178.906997 229.172002,172.166426 C228.186484,165.423446 230.373928,158.607009 235.094561,153.696237 C235.635545,153.275233 235.97898,152.649597 236.040097,151.96988 C236.103604,151.287815 235.880151,150.610446 235.426218,150.100041 C234.969913,149.587312 234.323103,149.286235 233.641002,149.269798 C232.956553,149.250982 232.295587,149.519106 231.813396,150.005992 C225.911972,155.965874 223.115527,164.32948 224.246943,172.639139 C225.37595,180.951205 230.305645,188.263175 237.583073,192.430949 C244.862909,196.598663 253.666754,197.146639 261.404816,193.915019 C269.145287,190.68105 274.943264,184.036876 277.095904,175.929525 C279.248062,167.824582 277.509873,159.176541 272.394057,152.532307 C267.275893,145.885664 259.360802,141.99546 250.973636,142.002685 L250.973395,142.002023 Z" id="login-loading"></path>
            </g>
        </g>
    </g>
</svg>