<?xml version="1.0" encoding="UTF-8"?>
<svg width="282px" height="182px" viewBox="0 0 282 182" version="1.1" xmlns="http://www.w3.org/2000/svg" xmlns:xlink="http://www.w3.org/1999/xlink">
    <!-- Generator: Sketch 49.3 (51167) - http://www.bohemiancoding.com/sketch -->
    <title>login-tracebot</title>
    <desc>Created with Sketch.</desc>
    <defs></defs>
    <g id="7.1.5.web" stroke="none" stroke-width="1" fill="none" fill-rule="evenodd">
        <g id="d.0a.logIn" transform="translate(-585.000000, -140.000000)">
            <g id="Group-8" transform="translate(553.000000, 122.000000)">
                <g id="login-tracebot">
                    <g id="Group-3" transform="translate(111.500000, 116.000000) rotate(35.000000) translate(-111.500000, -116.000000) translate(41.000000, 24.000000)">
                        <path d="M81.1181117,76.7991281 C75.6892495,72.9977979 74.3698741,65.5152485 78.1712044,60.0863864 L113.159367,10.1181117 C116.960697,4.68924947 124.443247,3.36987413 129.872109,7.17120436 C135.300971,10.9725346 136.620346,18.4550839 132.819016,23.8839461 L97.8308534,73.8522208 C94.0295232,79.281083 86.5469738,80.6004583 81.1181117,76.7991281 Z" id="Combined-Shape-Copy-3" fill="#21D9C6" transform="translate(105.495110, 41.985166) rotate(-10.000000) translate(-105.495110, -41.985166) "></path>
                        <path d="M19,140 L19,140 C25.627417,140 31,134.627417 31,128 L31,72 C31,65.372583 25.627417,60 19,60 L19,60 C12.372583,60 7,65.372583 7,72 L7,128 C7,134.627417 12.372583,140 19,140 Z" id="Rectangle-3-Copy-15" fill="#21D9C6" transform="translate(19.000000, 100.000000) rotate(10.000000) translate(-19.000000, -100.000000) "></path>
                        <path d="M96,136.705954 C92.8442078,138.788077 89.0636338,140 85,140 L66,140 L66,126 L96,126 L96,136.705954 Z" id="Combined-Shape-Copy-4" fill-opacity="0.15" fill="#000000" style="mix-blend-mode: multiply;"></path>
                        <g id="Group" transform="translate(81.000000, 152.500000) scale(-1, 1) translate(-81.000000, -152.500000) translate(66.000000, 121.000000)">
                            <path d="M15,62.4637784 L15,62.4637784 C23.2842712,62.4637784 30,55.7480496 30,47.4637784 L30,22 C30,13.7157288 23.2842712,7 15,7 L15,7 C6.71572875,7 1.01453063e-15,13.7157288 0,22 L0,47.4637784 C-1.01453063e-15,55.7480496 6.71572875,62.4637784 15,62.4637784 Z" id="Rectangle-3-Copy-18" fill="#21D9C6"></path>
                            <polygon id="Rectangle-3-Copy-19" fill="#32B39F" points="0 0 30 0 30 41.1611235 0 41.1611235"></polygon>
                            <path d="M30,15.7059542 C26.8442078,17.7880773 23.0636338,19 19,19 L0,19 L0,5 L30,5 L30,15.7059542 Z" id="Combined-Shape-Copy-5" fill-opacity="0.15" fill="#000000" style="mix-blend-mode: multiply;" transform="translate(15.000000, 12.000000) scale(-1, 1) translate(-15.000000, -12.000000) "></path>
                        </g>
                        <path d="M41,137 L85,137 C96.045695,137 105,128.045695 105,117 L105,48.5221771 C105,37.4764821 96.045695,28.5221771 85,28.5221771 C84.2098358,28.5221771 83.420366,28.569004 82.6357422,28.6624116 L38.6357422,33.9005069 C28.5755949,35.0981435 21,43.6290879 21,53.7602724 L21,117 C21,128.045695 29.954305,137 41,137 Z" id="Rectangle-3-Copy-20" fill="#39E3CF"></path>
                        <path d="M41,137 L85,137 C96.045695,137 105,128.045695 105,117 L105,100 L21,100 L21,117 C21,128.045695 29.954305,137 41,137 Z" id="Rectangle-3-Copy-21" fill="#32B39F"></path>
                        <path d="M34.0709139,135.76713 L34.0709139,110.982302 C34.0709139,102.698031 40.7866427,95.9823024 49.0709139,95.9823024 C57.3551852,95.9823024 64.0709139,102.698031 64.0709139,110.982302 L64.0709139,137 L41,137 C38.5640533,137 36.2298215,136.564507 34.0709139,135.76713 Z" id="Combined-Shape" fill-opacity="0.15" fill="#000000" style="mix-blend-mode: multiply;"></path>
                        <g id="Group-2" transform="translate(46.500000, 129.000000) rotate(90.000000) translate(-46.500000, -129.000000) translate(12.500000, 113.500000)">
                            <path d="M39.7318892,43.2318892 L39.7318892,43.2318892 C48.0161604,43.2318892 54.7318892,36.5161604 54.7318892,28.2318892 L54.7318892,2.76811081 C54.7318892,-5.51616044 48.0161604,-12.2318892 39.7318892,-12.2318892 L39.7318892,-12.2318892 C31.4476179,-12.2318892 24.7318892,-5.51616044 24.7318892,2.76811081 L24.7318892,28.2318892 C24.7318892,36.5161604 31.4476179,43.2318892 39.7318892,43.2318892 Z" id="Rectangle-3-Copy-18" fill="#21D9C6" transform="translate(39.731889, 15.500000) rotate(-90.000000) translate(-39.731889, -15.500000) "></path>
                            <path d="M2.3659446,32.8659446 L32.3659446,32.8659446 L32.3659446,13.1340554 C32.3659446,4.84978416 25.6502158,-1.8659446 17.3659446,-1.8659446 L17.3659446,-1.8659446 C9.08167335,-1.8659446 2.3659446,4.84978416 2.3659446,13.1340554 L2.3659446,32.8659446 Z" id="Rectangle-3-Copy-18" fill="#32B39F" transform="translate(17.365945, 15.500000) rotate(-90.000000) translate(-17.365945, -15.500000) "></path>
                        </g>
                        <g id="Group-9" transform="translate(73.500000, 53.500000) rotate(-7.000000) translate(-73.500000, -53.500000) translate(55.000000, 43.000000)">
                            <path d="M27,15 C25.3862069,18.0518053 21.9724138,20.1428571 18,20.1428571 C14.0275862,20.1428571 10.6137931,18.0518053 9,15" id="Shape-Copy" fill="#2B9988"></path>
                            <path d="M12,4.5 C12,6.9862464 9.9862464,9 7.5,9 C5.0137536,9 3,6.9862464 3,4.5 C3,2.0137536 5.0137536,0 7.5,0 C9.9862464,0 12,2.0137536 12,4.5" id="Shape" fill="#2B9988" fill-rule="nonzero"></path>
                            <path d="M33,4.5 C33,6.9862464 30.9862464,9 28.5,9 C26.0137536,9 24,6.9862464 24,4.5 C24,2.0137536 26.0137536,0 28.5,0 C30.9862464,0 33,2.0137536 33,4.5" id="Shape" fill="#2B9988" fill-rule="nonzero"></path>
                            <rect id="Rectangle" fill="#39E3CF" x="0" y="7" width="37" height="9"></rect>
                        </g>
                    </g>
                    <g id="Group-6" transform="translate(114.000000, 18.000000)">
                        <g id="Group-4" transform="translate(79.500000, 62.500000) rotate(20.000000) translate(-79.500000, -62.500000) translate(77.000000, 21.000000)">
                            <rect id="Rectangle-2" fill="#6A6A6A" x="0" y="0" width="5" height="83"></rect>
                            <rect id="Rectangle-2" fill="#DADADA" x="0" y="0" width="5" height="12.5757576"></rect>
                        </g>
                        <polygon id="Star" fill="#FBD52F" points="78.5 17.25 75.2671811 18.9495935 75.8845946 15.3497967 73.2691892 12.8004065 76.8835906 12.2752033 78.5 9 80.1164094 12.2752033 83.7308108 12.8004065 81.1154054 15.3497967 81.7328189 18.9495935"></polygon>
                        <polygon id="Star-Copy" fill="#FBD52F" points="64.5 6.75 61.8549664 8.14057647 62.3601228 5.19528824 60.2202457 3.10942353 63.1774832 2.67971176 64.5 0 65.8225168 2.67971176 68.7797543 3.10942353 66.6398772 5.19528824 67.1450336 8.14057647"></polygon>
                        <polygon id="Star-Copy-2" fill="#FBD52F" points="40.5 33.75 37.8549664 35.1405765 38.3601228 32.1952882 36.2202457 30.1094235 39.1774832 29.6797118 40.5 27 41.8225168 29.6797118 44.7797543 30.1094235 42.6398772 32.1952882 43.1450336 35.1405765"></polygon>
                        <polygon id="Star-Copy-2" fill="#FBD52F" points="28 8.5 26.2366442 9.42705098 26.5734152 7.46352549 25.1468305 6.07294902 27.1183221 5.78647451 28 4 28.8816779 5.78647451 30.8531695 6.07294902 29.4265848 7.46352549 29.7633558 9.42705098"></polygon>
                        <polygon id="Star-Copy-2" fill="#FBD52F" points="53 20.5 51.2366442 21.427051 51.5734152 19.4635255 50.1468305 18.072949 52.1183221 17.7864745 53 16 53.8816779 17.7864745 55.8531695 18.072949 54.4265848 19.4635255 54.7633558 21.427051"></polygon>
                        <polygon id="Star-Copy-2" fill="#FBD52F" points="3 20.5 1.23664424 21.427051 1.57341523 19.4635255 0.146830451 18.072949 2.11832212 17.7864745 3 16 3.88167788 17.7864745 5.85316955 18.072949 4.42658477 19.4635255 4.76335576 21.427051"></polygon>
                    </g>
                    <g id="Group-5" transform="translate(275.000000, 75.000000) rotate(-10.000000) translate(-275.000000, -75.000000) translate(234.000000, 44.000000)">
                        <rect id="Rectangle-3" fill="#FFFFFF" x="2.48700665" y="18.9625699" width="61" height="40"></rect>
                        <path d="M81.9993427,18.5993383 C81.9993427,8.34351342 73.7224595,0 63.5499987,0 C54.0686995,0 46.2473427,7.24887451 45.2226707,16.533333 L2.04999869,16.533333 C1.79375197,16.533333 1.54775197,16.595333 1.32224541,16.6831647 C1.24537139,16.7141653 1.18386877,16.7554987 1.11211549,16.796832 C0.968608928,16.874331 0.830245408,16.9621653 0.707245408,17.0706637 C0.640620736,17.1274973 0.584245408,17.1894973 0.522751968,17.256657 C0.420250656,17.3754907 0.333128608,17.504657 0.261375328,17.6493303 C0.220375328,17.731997 0.174249344,17.8043336 0.1435,17.8870003 C0.128124672,17.9283336 0.1025,17.959333 0.092249344,18.0006663 C0.046124672,18.1556696 0.041,18.3158313 0.030750656,18.4708346 C0.0205,18.5173343 0,18.5535013 0,18.6000009 L0,59.9333334 C0,61.075165 0.91737664,62 2.05,62 L63.55,62 C64.6826234,62 65.6,61.075165 65.6,59.9333334 L65.6,37.0763312 C74.809584,36.0429979 82,28.1586482 82,18.6000009 L81.9993427,18.5993383 Z M4.09934269,22.4640379 L19.2595027,32.6526713 L4.09934269,52.7611722 L4.09934269,22.4640379 Z M22.6825107,34.9467043 L31.6615763,40.9813709 C32.0049529,41.2190408 32.4047062,41.3326976 32.7993296,41.3326976 C33.1939529,41.3326976 33.5937062,41.2190302 33.9370828,40.9865293 L42.2857324,35.3755128 L60.7101484,57.8661364 L5.40672445,57.8661364 L22.6825107,34.9467043 Z M45.7146707,33.071163 L49.4457363,30.5602127 C52.4182035,34.1148793 56.6822035,36.5328462 61.4997363,37.075404 L61.4997363,52.3376544 L45.7146707,33.071163 Z M45.2226707,20.6660049 C45.4789174,22.9703547 46.155424,25.1506384 47.1702035,27.1243216 L32.7998675,36.7860045 L8.82044349,20.6653436 L45.2226707,20.6660049 Z M63.5499987,33.0660046 C55.6370643,33.0660046 49.1993427,26.5767376 49.1993427,18.5986769 C49.1993427,10.6206163 55.6362771,4.13134925 63.5499987,4.13134925 C71.4637203,4.13134925 77.9006547,10.6206163 77.9006547,18.5986769 C77.9006547,26.5767376 71.4637203,33.0660046 63.5499987,33.0660046 Z" id="Shape" fill="#D9D9D9" fill-rule="nonzero"></path>
                        <path d="M69,14.3636364 L69,12.2727273 C69,8.81232291 66.309952,6 63,6 C59.690048,6 57,8.81232291 57,12.2727273 L57,14.3636364 C55.8950016,14.3636364 55,15.2993199 55,16.4545455 L55,26.9090909 C55,28.0643165 55.8950016,29 57,29 L69,29 C70.1049984,29 71,28.0643165 71,26.9090909 L71,16.4545455 C71,15.2993199 70.1049984,14.3636364 69,14.3636364 Z M61,12.2727273 C61,11.1227206 61.8950016,10.1818182 63,10.1818182 C64.1049984,10.1818182 65,11.1227206 65,12.2727273 L65,14.3636364 L61,14.3636364 L61,12.2727273 Z M67,24.8181818 L59,24.8181818 L59,18.5454545 L67,18.5454545 L67,24.8181818 Z" id="Shape" fill="#D9D9D9" fill-rule="nonzero"></path>
                    </g>
                </g>
            </g>
        </g>
    </g>
</svg>