<?xml version="1.0" encoding="UTF-8"?>
<svg width="30px" height="30px" viewBox="0 0 30 30" version="1.1" xmlns="http://www.w3.org/2000/svg" xmlns:xlink="http://www.w3.org/1999/xlink">
    <!-- Generator: Sketch 49.3 (51167) - http://www.bohemiancoding.com/sketch -->
    <title>menu-user-icon</title>
    <desc>Created with Sketch.</desc>
    <defs>
        <circle id="path-1" cx="15" cy="15" r="15"></circle>
    </defs>
    <g id="Symbols" stroke="none" stroke-width="1" fill="none" fill-rule="evenodd">
        <g id="desktop/nav" transform="translate(-30.000000, -835.000000)">
            <g id="Group-2" transform="translate(30.000000, 830.000000)">
                <g id="menu-user-icon" transform="translate(0.000000, 5.000000)">
                    <mask id="mask-2" fill="white">
                        <use xlink:href="#path-1"></use>
                    </mask>
                    <use id="Mask" fill="#E6E4E1" xlink:href="#path-1"></use>
                    <g id="Group" opacity="0.25" mask="url(#mask-2)" fill="#444444" fill-rule="nonzero" stroke="#444444" stroke-linecap="round" stroke-linejoin="round" stroke-width="2">
                        <g transform="translate(2.000000, 7.000000)">
                            <path d="M24.0345757,23.9036329 L25.5631583,23.9981032 C25.7476737,21.1528974 24.7292176,19.2560935 22.7845908,18.7335241 C17.7827061,17.4535608 16.5800494,15.8401394 16.3012664,15.1770168 C16.6721033,14.9399163 16.9959083,14.608355 17.274506,14.2767937 C19.6370294,11.5742275 19.2191329,6.9266787 19.1739348,6.50084623 C18.9423875,1.1902696 15.1453823,-0.0895988077 12.9221578,0.00476718476 C10.6989333,-0.0897031319 6.90192811,1.1902696 6.67038082,6.50084623 C6.62334893,6.92688735 6.25431811,11.5743224 8.5698096,14.2767937 C8.8936146,14.6565243 9.3115019,14.9880951 9.72754608,15.2733744 C9.35670919,15.9364971 8.01446656,17.5017396 3.29145743,18.7354209 C1.2997802,19.2578006 0.328392983,21.1546045 0.512889869,24 L2.0414725,23.9055297 C1.9492148,22.7200273 2.08850439,20.6805837 3.66230358,20.3008436 C8.84849992,18.9727015 10.5614868,17.1240765 11.1190527,15.9385741 C11.6291977,16.0812042 12.2297388,16.1756746 12.8321322,16.1756746 L12.926196,16.1756746 L13.0202598,16.1756746 C13.7149017,16.1756746 14.3172951,16.0812042 14.9196886,15.8904142 C15.4678073,17.0295872 17.1338364,18.9263911 22.4144115,20.2526838 C24.0345757,20.6787059 24.1268241,22.7181305 24.0345757,23.9036329 Z" id="Shape"></path>
                            <polygon id="Path-2" points="2 24 24 24 24 20 18 18 15 15 11 15 8 17 3 19.5 2 21"></polygon>
                        </g>
                    </g>
                </g>
            </g>
        </g>
    </g>
</svg>