<?xml version="1.0" encoding="UTF-8"?>
<svg width="160px" height="39px" viewBox="0 0 160 39" version="1.1" xmlns="http://www.w3.org/2000/svg" xmlns:xlink="http://www.w3.org/1999/xlink">
    <!-- Generator: Sketch 47.1 (45422) - http://www.bohemiancoding.com/sketch -->
    <title>logo_black</title>
    <desc>Created with Sketch.</desc>
    <defs>
        <polygon id="path-1" points="12.6990992 0.040590728 12.6990992 2.88774036 8.06015885 2.88774036 8.06015885 17.7710073 4.67759818 17.7710073 4.67759818 2.88774036 0.0386578362 2.88774036 0.0386578362 0.040590728"></polygon>
        <path d="M3.67539378,0.0657183215 L7.54469331,0.0657183215 C8.30695187,0.0832096904 9.06266202,0.219318773 9.78429834,0.46969271 C11.0899668,0.914257826 12.1116934,1.94526232 12.5444678,3.25498981 C12.7692632,3.91855157 12.8809843,4.61497249 12.8749923,5.31545248 C12.9138435,6.33176699 12.6355071,7.33493784 12.0786409,8.18579681 C11.4974204,9.02776449 10.6297452,9.62947371 9.63739856,9.87901004 L13.5302427,17.7826047 L9.78429834,17.7826047 L6.44812708,10.5709853 L3.52946044,10.5709853 L3.52946044,17.7826047 L0.143033994,17.7826047 L0.143033994,0.0657183215 L3.67539378,0.0657183215 Z M3.52752755,7.82241315 L6.03062245,7.82241315 C7.3552332,7.82241315 8.26311249,7.61366084 8.75406701,7.19615621 C9.24502153,6.77865158 9.49049879,6.1529745 9.49049879,5.31931826 C9.49049879,4.48566202 9.24502153,3.85998494 8.75406701,3.44248031 C8.26311249,3.02497568 7.55432106,2.81622337 6.62788602,2.81622337 L3.53525912,2.81622337 L3.52752755,7.82241315 Z" id="path-3"></path>
        <path d="M5.24586837,0.040590728 L9.47116987,0.040590728 L14.4966886,17.7826047 L11.1334568,17.7826047 L10.1515478,13.9554789 L4.55969178,13.9554789 L3.50433285,17.7826047 L0.144966886,17.7826047 L5.24586837,0.040590728 Z M5.29419067,11.1527857 L9.41511601,11.1527857 L7.43003612,3.45021188 L7.38171382,3.45021188 L5.29419067,11.1527857 Z" id="path-5"></path>
        <path d="M10.2443266,5.41209707 C10.029389,4.70601169 9.62889384,4.07047686 9.08459151,3.57198406 C8.51612803,3.08431546 7.7841419,2.83014019 7.03572619,2.86067988 C5.90691737,2.86067988 5.01972003,3.38004791 4.37413417,4.41859068 C3.7285483,5.45713345 3.40633524,7.02277581 3.40768826,9.11551778 C3.3587861,13.2853453 4.60163553,15.3703557 7.13623656,15.3703557 C7.48724971,15.3736416 7.83729642,15.3328576 8.17806525,15.2485835 C8.49641253,15.1670155 8.79620405,15.0253345 9.0613968,14.8310789 C9.36060846,14.6055104 9.62502806,14.337225 9.84615088,14.0347274 C10.138984,13.6324926 10.3896801,13.2010712 10.59418,12.7474215 L13.7235318,13.5804979 C13.200298,15.1177267 12.378819,16.2774618 11.2590948,17.0597031 C10.1393706,17.8419444 8.76121871,18.2285228 7.12463921,18.2194382 C4.85155844,18.2194382 3.0978457,17.4302385 1.8633077,15.8516457 C0.628769706,14.273053 0.0115973509,12.0283857 0.0115973509,9.11745067 C0.0115973509,6.2065156 0.628769706,3.96184834 1.8633077,2.3832556 C3.0978457,0.80466286 4.85155844,0.0154631345 7.12463921,0.0154631345 C8.825584,0.0154631345 10.1747425,0.395662953 11.1721147,1.1558693 C12.1694868,1.91607565 12.8782783,3.08934098 13.2982957,4.67566529 L10.2443266,5.41209707 Z" id="path-7"></path>
        <polygon id="path-9" points="0.00966445905 17.7826047 0.00966445905 0.0657183215 11.7365191 0.0657183215 11.7365191 2.91093507 3.39609091 2.91093507 3.39609091 7.13043789 9.45570673 7.13043789 9.45570673 9.97565463 3.39609091 9.97565463 3.39609091 14.9315892 12.0071239 14.9315892 12.0071239 17.7826047"></polygon>
    </defs>
    <g id="Page-1" stroke="none" stroke-width="1" fill="none" fill-rule="evenodd">
        <g id="ComingSoon" transform="translate(-561.000000, -100.000000)">
            <g id="Group-8" transform="translate(496.000000, 100.000000)">
                <g id="logo_black" transform="translate(65.000000, 0.000000)">
                    <g id="Group">
                        <polygon id="Fill-4" fill="#020202" fill-rule="nonzero" points="35.4221753 37.3473356 38.1340225 37.3473356 38.1340225 1.02636555 35.4221753 1.02636555"></polygon>
                        <path d="M0,0 L159.300003,0 L159.300003,38.0999985 L0,38.0999985 L0,0 Z M2.70000005,2.70000005 L2.70000005,35.4000008 L35.4000008,35.4000008 L35.4000008,2.70000005 L2.70000005,2.70000005 Z M38.1000009,2.70000005 L38.1000009,35.4000008 L156.600001,35.4000008 L156.600001,2.70000005 L38.1000009,2.70000005 Z" id="Combined-Shape" fill="#020202"></path>
                        <circle id="Oval" fill="#000000" fill-rule="nonzero" cx="24.1611476" cy="23.5812801" r="3.47920526"></circle>
                        <circle id="Oval-Copy" fill="#000000" fill-rule="nonzero" cx="14.1101102" cy="23.5812801" r="3.47920526"></circle>
                        <circle id="Oval-Copy-2" fill="#000000" fill-rule="nonzero" cx="19.1356289" cy="15.0765561" r="3.47920526"></circle>
                        <g id="Group-17" transform="translate(47.549139, 10.244327)">
                            <g id="Fill-15-Clipped">
                                <mask id="mask-2" fill="white">
                                    <use xlink:href="#path-1"></use>
                                </mask>
                                <g id="path-3"></g>
                                <polygon id="Fill-15" fill="#020202" fill-rule="nonzero" mask="url(#mask-2)" points="0.0347920526 17.7864704 12.6990992 17.7864704 12.6990992 0.0193289181 0.0347920526 0.0193289181"></polygon>
                            </g>
                        </g>
                        <g id="Group-20" transform="translate(68.617659, 10.244327)">
                            <g id="Fill-18-Clipped">
                                <mask id="mask-4" fill="white">
                                    <use xlink:href="#path-3"></use>
                                </mask>
                                <g id="path-5"></g>
                                <polygon id="Fill-18" fill="#020202" fill-rule="nonzero" mask="url(#mask-4)" points="0.119839292 17.7864704 13.5495716 17.7864704 13.5495716 0.0657183215 0.119839292 0.0657183215"></polygon>
                            </g>
                        </g>
                        <g id="Group-23" transform="translate(89.492891, 10.244327)">
                            <g id="Fill-21-Clipped">
                                <mask id="mask-6" fill="white">
                                    <use xlink:href="#path-5"></use>
                                </mask>
                                <g id="path-7"></g>
                                <polygon id="Fill-21" fill="#020202" fill-rule="nonzero" mask="url(#mask-6)" points="0.143033994 17.7864704 14.5005544 17.7864704 14.5005544 0.0193289181 0.143033994 0.0193289181"></polygon>
                            </g>
                        </g>
                        <g id="Group-26" transform="translate(111.141279, 10.051037)">
                            <g id="Fill-24-Clipped">
                                <mask id="mask-8" fill="white">
                                    <use xlink:href="#path-7"></use>
                                </mask>
                                <g id="path-9"></g>
                                <polygon id="Fill-24" fill="#020202" fill-rule="nonzero" mask="url(#mask-8)" points="-0.00386578362 18.2349013 13.7273976 18.2349013 13.7273976 0.00386578362 -0.00386578362 0.00386578362"></polygon>
                            </g>
                        </g>
                        <g id="Group-29" transform="translate(133.562824, 10.244327)">
                            <g id="Fill-27-Clipped">
                                <mask id="mask-10" fill="white">
                                    <use xlink:href="#path-9"></use>
                                </mask>
                                <g id="path-11"></g>
                                <polygon id="Fill-27" fill="#020202" fill-rule="nonzero" mask="url(#mask-10)" points="0.00386578362 17.7864704 12.0187213 17.7864704 12.0187213 0.0657183215 0.00386578362 0.0657183215"></polygon>
                            </g>
                        </g>
                    </g>
                </g>
            </g>
        </g>
    </g>
</svg>