<?xml version="1.0" encoding="UTF-8"?>
<svg width="56px" height="37px" viewBox="0 0 56 37" version="1.1" xmlns="http://www.w3.org/2000/svg" xmlns:xlink="http://www.w3.org/1999/xlink">
    <!-- Generator: Sketch 45.1 (43504) - http://www.bohemiancoding.com/sketch -->
    <title>Group 3</title>
    <desc>Created with Sketch.</desc>
    <defs></defs>
    <g id="Symbols" stroke="none" stroke-width="1" fill="none" fill-rule="evenodd">
        <g id="teamdynamics_desktop" transform="translate(-304.000000, -30.000000)" fill-rule="nonzero" fill="#FF435A">
            <g id="Group-3" transform="translate(332.000000, 48.500000) scale(-1, 1) translate(-332.000000, -48.500000) translate(304.000000, 30.000000)">
                <path d="M54.5202297,0.163652359 C53.7607843,-0.21606418 52.8355332,0.0915530359 52.4558105,0.850992267 L49.8050115,6.15259042 L30.5912402,6.15259042 C20.6225966,6.15259042 11.6604767,11.6920997 7.20494891,20.6056777 L0.163590836,34.6890091 C-0.0743326241,35.164856 -0.0503015672,35.732016 0.230885178,36.1862436 C0.509660204,36.6380595 1.00472705,36.9144351 1.53825835,36.9144351 L41.5284964,36.9144351 C42.3792426,36.9144351 43.0665825,36.2270952 43.0665825,35.376349 L43.0665825,30.1781102 C46.4119197,28.5511228 50.1104015,27.6859186 53.8331851,27.6859186 C54.285001,27.6859186 54.7151852,27.4864473 55.005945,27.1427835 C55.2991411,26.7967141 55.4241137,26.3424865 55.3496088,25.8955187 L52.3551397,7.93128853 L55.2077972,2.22597355 C55.5899132,1.46652816 55.2798966,0.543676515 54.5204573,0.163953824 L54.5202297,0.163652359 Z M39.9902381,33.8378938 L4.02793983,33.8378938 L5.56602591,30.7617216 L39.9902381,30.7617216 L39.9902381,33.8378938 Z M41.1510009,27.6855495 L7.10392742,27.6855495 L9.95658491,21.9826339 C13.8883021,14.1144007 21.7949259,9.2288241 30.5909325,9.2288241 L49.4540202,9.2288241 L52.027915,24.6699779 C48.2428082,24.9199169 44.5226702,25.9484966 41.1505702,27.6860416 L41.1510009,27.6855495 Z" id="Shape"></path>
                <path d="M38.452152,12.3046886 L29.2236355,12.3046886 C26.6785953,12.3046886 24.6093773,14.3739066 24.6093773,16.9189469 C24.6093773,19.4639872 26.6785953,21.5332051 29.2236355,21.5332051 L38.452152,21.5332051 C40.9971923,21.5332051 43.0664103,19.4639872 43.0664103,16.9189469 C43.0664103,14.3739066 40.9971923,12.3046886 38.452152,12.3046886 Z M38.452152,18.457033 L29.2236355,18.457033 C28.3752888,18.457033 27.6855495,17.7672936 27.6855495,16.9189469 C27.6855495,16.0706001 28.3752888,15.3808608 29.2236355,15.3808608 L38.452152,15.3808608 C39.3004988,15.3808608 39.9902381,16.0706001 39.9902381,16.9189469 C39.9902381,17.7672936 39.3004988,18.457033 38.452152,18.457033 Z" id="Shape"></path>
            </g>
        </g>
    </g>
</svg>