<?xml version="1.0" encoding="UTF-8"?>
<svg width="20px" height="20px" viewBox="0 0 20 20" version="1.1" xmlns="http://www.w3.org/2000/svg" xmlns:xlink="http://www.w3.org/1999/xlink">
    <!-- Generator: Sketch 59 (86127) - https://sketch.com -->
    <title>share-icon-copy</title>
    <desc>Created with Sketch.</desc>
    <g id="Page-1" stroke="none" stroke-width="1" fill="none" fill-rule="evenodd">
        <g id="m.video-P1-Share" transform="translate(-24.000000, -643.000000)" fill="#37C2AC" fill-rule="nonzero">
            <g id="Group-15" transform="translate(0.000000, 559.000000)">
                <g id="Group-2" transform="translate(24.000000, 81.000000)">
                    <g id="share-icon-copy" transform="translate(0.000000, 3.000000)">
                        <path d="M8.33358,15.00008 L8.33358,16.66648 L10.41638,16.66648 L0.83438,16.66648 C0.37344,16.66648 -2.98427949e-13,16.29538 -2.98427949e-13,15.83444 L-2.98427949e-13,0.83204 C-2.98427949e-13,0.37266 0.37032,-3.55271368e-14 0.83438,-3.55271368e-14 L12.49918,-3.55271368e-14 C12.96012,-3.55271368e-14 13.33356,0.3711 13.33356,0.83204 L13.33356,10.83364 L13.33356,5.83364 L11.66638,5.83364 L11.66638,1.66644 L1.66638,1.66644 L1.66638,15.00004 L4.16638,15.00004 L4.16638,16.66648 L6.66638,16.66648 L6.66638,15.00004 L8.33358,15.00008 Z M11.66638,1.66648 L11.66638,4.16648 L13.33356,4.16648 L13.33356,1.66648 L11.66638,1.66648 Z M6.66638,5.00168 C6.66638,4.54074 7.03748,4.16652 7.50076,4.16652 L19.16556,4.16652 C19.6265,4.16652 19.99994,4.5423 19.99994,5.00168 L19.99994,19.16568 C19.99994,19.62662 19.62962,20.00006 19.16556,20.00006 L7.50076,20.00006 C7.03982,20.00006 6.66638,19.62428 6.66638,19.16568 L6.66638,5.00168 Z M8.33356,18.33368 L18.33356,18.33368 L18.33356,5.83368 L8.33356,5.83368 L8.33356,18.33368 Z M3.33356,15.83368 C3.33356,15.37352 3.70778,15.00008 4.1656,15.00008 L5.00076,15.00008 C5.46092,15.00008 5.83358,15.36962 5.83358,15.83368 C5.83358,16.29384 5.45936,16.6665 5.00076,16.6665 L4.1656,16.6665 C3.70622,16.6665 3.33356,16.29696 3.33356,15.83368 Z M12.49996,0.83368 C12.96012,0.83368 13.33356,1.2079 13.33356,1.66572 L13.33356,2.50088 C13.33356,2.96104 12.96324,3.3337 12.49996,3.3337 C12.0398,3.3337 11.66636,2.95948 11.66636,2.50088 L11.66636,1.66572 C11.66636,1.20634 12.03668,0.83368 12.49996,0.83368 Z" id="Shape"></path>
                    </g>
                </g>
            </g>
        </g>
    </g>
</svg>