<?xml version="1.0" encoding="UTF-8"?>
<svg width="22px" height="17px" viewBox="0 0 22 17" version="1.1" xmlns="http://www.w3.org/2000/svg" xmlns:xlink="http://www.w3.org/1999/xlink">
    <!-- Generator: Sketch 59 (86127) - https://sketch.com -->
    <title>share-icon-fullgame</title>
    <desc>Created with Sketch.</desc>
    <g id="Page-1" stroke="none" stroke-width="1" fill="none" fill-rule="evenodd">
        <g id="m.video-P1-Share" transform="translate(-25.000000, -760.000000)" fill="#37C2AC" fill-rule="nonzero">
            <g id="Group-15" transform="translate(0.000000, 559.000000)">
                <g id="Group-2" transform="translate(24.000000, 81.000000)">
                    <g id="share-icon-fullgame" transform="translate(1.000000, 120.000000)">
                        <path d="M8.4609,-1.42108547e-14 C3.7893,-1.42108547e-14 -9.9475983e-14,3.7876 -9.9475983e-14,8.4609 C-9.9475983e-14,13.1342 3.7893,16.9218 8.4609,16.9218 C13.1342,16.9218 16.9218,13.1342 16.9218,8.4609 C16.9201399,3.7876 13.1342,-1.42108547e-14 8.4609,-1.42108547e-14 Z M8.4609,1.99798875 C9.40221125,1.99798875 10.1658725,2.7599925 10.1658725,3.69964625 C10.1658725,4.6409575 9.40219,5.40461875 8.4609,5.40461875 C7.51958875,5.40461875 6.7592425,4.64093625 6.7592425,3.69964625 C6.7592425,2.75835625 7.5204175,1.99798875 8.4609,1.99798875 Z M4.549625,4.38776375 C4.769605,4.41515712 4.98459125,4.4857135 5.1887825,4.60275 C6.00391125,5.07256625 6.285325,6.11764125 5.81383,6.9328125 C5.34401375,7.74794125 4.30059625,8.02767625 3.4880175,7.55786 C2.67288875,7.08804375 2.39481125,6.04296875 2.86297,5.2277975 C3.21659125,4.61686 3.8914275,4.30559 4.5505175,4.38776375 L4.549625,4.38776375 Z M12.375575,4.38776375 C13.0338362,4.30558575 13.707015,4.61686 14.0589787,5.2277975 C14.528795,6.04292625 14.2490664,7.08800125 13.4339312,7.55786 C12.62046,8.02767625 11.5811862,7.746288 11.1113062,6.9328125 C10.6398112,6.11768375 10.9178972,5.075095 11.73221,4.60275 C11.9364097,4.48487837 12.1555525,4.41515287 12.3746825,4.38776375 L12.375575,4.38776375 Z M4.126325,9.14988875 C4.78458625,9.06854162 5.46108,9.378985 5.8138725,9.9899225 C6.2853675,10.80673 6.00396012,11.8459825 5.188825,12.315735 C4.37369625,12.7855512 3.3344225,12.509144 2.8630125,11.6948312 C2.39319625,10.8797025 2.67292487,9.83711375 3.48806,9.36476875 C3.69142887,9.247728 3.90725875,9.17634075 4.1272175,9.1497825 L4.126325,9.14988875 Z M12.7922875,9.14988875 C13.0114175,9.17728212 13.2313975,9.2478385 13.43476,9.364875 C14.2515675,9.83637 14.5313025,10.8814237 14.0598075,11.6949375 C13.5899912,12.5100662 12.54906,12.7864862 11.733995,12.3158412 C10.9188662,11.846025 10.6391312,10.8050937 11.1089475,9.99002875 C11.46174,9.37909125 12.13409,9.06782125 12.7923512,9.149995 L12.7922875,9.14988875 Z M8.4609,11.5182012 C9.40221125,11.5182012 10.1658725,12.2835412 10.1658725,13.2231737 C10.1658725,14.164485 9.40219,14.9281462 8.4609,14.9281462 C7.51958875,14.9281462 6.7592425,14.1644637 6.7592425,13.2231737 C6.7592425,12.2818625 7.5204175,11.5182012 8.4609,11.5182012 Z M14.708825,14.9207512 C13.809015,15.7989712 12.7249462,16.4862812 11.517925,16.9220762 L21.2497875,16.9220762 L19.2451475,14.9207512 L14.7095475,14.9207512 L14.708825,14.9207512 Z" id="Shape"></path>
                    </g>
                </g>
            </g>
        </g>
    </g>
</svg>