<?xml version="1.0" encoding="UTF-8"?>
<svg width="204px" height="134px" viewBox="0 0 204 134" version="1.1" xmlns="http://www.w3.org/2000/svg" xmlns:xlink="http://www.w3.org/1999/xlink">
    <!-- Generator: Sketch 57 (83077) - https://sketch.com -->
    <title>traceBot</title>
    <desc>Created with Sketch.</desc>
    <defs>
        <linearGradient x1="50%" y1="50.1439538%" x2="50%" y2="87.8817617%" id="linearGradient-1">
            <stop stop-color="#F7FF00" offset="0%"></stop>
            <stop stop-color="#FFFE00" stop-opacity="0" offset="100%"></stop>
        </linearGradient>
        <linearGradient x1="50%" y1="22.0336914%" x2="50%" y2="100%" id="linearGradient-2">
            <stop stop-color="#F4FD00" offset="0%"></stop>
            <stop stop-color="#FFFE00" stop-opacity="0" offset="100%"></stop>
        </linearGradient>
        <linearGradient x1="50%" y1="50.1439538%" x2="50%" y2="87.8817617%" id="linearGradient-3">
            <stop stop-color="#F7FF00" offset="0%"></stop>
            <stop stop-color="#FFFE00" stop-opacity="0" offset="100%"></stop>
        </linearGradient>
        <linearGradient x1="50%" y1="22.0336914%" x2="50%" y2="100%" id="linearGradient-4">
            <stop stop-color="#F4FD00" offset="0%"></stop>
            <stop stop-color="#FFFE00" stop-opacity="0" offset="100%"></stop>
        </linearGradient>
        <linearGradient x1="50%" y1="50.1439538%" x2="50%" y2="87.8817617%" id="linearGradient-5">
            <stop stop-color="#F7FF00" offset="0%"></stop>
            <stop stop-color="#FFFE00" stop-opacity="0" offset="100%"></stop>
        </linearGradient>
    </defs>
    <g id="UX-Improvements---Short-Term" stroke="none" stroke-width="1" fill="none" fill-rule="evenodd">
        <g id="m.playlists" transform="translate(-85.000000, -1146.000000)">
            <g id="Group-4" transform="translate(53.000000, 1018.000000)">
                <g id="traceBot" transform="translate(33.000000, 128.000000)">
                    <path d="M27.7928516,85.3502935 L47.7990968,85.3502935 C48.6275239,85.3502935 49.2990968,86.0218664 49.2990968,86.8502935 L49.2990968,100.199311 C49.2990968,101.027738 48.6275239,101.699311 47.7990968,101.699311 L27.7928516,101.699311 C26.9644245,101.699311 26.2928516,101.027738 26.2928516,100.199311 L26.2928516,86.8502935 C26.2928516,86.0218664 26.9644245,85.3502935 27.7928516,85.3502935 Z" id="Rectangle" stroke="#CCCCCC" stroke-width="1.125" stroke-linecap="round"></path>
                    <path d="M105.728476,-27.7706498 L169.031824,-27.7706498 C172.138426,-27.7706498 174.656824,-25.2522515 174.656824,-22.1456498 L174.656824,97.367976 C174.656824,100.474578 172.138426,102.992976 169.031824,102.992976 L105.728476,102.992976 C102.621874,102.992976 100.103476,100.474578 100.103476,97.367976 L100.103476,-22.1456498 C100.103476,-25.2522515 102.621874,-27.7706498 105.728476,-27.7706498 Z" id="Rectangle-2" fill="#E5E4E1" fill-rule="evenodd" opacity="0.5" transform="translate(137.380150, 37.611163) rotate(270.000000) translate(-137.380150, -37.611163) "></path>
                    <path d="M138.741421,0.409643496 L138.741276,27.0081618 C144.113348,27.6737992 148.270323,32.2278259 148.270323,37.7467113 C148.270323,43.2655967 144.113348,47.8196234 138.741276,48.4852608 L138.741421,74.8126827 L136.018878,74.8126827 L136.018026,48.4851371 C130.646436,47.8190593 126.489977,43.2652549 126.489977,37.7467113 C126.489977,32.2281678 130.646436,27.6743634 136.018026,27.0082855 L136.018878,0.409643496 L138.741421,0.409643496 Z" id="Combined-Shape" fill-opacity="0.1" fill="#000000" fill-rule="evenodd" transform="translate(137.380150, 37.611163) rotate(180.000000) translate(-137.380150, -37.611163) "></path>
                    <polygon id="Combined-Shape" fill-opacity="0.1" fill="#000000" fill-rule="evenodd" transform="translate(194.827849, 37.782941) rotate(270.000000) translate(-194.827849, -37.782941) " points="171.809073 29.8474173 217.846625 29.8474173 217.846625 45.7184643 171.809073 45.7184643"></polygon>
                    <polygon id="Combined-Shape" fill-opacity="0.1" fill="#000000" fill-rule="evenodd" transform="translate(80.449997, 37.611163) rotate(270.000000) translate(-80.449997, -37.611163) " points="57.4312215 29.1581055 103.468773 29.1581055 103.468773 46.0642207 57.4312215 46.0642207"></polygon>
                    <g id="Group-11" stroke-width="1" fill-rule="evenodd" transform="translate(189.714306, 36.750066) rotate(-40.000000) translate(-189.714306, -36.750066) translate(184.774041, 25.569942)">
                        <path d="M4.58221587,21.6747537 C7.03578797,21.6747537 9.02480114,13.4537348 9.02480114,11.033879 C9.02480114,8.61402312 7.03578797,6.65234236 4.58221587,6.65234236 C2.12864377,6.65234236 0.139630598,8.61402312 0.139630598,11.033879 C0.139630598,13.4537348 2.12864377,21.6747537 4.58221587,21.6747537 Z" id="Oval-3" fill="url(#linearGradient-1)"></path>
                        <path d="M4.44258527,15.0224113 C6.89615737,15.0224113 8.88517055,6.80139249 8.88517055,4.38153663 C8.88517055,1.96168077 6.89615737,0 4.44258527,0 C1.98901318,0 2.27373675e-13,1.96168077 2.27373675e-13,4.38153663 C2.27373675e-13,6.80139249 1.98901318,15.0224113 4.44258527,15.0224113 Z" id="Oval-3" fill="url(#linearGradient-2)" opacity="0" transform="translate(4.442585, 7.511206) scale(1, -1) translate(-4.442585, -7.511206) "></path>
                    </g>
                    <g id="Group-11" stroke-width="1" fill-rule="evenodd" transform="translate(154.744841, 24.741973) rotate(-40.000000) translate(-154.744841, -24.741973) translate(150.253691, 14.009054)">
                        <path d="M4.43691871,21.2537225 C6.88736125,21.2537225 8.87383742,13.0435303 8.87383742,10.6268612 C8.87383742,8.21019218 6.88736125,6.25109484 4.43691871,6.25109484 C1.98647617,6.25109484 0,8.21019218 0,10.6268612 C0,13.0435303 1.98647617,21.2537225 4.43691871,21.2537225 Z" id="Oval-3" fill="url(#linearGradient-3)"></path>
                        <path d="M4.43691871,15.0026276 C6.88736125,15.0026276 8.87383742,6.79243543 8.87383742,4.37576639 C8.87383742,1.95909734 6.88736125,0 4.43691871,0 C1.98647617,0 0,1.95909734 0,4.37576639 C0,6.79243543 1.98647617,15.0026276 4.43691871,15.0026276 Z" id="Oval-3" fill="url(#linearGradient-4)" opacity="0" transform="translate(4.436919, 7.501314) scale(1, -1) translate(-4.436919, -7.501314) "></path>
                    </g>
                    <ellipse id="Oval-3" fill="#AAAAAA" fill-rule="evenodd" cx="189.144201" cy="36.4667319" rx="4.43691871" ry="4.41423466"></ellipse>
                    <ellipse id="Oval-3" fill="#AAAAAA" fill-rule="evenodd" cx="179.613043" cy="24.0414788" rx="4.43691871" ry="4.41423466"></ellipse>
                    <ellipse id="Oval-3" fill="#AAAAAA" fill-rule="evenodd" cx="173.36849" cy="36.4667319" rx="4.43691871" ry="4.41423466"></ellipse>
                    <g id="Group-11" stroke-width="1" fill-rule="evenodd" transform="translate(179.647955, 52.275612) rotate(10.000000) translate(-179.647955, -52.275612) translate(175.156805, 41.542693)">
                        <path d="M4.43691871,21.2537225 C6.88736125,21.2537225 8.87383742,13.0435303 8.87383742,10.6268612 C8.87383742,8.21019218 6.88736125,6.25109484 4.43691871,6.25109484 C1.98647617,6.25109484 0,8.21019218 0,10.6268612 C0,13.0435303 1.98647617,21.2537225 4.43691871,21.2537225 Z" id="Oval-3" fill="url(#linearGradient-3)"></path>
                        <path d="M4.43691871,15.0026276 C6.88736125,15.0026276 8.87383742,6.79243543 8.87383742,4.37576639 C8.87383742,1.95909734 6.88736125,0 4.43691871,0 C1.98647617,0 0,1.95909734 0,4.37576639 C0,6.79243543 1.98647617,15.0026276 4.43691871,15.0026276 Z" id="Oval-3" fill="url(#linearGradient-4)" opacity="0" transform="translate(4.436919, 7.501314) scale(1, -1) translate(-4.436919, -7.501314) "></path>
                    </g>
                    <g id="Group-11" stroke-width="1" fill-rule="evenodd" transform="translate(157.915151, 39.855385) rotate(30.000000) translate(-157.915151, -39.855385) translate(153.424000, 29.122466)">
                        <path d="M4.43691871,21.2537225 C6.88736125,21.2537225 8.87383742,13.0435303 8.87383742,10.6268612 C8.87383742,8.21019218 6.88736125,6.25109484 4.43691871,6.25109484 C1.98647617,6.25109484 0,8.21019218 0,10.6268612 C0,13.0435303 1.98647617,21.2537225 4.43691871,21.2537225 Z" id="Oval-3" fill="url(#linearGradient-3)"></path>
                        <path d="M4.43691871,15.0026276 C6.88736125,15.0026276 8.87383742,6.79243543 8.87383742,4.37576639 C8.87383742,1.95909734 6.88736125,0 4.43691871,0 C1.98647617,0 0,1.95909734 0,4.37576639 C0,6.79243543 1.98647617,15.0026276 4.43691871,15.0026276 Z" id="Oval-3" fill="url(#linearGradient-4)" opacity="0" transform="translate(4.436919, 7.501314) scale(1, -1) translate(-4.436919, -7.501314) "></path>
                    </g>
                    <g id="Group-11-Copy" stroke-width="1" fill-rule="evenodd" transform="translate(113.874624, 52.280638) rotate(30.000000) translate(-113.874624, -52.280638) translate(109.383474, 41.547719)">
                        <path d="M4.43691871,21.2537225 C6.88736125,21.2537225 8.87383742,13.0435303 8.87383742,10.6268612 C8.87383742,8.21019218 6.88736125,6.25109484 4.43691871,6.25109484 C1.98647617,6.25109484 0,8.21019218 0,10.6268612 C0,13.0435303 1.98647617,21.2537225 4.43691871,21.2537225 Z" id="Oval-3" fill="url(#linearGradient-3)"></path>
                        <path d="M4.43691871,15.0026276 C6.88736125,15.0026276 8.87383742,6.79243543 8.87383742,4.37576639 C8.87383742,1.95909734 6.88736125,0 4.43691871,0 C1.98647617,0 0,1.95909734 0,4.37576639 C0,6.79243543 1.98647617,15.0026276 4.43691871,15.0026276 Z" id="Oval-3" fill="url(#linearGradient-4)" opacity="0" transform="translate(4.436919, 7.501314) scale(1, -1) translate(-4.436919, -7.501314) "></path>
                    </g>
                    <ellipse id="Oval-3" fill="#AAAAAA" fill-rule="evenodd" cx="179.613043" cy="52.1617885" rx="4.43691871" ry="4.41423466"></ellipse>
                    <path d="M157.592779,69.0012763 C160.043222,69.0012763 162.029698,60.7700323 162.029698,58.3471667 C162.029698,55.924301 160.043222,53.9601804 157.592779,53.9601804 C155.142337,53.9601804 153.155861,55.924301 153.155861,58.3471667 C153.155861,60.7700323 155.142337,69.0012763 157.592779,69.0012763 Z" id="Oval-3" fill="url(#linearGradient-5)" fill-rule="evenodd"></path>
                    <ellipse id="Oval-3" fill="#AAAAAA" fill-rule="evenodd" cx="157.592779" cy="58.374415" rx="4.43691871" ry="4.41423466"></ellipse>
                    <ellipse id="Oval-3" fill="#AAAAAA" fill-rule="evenodd" cx="157.592779" cy="39.7365354" rx="4.43691871" ry="4.41423466"></ellipse>
                    <ellipse id="Oval-3" fill="#AAAAAA" fill-rule="evenodd" cx="154.634834" cy="24.0414788" rx="4.43691871" ry="4.41423466"></ellipse>
                    <ellipse id="Oval-3" fill="#AAAAAA" fill-rule="evenodd" cx="142.145729" cy="11.6162256" rx="4.43691871" ry="4.41423466"></ellipse>
                    <ellipse id="Oval-3" fill="#AAAAAA" fill-rule="evenodd" cx="116.838859" cy="14.8860291" rx="4.43691871" ry="4.41423466"></ellipse>
                    <ellipse id="Oval-3" fill="#AAAAAA" fill-rule="evenodd" cx="135.901177" cy="30.2541053" rx="4.43691871" ry="4.41423466"></ellipse>
                    <ellipse id="Oval-3" fill="#AAAAAA" fill-rule="evenodd" cx="113.880914" cy="52.1617885" rx="4.43691871" ry="4.41423466"></ellipse>
                    <path d="M27.7928516,6.87501064 L47.7990968,6.87501064 C48.6275239,6.87501064 49.2990968,7.54658351 49.2990968,8.37501064 L49.2990968,21.7240279 C49.2990968,22.552455 48.6275239,23.2240279 47.7990968,23.2240279 L27.7928516,23.2240279 C26.9644245,23.2240279 26.2928516,22.552455 26.2928516,21.7240279 L26.2928516,8.37501064 C26.2928516,7.54658351 26.9644245,6.87501064 27.7928516,6.87501064 Z" id="Rectangle" stroke="#CCCCCC" stroke-width="1.125" stroke-linecap="round"></path>
                    <path d="M27.7928516,46.1126521 L47.7990968,46.1126521 C48.6275239,46.1126521 49.2990968,46.784225 49.2990968,47.6126521 L49.2990968,60.9616694 C49.2990968,61.7900965 48.6275239,62.4616694 47.7990968,62.4616694 L27.7928516,62.4616694 C26.9644245,62.4616694 26.2928516,61.7900965 26.2928516,60.9616694 L26.2928516,47.6126521 C26.2928516,46.784225 26.9644245,46.1126521 27.7928516,46.1126521 Z" id="Rectangle" stroke="#CCCCCC" stroke-width="1.125" stroke-linecap="round"></path>
                    <path d="M27.7928516,65.7314728 L47.7990968,65.7314728 C48.6275239,65.7314728 49.2990968,66.4030457 49.2990968,67.2314728 L49.2990968,80.5804901 C49.2990968,81.4089172 48.6275239,82.0804901 47.7990968,82.0804901 L27.7928516,82.0804901 C26.9644245,82.0804901 26.2928516,81.4089172 26.2928516,80.5804901 L26.2928516,67.2314728 C26.2928516,66.4030457 26.9644245,65.7314728 27.7928516,65.7314728 Z" id="Rectangle" stroke="#CCCCCC" stroke-width="1.125" stroke-linecap="round"></path>
                    <path d="M1.5,6.87501064 L21.5062452,6.87501064 C22.3346723,6.87501064 23.0062452,7.54658351 23.0062452,8.37501064 L23.0062452,21.7240279 C23.0062452,22.552455 22.3346723,23.2240279 21.5062452,23.2240279 L1.5,23.2240279 C0.671572875,23.2240279 -1.20591542e-16,22.552455 0,21.7240279 L0,8.37501064 C-3.23497668e-16,7.54658351 0.671572875,6.87501064 1.5,6.87501064 Z" id="Rectangle" stroke="#CCCCCC" stroke-width="1.125" stroke-linecap="round"></path>
                    <path d="M1.5,26.4938314 L21.5062452,26.4938314 C22.3346723,26.4938314 23.0062452,27.1654042 23.0062452,27.9938314 L23.0062452,41.3428486 C23.0062452,42.1712758 22.3346723,42.8428486 21.5062452,42.8428486 L1.5,42.8428486 C0.671572875,42.8428486 -1.20591542e-16,42.1712758 0,41.3428486 L0,27.9938314 C-3.23497668e-16,27.1654042 0.671572875,26.4938314 1.5,26.4938314 Z" id="Rectangle" stroke="#CCCCCC" stroke-width="1.125" stroke-linecap="round"></path>
                    <path d="M1.5,65.7314728 L21.5062452,65.7314728 C22.3346723,65.7314728 23.0062452,66.4030457 23.0062452,67.2314728 L23.0062452,80.5804901 C23.0062452,81.4089172 22.3346723,82.0804901 21.5062452,82.0804901 L1.5,82.0804901 C0.671572875,82.0804901 1.01453063e-16,81.4089172 0,80.5804901 L0,67.2314728 C-1.01453063e-16,66.4030457 0.671572875,65.7314728 1.5,65.7314728 Z" id="Rectangle" stroke="#CCCCCC" stroke-width="1.125" stroke-linecap="round"></path>
                    <path d="M111.272656,59.1918659 L131.278901,59.1918659 C132.107328,59.1918659 132.778901,59.8634388 132.778901,60.6918659 L132.778901,74.0408832 C132.778901,74.8693103 132.107328,75.5408832 131.278901,75.5408832 L111.272656,75.5408832 C110.444228,75.5408832 109.772656,74.8693103 109.772656,74.0408832 L109.772656,60.6918659 C109.772656,59.8634388 110.444228,59.1918659 111.272656,59.1918659 Z" id="Rectangle-Copy" stroke="#CCCCCC" stroke-width="1.125" stroke-linecap="round"></path>
                    <path d="M123.473872,66.8069404 C125.80165,69.1128447 125.80165,72.8514543 123.473872,75.1573587 L123.085656,75.5405121 L111.272656,75.5408832 C110.444228,75.5408832 109.772656,74.8693103 109.772656,74.0408832 L109.772656,72.0285121 L115.04424,66.8069404 C117.372018,64.501036 121.146093,64.501036 123.473872,66.8069404 Z" id="Combined-Shape" fill="#4A4A4A" fill-rule="evenodd" opacity="0.55"></path>
                    <g id="Group" stroke-width="1" fill-rule="evenodd" transform="translate(36.809992, 61.807709)">
                        <path d="M19.2289072,7.60024338 L20.2103702,7.60024338 C23.1927078,7.60024338 25.6103702,10.0179057 25.6103702,13.0002434 L25.6103702,41.6054743 C25.6103702,44.587812 23.1927078,47.0054743 20.2103702,47.0054743 L19.2289072,47.0054743 C16.2465696,47.0054743 13.8289072,44.587812 13.8289072,41.6054743 L13.8289072,13.0002434 C13.8289072,10.0179057 16.2465696,7.60024338 19.2289072,7.60024338 Z" id="Rectangle-3-Copy-15" fill="#21D9C6" transform="translate(19.719639, 27.302859) rotate(-90.000000) translate(-19.719639, -27.302859) "></path>
                        <path d="M51.8731161,36.2680565 C49.5628167,33.9695687 49.5628167,30.2429837 51.8731161,27.9444958 L78.1946633,1.75751936 C80.5049627,-0.540968464 84.2506981,-0.540968464 86.5609974,1.75751936 C88.8712968,4.05600718 88.8712968,7.78259224 86.5609974,10.0810801 L60.2394503,36.2680565 C57.9291509,38.5665444 54.1834155,38.5665444 51.8731161,36.2680565 Z" id="Rectangle-3-Copy-22" fill="#21D9C6"></path>
                        <path d="M53.7484723,44.9597975 L55.0382013,44.9597975 C58.7661234,44.9597975 61.7882013,47.9818754 61.7882013,51.7097975 L61.7882013,65.4131456 C61.7882013,69.1410677 58.7661234,72.1631456 55.0382013,72.1631456 L53.7484723,72.1631456 C50.0205502,72.1631456 46.9984723,69.1410677 46.9984723,65.4131456 L46.9984723,51.7097975 C46.9984723,47.9818754 50.0205502,44.9597975 53.7484723,44.9597975 Z" id="Rectangle-3-Copy-16" fill="#21D9C6"></path>
                        <polygon id="Rectangle-3-Copy-17" fill="#32B39F" points="46.9984723 48.8835616 61.7882013 48.8835616 61.7882013 61.7148214 46.9984723 61.7148214"></polygon>
                        <path d="M36.4937884,44.9597975 L37.7835174,44.9597975 C41.5114395,44.9597975 44.5335174,47.9818754 44.5335174,51.7097975 L44.5335174,65.4131456 C44.5335174,69.1410677 41.5114395,72.1631456 37.7835174,72.1631456 L36.4937884,72.1631456 C32.7658663,72.1631456 29.7437884,69.1410677 29.7437884,65.4131456 L29.7437884,51.7097975 C29.7437884,47.9818754 32.7658663,44.9597975 36.4937884,44.9597975 Z" id="Rectangle-3-Copy-18" fill="#21D9C6"></path>
                        <polygon id="Rectangle-3-Copy-19" fill="#32B39F" points="29.7437884 48.8835616 44.5335174 48.8835616 44.5335174 61.7148214 29.7437884 61.7148214"></polygon>
                        <path d="M61.7882013,48.8835616 L61.7881729,54.5092925 C60.4502432,55.2978108 58.8905062,55.7501489 57.22512,55.7501489 L57.22512,55.7501489 L46.9984723,55.7495616 L46.9984723,48.8835616 L61.7882013,48.8835616 Z" id="Combined-Shape-Copy-4" fill-opacity="0.15" fill="#000000" style="mix-blend-mode: multiply;"></path>
                        <path d="M44.533402,48.8835616 L44.5333737,54.5092925 C43.195444,55.2978108 41.635707,55.7501489 39.9703208,55.7501489 L39.9703208,55.7501489 L29.743673,55.7495616 L29.743673,48.8835616 L44.533402,48.8835616 Z" id="Combined-Shape-Copy-5" fill-opacity="0.15" fill="#000000" style="mix-blend-mode: multiply;" transform="translate(37.138595, 52.316855) scale(-1, 1) translate(-37.138595, -52.316855) "></path>
                        <path d="M33.8138787,2.28886242 L57.22512,2.28886242 C62.1956828,2.28886242 66.22512,6.31829967 66.22512,11.2888624 L66.22512,45.2787373 C66.22512,50.2493001 62.1956828,54.2787373 57.22512,54.2787373 L33.8138787,54.2787373 C28.843316,54.2787373 24.8138787,50.2493001 24.8138787,45.2787373 L24.8138787,11.2888624 C24.8138787,6.31829967 28.843316,2.28886242 33.8138787,2.28886242 Z" id="Rectangle-3-Copy-20" fill="#39E3CF"></path>
                        <path d="M33.8138787,36.1313282 L57.22512,36.1313282 C62.1956828,36.1313282 66.22512,40.1607654 66.22512,45.1313282 L66.22512,54.2787373 L66.22512,54.2787373 L24.8138787,54.2787373 L24.8138787,45.1313282 C24.8138787,40.1607654 28.843316,36.1313282 33.8138787,36.1313282 Z" id="Rectangle-3-Copy-21" fill="#32B39F" transform="translate(45.519499, 45.205033) scale(1, -1) translate(-45.519499, -45.205033) "></path>
                    </g>
                </g>
            </g>
        </g>
    </g>
</svg>