<?xml version="1.0" encoding="UTF-8"?>
<svg width="130px" height="166px" viewBox="0 0 130 166" version="1.1" xmlns="http://www.w3.org/2000/svg" xmlns:xlink="http://www.w3.org/1999/xlink">
    <!-- Generator: Sketch 50.2 (55047) - http://www.bohemiancoding.com/sketch -->
    <title>Group 2</title>
    <desc>Created with Sketch.</desc>
    <defs></defs>
    <g id="Final-Stuff" stroke="none" stroke-width="1" fill="none" fill-rule="evenodd">
        <g id="d06j_newGame_waiting_new" transform="translate(-657.000000, -377.000000)">
            <g id="Group-2" transform="translate(657.000000, 377.000000)">
                <path d="M61.7986085,162 L1,162 C0.44771525,162 -6.76353751e-17,161.552285 0,161 C6.76353751e-17,160.447715 0.44771525,160 1,160 L21.0853529,160 C21.2912711,159.417404 21.8468906,159 22.5,159 L103.5,159 C104.153109,159 104.708729,159.417404 104.914647,160 L129,160 C129.552285,160 130,160.447715 130,161 C130,161.552285 129.552285,162 129,162 L92.2013915,162 C94.5866097,162.41783 96,162.937197 96,163.5 C96,164.880712 87.4934102,166 77,166 C66.5065898,166 58,164.880712 58,163.5 C58,162.937197 59.4133903,162.41783 61.7986085,162 Z" id="Combined-Shape-Copy-2" fill-opacity="0.15" fill="#000000" style="mix-blend-mode: multiply;"></path>
                <path d="M19,109 L19,109 C25.627417,109 31,103.627417 31,97 L31,41 C31,34.372583 25.627417,29 19,29 L19,29 C12.372583,29 7,34.372583 7,41 L7,97 C7,103.627417 12.372583,109 19,109 Z" id="Rectangle-3-Copy-15" fill="#21D9C6" transform="translate(19.000000, 69.000000) rotate(10.000000) translate(-19.000000, -69.000000) "></path>
                <path d="M107,109 L107,109 C113.627417,109 119,103.627417 119,97 L119,41 C119,34.372583 113.627417,29 107,29 L107,29 C100.372583,29 95,34.372583 95,41 L95,97 C95,103.627417 100.372583,109 107,109 Z" id="Rectangle-3-Copy-22" fill="#21D9C6" transform="translate(107.000000, 69.000000) rotate(-10.000000) translate(-107.000000, -69.000000) "></path>
                <path d="M46,152.463778 L46,152.463778 C54.2842712,152.463778 61,145.74805 61,137.463778 L61,96 C61,87.7157288 54.2842712,81 46,81 L46,81 C37.7157288,81 31,87.7157288 31,96 L31,137.463778 C31,145.74805 37.7157288,152.463778 46,152.463778 Z" id="Rectangle-3-Copy-18" fill="#21D9C6"></path>
                <polygon id="Rectangle-3-Copy-19" fill="#32B39F" points="31 94.1611235 61 94.1611235 61 131.161123 31 131.161123"></polygon>
                <path d="M61,105.705954 C57.8442078,107.788077 54.0636338,109 50,109 L31,109 L31,95 L61,95 L61,105.705954 Z" id="Combined-Shape-Copy-5" fill-opacity="0.15" fill="#000000" style="mix-blend-mode: multiply;" transform="translate(46.000000, 102.000000) scale(-1, 1) translate(-46.000000, -102.000000) "></path>
                <path d="M41,106 L85,106 C96.045695,106 105,97.045695 105,86 L105,20 C105,8.954305 96.045695,0 85,0 L41,0 C29.954305,0 21,8.954305 21,20 L21,86 C21,97.045695 29.954305,106 41,106 Z" id="Rectangle-3-Copy-20" fill="#39E3CF"></path>
                <path d="M41,106 L85,106 C96.045695,106 105,97.045695 105,86 L105,69 L21,69 L21,86 C21,97.045695 29.954305,106 41,106 Z" id="Rectangle-3-Copy-21" fill="#32B39F"></path>
                <g id="Group-9" transform="translate(50.000000, 10.000000)">
                    <path d="M27,15 C25.3862069,18.0518053 21.9724138,20.1428571 18,20.1428571 C14.0275862,20.1428571 10.6137931,18.0518053 9,15" id="Shape-Copy" fill="#2B9988"></path>
                    <path d="M12,4.5 C12,6.9862464 9.9862464,9 7.5,9 C5.0137536,9 3,6.9862464 3,4.5 C3,2.0137536 5.0137536,0 7.5,0 C9.9862464,0 12,2.0137536 12,4.5" id="Shape" fill="#2B9988" fill-rule="nonzero"></path>
                    <path d="M33,4.5 C33,6.9862464 30.9862464,9 28.5,9 C26.0137536,9 24,6.9862464 24,4.5 C24,2.0137536 26.0137536,0 28.5,0 C30.9862464,0 33,2.0137536 33,4.5" id="Shape" fill="#2B9988" fill-rule="nonzero"></path>
                    <rect id="Rectangle" fill="#39E3CF" x="0" y="7" width="37" height="9"></rect>
                </g>
                <path d="M62.5,106 L92.5,106 L92.5,79 C92.5,70.7157288 85.7842712,64 77.5,64 L77.5,64 C69.2157288,64 62.5,70.7157288 62.5,79 L62.5,106 Z" id="Rectangle-3-Copy-18" fill-opacity="0.15" fill="#000000" style="mix-blend-mode: multiply;"></path>
                <path d="M80.5,131.463778 L80.5,131.463778 C88.7842712,131.463778 95.5,124.74805 95.5,116.463778 L95.5,91 C95.5,82.7157288 88.7842712,76 80.5,76 L80.5,76 C72.2157288,76 65.5,82.7157288 65.5,91 L65.5,116.463778 C65.5,124.74805 72.2157288,131.463778 80.5,131.463778 Z" id="Rectangle-3-Copy-18" fill="#21D9C6"></path>
                <path d="M65.5,98.7318892 L95.5,98.7318892 L95.5,79 C95.5,70.7157288 88.7842712,64 80.5,64 L80.5,64 C72.2157288,64 65.5,70.7157288 65.5,79 L65.5,98.7318892 Z" id="Rectangle-3-Copy-18" fill="#32B39F"></path>
                <g id="Group" transform="translate(60.000000, 20.000000)">
                    <circle id="Oval-2" fill-opacity="0.15" fill="#000000" style="mix-blend-mode: multiply;" cx="19" cy="22" r="19"></circle>
                    <g id="Group-8">
                        <circle id="Oval-2" fill="#FFFFFF" cx="19" cy="19" r="19"></circle>
                        <path d="M18.1125598,0.0203583368 C13.8544065,2.54645013 11,7.18988389 11,12.5 C11,20.5081289 17.4918711,27 25.5,27 C30.8101161,27 35.4535499,24.1455935 37.9796417,19.8874402 C37.5161264,29.9688517 29.1959508,38 19,38 C8.50658975,38 0,29.4934102 0,19 C0,8.8040492 8.03114833,0.483873589 18.1125598,0.0203583368 Z" id="Combined-Shape" fill-opacity="0.15" fill="#000000" style="mix-blend-mode: multiply;"></path>
                    </g>
                </g>
            </g>
        </g>
    </g>
</svg>