<?xml version="1.0" encoding="UTF-8"?>
<svg width="126px" height="146px" viewBox="0 0 126 146" version="1.1" xmlns="http://www.w3.org/2000/svg" xmlns:xlink="http://www.w3.org/1999/xlink">
    <!-- Generator: Sketch 50.2 (55047) - http://www.bohemiancoding.com/sketch -->
    <title>SorryBot</title>
    <desc>Created with Sketch.</desc>
    <defs></defs>
    <g id="Final-Stuff" stroke="none" stroke-width="1" fill="none" fill-rule="evenodd">
        <g id="Oops-new" transform="translate(-770.000000, -250.000000)">
            <g id="Group-3" transform="translate(529.000000, 232.000000)">
                <g id="SorryBot" transform="translate(301.417296, 89.286842) rotate(30.000000) translate(-301.417296, -89.286842) translate(250.417296, 16.786842)">
                    <path d="M12,112 L12,112 C18.627417,112 24,106.627417 24,100 L24,44 C24,37.372583 18.627417,32 12,32 L12,32 C5.372583,32 2.58798134e-15,37.372583 1.77635684e-15,44 L1.77635684e-15,100 C9.64732338e-16,106.627417 5.372583,112 12,112 Z" id="Rectangle-3-Copy-15" fill="#21D9C6"></path>
                    <path d="M90,107 L90,107 C96.627417,107 102,101.627417 102,95 L102,39 C102,32.372583 96.627417,27 90,27 L90,27 C83.372583,27 78,32.372583 78,39 L78,95 C78,101.627417 83.372583,107 90,107 Z" id="Rectangle-3-Copy-22" fill="#21D9C6"></path>
                    <path d="M69,145 L69,145 C77.2842712,145 84,138.284271 84,130 L84,105 C84,96.7157288 77.2842712,90 69,90 L69,90 C60.7157288,90 54,96.7157288 54,105 L54,130 C54,138.284271 60.7157288,145 69,145 Z" id="Rectangle-3-Copy-16" fill="#21D9C6"></path>
                    <polygon id="Rectangle-3-Copy-17" fill="#32B39F" points="54 98 84 98 84 124 54 124"></polygon>
                    <path d="M34,145 L34,145 C42.2842712,145 49,138.284271 49,130 L49,105 C49,96.7157288 42.2842712,90 34,90 L34,90 C25.7157288,90 19,96.7157288 19,105 L19,130 C19,138.284271 25.7157288,145 34,145 Z" id="Rectangle-3-Copy-18" fill="#21D9C6"></path>
                    <polygon id="Rectangle-3-Copy-19" fill="#32B39F" points="19 98 49 98 49 124 19 124"></polygon>
                    <path d="M84,108.705954 C80.8442078,110.788077 77.0636338,112 73,112 L54,112 L54,98 L84,98 L84,108.705954 Z" id="Combined-Shape-Copy-4" fill-opacity="0.15" fill="#000000" style="mix-blend-mode: multiply;"></path>
                    <path d="M49,108.705954 C45.8442078,110.788077 42.0636338,112 38,112 L19,112 L19,98 L49,98 L49,108.705954 Z" id="Combined-Shape-Copy-5" fill-opacity="0.15" fill="#000000" style="mix-blend-mode: multiply;" transform="translate(34.000000, 105.000000) scale(-1, 1) translate(-34.000000, -105.000000) "></path>
                    <path d="M29,109 L73,109 C84.045695,109 93,100.045695 93,89 L93,20.999385 C93,9.95368999 84.045695,0.999384988 73,0.999384988 C72.213286,0.999384988 71.4272574,1.04580387 70.6460117,1.13839964 L26.6460117,6.35342213 C16.5813289,7.54632093 9,16.0792781 9,26.2144075 L9,89 C9,100.045695 17.954305,109 29,109 Z" id="Rectangle-3-Copy-20" fill="#39E3CF"></path>
                    <path d="M29,109 L73,109 C84.045695,109 93,100.045695 93,89 L93,72 L9,72 L9,89 C9,100.045695 17.954305,109 29,109 Z" id="Rectangle-3-Copy-21" fill="#32B39F"></path>
                    <g id="Group" transform="translate(51.000000, 29.500000) rotate(-15.000000) translate(-51.000000, -29.500000) translate(36.000000, 19.000000)" fill="#2B9988">
                        <path d="M9,4.5 C9,6.9862464 6.9862464,9 4.5,9 C2.0137536,9 0,6.9862464 0,4.5 C0,2.0137536 2.0137536,0 4.5,0 C6.9862464,0 9,2.0137536 9,4.5" id="Shape" fill-rule="nonzero"></path>
                        <path d="M30,4.5 C30,6.9862464 27.9862464,9 25.5,9 C23.0137536,9 21,6.9862464 21,4.5 C21,2.0137536 23.0137536,0 25.5,0 C27.9862464,0 30,2.0137536 30,4.5" id="Shape" fill-rule="nonzero"></path>
                        <rect id="Rectangle" x="6" y="18" width="18" height="3" rx="1.5"></rect>
                    </g>
                </g>
            </g>
        </g>
    </g>
</svg>