<?xml version="1.0" encoding="UTF-8"?>
<svg width="19px" height="24px" viewBox="0 0 19 24" version="1.1" xmlns="http://www.w3.org/2000/svg" xmlns:xlink="http://www.w3.org/1999/xlink">
    <!-- Generator: Sketch 59 (86127) - https://sketch.com -->
    <title>icon-share</title>
    <desc>Created with Sketch.</desc>
    <g id="Page-1" stroke="none" stroke-width="1" fill="none" fill-rule="evenodd">
        <g id="m.video-P1" transform="translate(-329.000000, -290.000000)" fill="#FFFFFF" fill-rule="nonzero" stroke="#FFFFFF" stroke-width="0.4">
            <g id="Group-9" transform="translate(13.000000, 278.000000)">
                <g id="Group-2" transform="translate(300.000000, 0.000000)">
                    <path d="M30.8123725,20.4331266 L31.875255,20.4331266 C33.0487099,20.4331266 34,21.3844421 34,22.5578716 L34,33.1836366 C34,34.3570915 33.0486844,35.3083816 31.875255,35.3083816 L19.124745,35.3083816 C17.9512901,35.3083816 17,34.357066 17,33.1836366 L17,22.5578716 C17,21.3844166 17.9513156,20.4331266 19.124745,20.4331266 L20.1876275,20.4331266 C20.774355,20.4331266 21.2495155,20.9092816 21.2495155,21.4960091 C21.2495155,22.0827366 20.774355,22.5578971 20.1876275,22.5578971 L19.124745,22.5578971 L19.124745,33.1836621 L31.875255,33.1836621 L31.875255,22.5578971 L30.8123725,22.5578971 C30.225645,22.5578971 29.7504845,22.0827366 29.7504845,21.4960091 C29.7504845,20.9092816 30.225645,20.4331266 30.8123725,20.4331266 Z M26.5628825,16.6278644 L26.5628825,25.7454991 C26.5628825,26.3322265 26.0867275,26.8083816 25.5,26.8083816 C24.9132725,26.8083816 24.4371175,26.3322265 24.4371175,25.7454991 L24.4371175,16.6278644 L23.2457353,17.8192465 C22.8313438,18.2336381 22.1579638,18.2336381 21.7435722,17.8192465 C21.3281861,17.4038604 21.3281861,16.731475 21.7435722,16.3160889 L24.7488675,13.3107937 C25.163259,12.8964021 25.836639,12.8964021 26.2510305,13.3107937 L29.2563258,16.3160889 C29.6717119,16.731475 29.6717119,17.4038604 29.2563258,17.8192465 C28.8419342,18.2336381 28.1685542,18.2336381 27.7541627,17.8192465 L26.5628825,16.6278644 Z" id="icon-share"></path>
                </g>
            </g>
        </g>
    </g>
</svg>