<svg width="23px" height="23px" viewBox="0 0 23 23" version="1.1" xmlns="http://www.w3.org/2000/svg" xmlns:xlink="http://www.w3.org/1999/xlink">
    <!-- Generator: Sketch 49 (51002) - http://www.bohemiancoding.com/sketch -->
    <desc>Created with Sketch.</desc>
    <defs></defs>
    <g id="Symbols" stroke="none" stroke-width="1" fill="none" fill-rule="evenodd">
        <g id="module/team" transform="translate(-721.000000, -19.000000)" fill="#37C2AC" fill-rule="nonzero">
            <g id="Group-2" transform="translate(720.000000, 19.000000)">
                <g id="icon/link_teal">
                    <path d="M12.5,0.5 C6.44553146,0.5 1.5,5.44526705 1.5,11.5 C1.5,17.5547329 6.41856161,22.5 12.5,22.5 C18.5544685,22.5 23.5,17.5814384 23.5,11.5 C23.4731465,5.44553146 18.5547329,0.526969857 12.5,0.5 Z M19.4272871,5.20676891 L17.4710735,5.20676891 C16.9422528,4.28133263 16.2812269,3.4085669 15.5148599,2.64219989 C17.0217874,3.17102062 18.3696986,4.04378636 19.42734,5.20676891 L19.4272871,5.20676891 Z M12.5,20.7017451 C11.3101534,19.9353781 10.279376,18.9304072 9.48625066,17.7406134 L15.5407192,17.7406134 C14.720624,18.9304601 13.6898466,19.9343998 12.5,20.7017451 Z M8.53384453,16.1271814 C7.9781597,14.9373347 7.63527234,13.642147 7.52887361,12.320201 L17.4712322,12.320201 C17.3658805,13.6422528 17.0477525,14.9374405 16.4662612,16.1271814 L8.53384453,16.1271814 Z M3.16604971,10.679799 C3.29825489,9.33088313 3.69487044,8.0356954 4.35589635,6.87281861 L6.73558964,6.87281861 C6.233633,8.08952935 5.94235854,9.35785299 5.8628239,10.679799 L3.16604971,10.679799 Z M5.88974088,12.319963 C5.96927023,13.6151507 6.25949233,14.9113961 6.76250661,16.1269434 L4.38281333,16.1269434 C3.72178741,14.9639609 3.29830777,13.641909 3.19296668,12.319963 L5.88974088,12.319963 Z M19.1102591,12.319963 L21.8339503,12.2931095 C21.7017451,13.6420254 21.3051296,14.9372131 20.6441036,16.1000899 L18.2644104,16.1000899 C18.7405605,14.9102433 19.0307774,13.6418932 19.110312,12.3198149 L19.1102591,12.319963 Z M7.52882073,10.679799 C7.6341724,9.35774722 7.95230037,8.06255949 8.53379164,6.87281861 L16.4661026,6.87281861 C17.0217874,8.06266526 17.3646748,9.35785299 17.4710735,10.679799 L7.52882073,10.679799 Z M9.48606557,5.23347435 C10.2792967,4.04362771 11.310074,3.0386568 12.4998149,2.27234268 C13.6896616,3.03870968 14.7204389,4.04368059 15.5135643,5.23347435 L9.48606557,5.23347435 Z M9.48606557,2.64204125 C8.71969857,3.40840825 8.08447911,4.28117398 7.52985193,5.20661026 L5.57363829,5.20661026 L5.889688,4.88952935 C6.89465891,3.88455843 8.1371761,3.11819143 9.48619778,2.64204125 L9.48606557,2.64204125 Z M5.57252776,17.7930196 L7.52874141,17.7930196 C8.05756214,18.7184558 8.71858805,19.5912216 9.48495505,20.3575886 C7.9780275,19.8287678 6.63011634,18.9560021 5.57247488,17.7930196 L5.57252776,17.7930196 Z M15.5138287,20.3575886 C16.2801957,19.5912216 16.9154151,18.7184558 17.4442359,17.7661555 L19.4273136,17.793009 C18.3696721,18.9559915 17.0217874,19.8287573 15.5137758,20.3575886 L15.5138287,20.3575886 Z M21.8337652,10.6796404 L19.110074,10.6796404 C19.0305447,9.38445267 18.7403226,8.0882073 18.2373083,6.87265997 L20.6170016,6.87265997 C21.3048916,8.03564252 21.7015071,9.35769434 21.8337123,10.6796404 L21.8337652,10.6796404 Z" id="Shape"></path>
                </g>
            </g>
        </g>
    </g>
</svg>