<?xml version="1.0" encoding="UTF-8"?>
<svg width="20px" height="20px" viewBox="0 0 20 20" version="1.1" xmlns="http://www.w3.org/2000/svg" xmlns:xlink="http://www.w3.org/1999/xlink">
    <!-- Generator: Sketch 52.6 (67491) - http://www.bohemiancoding.com/sketch -->
    <title>icon-dislike</title>
    <desc>Created with Sketch.</desc>
    <g id="Phase-2" stroke="none" stroke-width="1" fill="none" fill-rule="evenodd">
        <g id="m.video-P2-specs" transform="translate(-290.000000, -293.000000)" fill="#FFFFFF" fill-rule="nonzero">
            <g id="Group-9" transform="translate(0.000000, 278.000000)">
                <g id="Group-3" transform="translate(275.000000, 0.000000)">
                    <g id="feedback" transform="translate(15.000000, 15.000000)">
                        <path d="M2.27853314,20 L1.36298568,20 C0.610364974,20 -1.33226763e-14,19.3877564 -1.33226763e-14,18.6328191 L-1.33226763e-14,8.63283952 C-1.33226763e-14,7.87790229 0.610364974,7.26565864 1.36298568,7.26565864 L2.27853314,7.26565864 C3.03115384,7.26565864 3.64151882,7.87790229 3.64151882,8.63283952 L3.64151882,18.6328191 C3.64231351,19.4076951 3.03194732,20 2.27853314,20 Z M15.9513189,20 L5.90023544,20 C5.14761473,20 4.53724976,19.3877564 4.53724976,18.6328191 L4.53724976,8.12263648 C4.53724976,7.75512703 4.67950956,7.40835223 4.94415974,7.16361803 L7.1416771,4.95933682 C7.22274171,4.8780227 7.2839369,4.7552556 7.2839369,4.63248034 L7.2839369,1.36718088 C7.2839369,0.612243648 7.89430188,0 8.64692258,0 C10.396961,0 11.8212274,1.42856851 11.8212274,3.18407513 L11.8212274,6.22447709 C11.8212274,6.36717476 11.8005645,6.50986427 11.7600322,6.65337418 L11.5565772,7.28635248 L18.6370143,7.28635248 C19.389635,7.28635248 20,7.89859613 20,8.65353336 L20,16.0212734 C20,16.3887829 19.8577402,16.7355577 19.59309,16.9802919 L16.9481751,19.6125314 C16.6429926,19.8772043 16.3171391,19.9999592 15.9515712,19.9999592 L15.9513189,20 Z" id="icon-dislike" transform="translate(10.000000, 10.000000) scale(1, -1) translate(-10.000000, -10.000000) "></path>
                    </g>
                </g>
            </g>
        </g>
    </g>
</svg>