<svg width="21px" height="24px" viewBox="0 0 21 24" version="1.1" xmlns="http://www.w3.org/2000/svg" xmlns:xlink="http://www.w3.org/1999/xlink">
    <!-- Generator: Sketch 49 (51002) - http://www.bohemiancoding.com/sketch -->
    <desc>Created with Sketch.</desc>
    <defs></defs>
    <g id="Symbols" stroke="none" stroke-width="1" fill="none" fill-rule="evenodd">
        <g id="module/player_links" transform="translate(-51.000000, 0.000000)" fill="#37C2AC">
            <g id="Group" transform="translate(48.000000, 0.000000)">
                <g id="icon/notes_teal">
                    <path d="M7.44355881,1.66633455 L7.44355881,1.66459584 C7.44355881,0.745264941 8.15391254,0 9.03029384,0 L14.1884965,0 C15.0648261,0 15.7752316,0.748401357 15.7752316,1.66459584 L15.7752316,1.66633455 L18.5785628,1.66633455 C19.4838039,1.66633455 20.2191773,2.42727806 20.2187902,3.36112602 L20.2143854,15.1660596 L18.5750371,15.1653333 L18.5794419,3.36039971 C18.5794416,3.36108898 17.4223419,3.36145578 15.7750237,3.36162873 C15.7611666,4.26840501 15.0562117,4.99900366 14.1884965,4.99900366 L9.03029384,4.99900366 C8.16263158,4.99900366 7.4576275,4.26533315 7.44376676,3.36154276 C5.79969663,3.36142382 4.64545607,3.36130028 4.64545607,3.36130028 C4.64533244,3.36130028 4.63934868,20.5228611 4.63934868,20.5228611 C4.63946093,20.5228401 14.6154041,20.5228283 14.6154041,20.5228283 L14.6154041,22.217794 L4.63975758,22.217794 C3.73374485,22.217794 2.99974599,21.4613689 3.00000007,20.5232171 L3.00464825,3.36043692 C3.00490166,2.42475886 3.7415922,1.66633455 4.64545607,1.66633455 L7.44355881,1.66633455 Z M23.0114826,21.1029166 L17.5233381,23.9030049 C17.2182998,24.0586375 16.8448524,23.9375202 16.6892198,23.632482 C16.6446977,23.5452191 16.6214856,23.4486487 16.6214856,23.3506843 L16.6214856,17.7505076 C16.6214856,17.4080608 16.8990936,17.1304528 17.2415404,17.1304528 C17.3395048,17.1304528 17.4360752,17.153665 17.5233381,17.1981871 L23.0114826,19.9982754 C23.3165208,20.153908 23.437638,20.5273554 23.2820055,20.8323937 C23.2225998,20.9488282 23.1279171,21.0435109 23.0114826,21.1029166 Z M6.33266911,6.66533821 L16.3306764,6.66533821 L16.3306764,8.33167277 L6.33266911,8.33167277 L6.33266911,6.66533821 Z M6.33266911,9.99800732 L16.3306764,9.99800732 L16.3306764,11.6643419 L6.33266911,11.6643419 L6.33266911,9.99800732 Z M6.33266911,13.3306764 L16.3306764,13.3306764 L16.3306764,14.997011 L6.33266911,14.997011 L6.33266911,13.3306764 Z M6.33266911,16.6633455 L14.6643419,16.6633455 L14.6643419,18.3296801 L6.33266911,18.3296801 L6.33266911,16.6633455 Z" id="Combined-Shape"></path>
                </g>
            </g>
        </g>
    </g>
</svg>