<?xml version="1.0" encoding="UTF-8"?>
<svg width="19px" height="19px" viewBox="0 0 19 19" version="1.1" xmlns="http://www.w3.org/2000/svg" xmlns:xlink="http://www.w3.org/1999/xlink">
    <!-- Generator: Sketch 48.2 (47327) - http://www.bohemiancoding.com/sketch -->
    <title>cm_dynamics</title>
    <desc>Created with Sketch.</desc>
    <defs></defs>
    <g id="Menu" stroke="none" stroke-width="1" fill="none" fill-rule="evenodd" transform="translate(-26.000000, -84.000000)">
        <path d="M26.3479005,90.7770996 C25.8840333,90.3132324 25.8840333,89.5617677 26.3479005,89.0979005 L27.8833008,87.5625 L26.3479004,86.0270997 C25.8840332,85.5632325 25.8840332,84.8117677 26.3479004,84.3479005 C26.8117676,83.8840333 27.5632324,83.8840333 28.0270996,84.3479005 L29.5625,85.8833008 L31.0979005,84.3479004 C31.5617677,83.8840332 32.3132325,83.8840332 32.7770997,84.3479004 C33.2409669,84.8117676 33.2409669,85.5632324 32.7770997,86.0270996 L31.2416993,87.5625 L32.7770997,89.0979005 C33.2409669,89.5617677 33.2409669,90.3132325 32.7770997,90.7770997 C32.3132195,91.24098 31.5617807,91.24098 31.0979005,90.7770997 L29.5625,89.2416993 L28.0270997,90.7770996 C27.5632192,91.2409798 26.811781,91.2409798 26.3479005,90.7770996 Z M44.6520996,96.2229005 C45.1159667,96.6867677 45.1159667,97.4382324 44.6520997,97.9020996 L43.1166992,99.4375 L44.6520996,100.9729 C45.1159667,101.436768 45.1159667,102.188232 44.6520996,102.6521 C44.4201661,102.884033 44.116333,103 43.8125,103 C43.508667,103 43.2048339,102.884033 42.9729005,102.6521 L41.4375,101.116699 L39.9020996,102.6521 C39.6701661,102.884033 39.3663331,103 39.0625,103 C38.758667,103 38.4548339,102.884033 38.2229004,102.6521 C37.7590332,102.188232 37.7590332,101.436768 38.2229004,100.9729 L39.7583008,99.4375 L38.2229004,97.9020996 C37.7590332,97.4382324 37.7590332,96.6867675 38.2229004,96.2229004 C38.6867675,95.7590332 39.4382324,95.7590332 39.9020996,96.2229004 L41.4375,97.7583008 L42.9729003,96.2229005 C43.4367675,95.7590333 44.1882324,95.7590333 44.6520996,96.2229005 Z M43.8125,84 C44.4688721,84 45,84.5317078 45,85.1875 L45,91.125 L42.625,91.125 L42.625,88.0541992 L34.8269577,95.8522416 C35.2441483,96.5587693 35.5,97.3717689 35.5,98.25 C35.5,100.86911 33.36969,103 30.75,103 C28.13031,103 26,100.86911 26,98.25 C26,95.6308899 28.13031,93.5 30.75,93.5 C31.6283035,93.5 32.4413757,93.7557793 33.147831,94.1729698 L40.9458008,86.375 L37.875,86.375 L37.875,84 L43.8125,84 Z M30.75,100.625 C32.0592652,100.625 33.125,99.5598449 33.125,98.25 C33.125,96.9401551 32.0592652,95.875 30.75,95.875 C29.4407349,95.875 28.3750001,96.9401551 28.3750001,98.25 C28.3750001,99.5598449 29.4407349,100.625 30.75,100.625 Z" id="cm_dynamics" fill="#A6A6A6" fill-rule="nonzero"></path>
    </g>
</svg>