<?xml version="1.0" encoding="UTF-8"?>
<svg width="39px" height="39px" viewBox="0 0 39 39" version="1.1" xmlns="http://www.w3.org/2000/svg" xmlns:xlink="http://www.w3.org/1999/xlink">
    <defs></defs>
    <g id="Design" stroke="none" stroke-width="1" fill="none" fill-rule="evenodd">
        <g id="_assets" transform="translate(-901.000000, -844.000000)" fill-rule="nonzero" fill="#FFFFFF">
            <g id="control_dynamics" transform="translate(901.000000, 844.000000)">
                <path d="M0.700929528,13.802498 C1.63552887,14.7472541 3.1494828,14.7472541 4.08408214,13.802498 L7.17751714,10.6754435 L10.2709524,13.8024982 C11.2055512,14.7472544 12.7195061,14.7472544 13.654105,13.8024982 C14.5886775,12.8577687 14.5886775,11.3273069 13.654105,10.3825774 L10.5606698,7.25552263 L13.654105,4.12846783 C14.5886775,3.18373833 14.5886775,1.65327652 13.654105,0.708547012 C12.7195324,-0.236182497 11.2055249,-0.236182497 10.2709524,0.708547012 L7.17751714,3.83560181 L4.0840819,0.708547254 C3.14950936,-0.236182255 1.63550183,-0.236182255 0.700929289,0.708547254 C-0.233643255,1.65327676 -0.233643255,3.18373857 0.700929289,4.12846808 L3.79436453,7.25552263 L0.700929528,10.3825774 C-0.233643016,11.3273069 -0.233643016,12.8577685 0.700929528,13.802498 Z" id="Shape"></path>
                <path d="M37.5791619,24.8936227 C36.6445893,23.9488932 35.1305818,23.9488932 34.1960093,24.8936227 L31.1025743,28.0206772 L28.009139,24.8936224 C27.0745665,23.9488929 25.560559,23.9488929 24.6259864,24.8936224 C23.6914139,25.838352 23.6914139,27.3688138 24.6259864,28.3135433 L27.7194217,31.4405981 L24.6259864,34.5676529 C23.6914139,35.5123824 23.6914139,37.0428442 24.6259864,37.9875737 C25.0932727,38.4599384 25.7054178,38.6961207 26.3175628,38.6961207 C26.9297079,38.6961207 27.541853,38.4599384 28.009139,37.9875734 L31.1025743,34.8605189 L34.1960095,37.9875737 C34.6632956,38.4599384 35.2754406,38.6961207 35.8875857,38.6961207 C36.4997308,38.6961207 37.1118759,38.4599384 37.5791619,37.9875734 C38.5137344,37.0428439 38.5137344,35.5123821 37.5791619,34.5676526 L34.4857269,31.4405981 L37.5791621,28.3135433 C38.5137344,27.3688138 38.5137344,25.8383522 37.5791619,24.8936227 Z" id="Shape"></path>
                <path d="M35.8875857,0 L23.9250571,0 L23.9250571,4.83701509 L30.1119274,4.83701509 L14.4010328,20.7186561 C12.977708,19.8689902 11.3395775,19.3480603 9.57002285,19.3480603 C4.29202438,19.3480603 0,23.6879115 0,29.0220905 C0,34.3562695 4.29202438,38.6961207 9.57002285,38.6961207 C14.8480213,38.6961207 19.1400457,34.3562695 19.1400457,29.0220905 C19.1400457,27.2334518 18.6245705,25.5776659 17.7840393,24.1387247 L33.49508,8.25693591 L33.49508,14.5110453 L38.2800914,14.5110453 L38.2800914,2.41850754 C38.2800914,1.08289618 37.2100059,0 35.8875857,0 Z M9.57002285,33.8591056 C6.93219176,33.8591056 4.78501143,31.6897704 4.78501143,29.0220905 C4.78501143,26.3544107 6.93219176,24.1850754 9.57002285,24.1850754 C12.207854,24.1850754 14.3550343,26.3544107 14.3550343,29.0220905 C14.3550343,31.6897704 12.207854,33.8591056 9.57002285,33.8591056 Z" id="Shape"></path>
            </g>
        </g>
    </g>
</svg>