<?xml version="1.0" encoding="UTF-8"?>
<svg width="20px" height="20px" viewBox="0 0 20 20" version="1.1" xmlns="http://www.w3.org/2000/svg" xmlns:xlink="http://www.w3.org/1999/xlink">
    <!-- Generator: Sketch 49.3 (51167) - http://www.bohemiancoding.com/sketch -->
    <title>game-item-edit</title>
    <desc>Created with Sketch.</desc>
    <defs></defs>
    <g id="Symbols" stroke="none" stroke-width="1" fill="none" fill-rule="evenodd">
        <g id="thumb/6.ready" transform="translate(-284.000000, -145.000000)" fill="#FFFFFF" fill-rule="nonzero">
            <g id="icon/edit" transform="translate(284.000000, 145.000000)">
                <path d="M19.6882306,8.74608789 C19.5280765,8.64374506 18.2663669,7.88985769 17.7663726,7.66016032 L17.1460597,6.16017749 C17.3304336,5.66408317 17.6843336,4.27425908 17.7460529,4.03200185 C17.7960523,3.80778441 17.7280843,3.57418709 17.5655869,3.41168895 L16.5882581,2.43982007 C16.426542,2.27653994 16.1921627,2.20858272 15.9679452,2.26013413 C15.7835713,2.30232165 14.3679635,2.66012955 13.8397696,2.86012726 L12.3397868,2.23981436 C12.1218292,1.76013985 11.3874577,0.529673937 11.2538592,0.317956361 C11.1335486,0.121082614 10.919483,0 10.6882457,0 L9.31170141,0 C9.08202404,0 8.86874648,0.11796665 8.74608789,0.311716432 C8.64374506,0.471870599 7.88985769,1.73358016 7.66016032,2.23357443 L6.16017749,2.85388733 C5.66408317,2.66951344 4.27425908,2.31561349 4.03200185,2.2538942 C3.80778441,2.20389477 3.57418709,2.2718628 3.41168895,2.43436014 L2.43982007,3.41168895 C2.27653994,3.5734051 2.20858272,3.80778441 2.26013413,4.03200185 C2.30232165,4.21637574 2.66012955,5.63198353 2.86012726,6.16017749 L2.23981436,7.66016032 C1.76013985,7.87811782 0.529673937,8.61248942 0.317956361,8.74608789 C0.121082614,8.86639851 0,9.08046406 0,9.31170141 L0,10.6859057 C0,10.9155831 0.11796665,11.1288606 0.311716432,11.2522992 C0.471870599,11.354642 1.73358016,12.1085294 2.23357443,12.3382268 L2.85388733,13.8382096 C2.66951344,14.3343039 2.31561349,15.724128 2.2538942,15.9663852 L2.2538942,15.9656041 C2.20389477,16.1898215 2.2718628,16.4241988 2.43436014,16.585917 L3.40622901,17.5577858 C3.56794516,17.721066 3.80232448,17.7890232 4.02576192,17.7382518 C4.21013581,17.6960642 5.62574361,17.3382563 6.15393756,17.1382586 L7.65392039,17.7585715 C7.8718779,18.238246 8.60624949,19.468712 8.73984796,19.6804295 L8.73984796,19.6796483 C8.86094057,19.879646 9.07812409,20.0015247 9.31172141,19.9999647 L10.6859257,19.9999647 C10.9156031,19.9999647 11.1288806,19.881998 11.2523192,19.6882482 C11.354662,19.5280941 12.1085494,18.2663845 12.3382468,17.7663902 L13.8382296,17.1460773 C14.3343239,17.3304512 15.724148,17.6843512 15.9664052,17.7460705 L15.9656241,17.7460705 C16.1898415,17.7960699 16.4242188,17.7281019 16.585937,17.5656045 L17.5578058,16.5937357 C17.721086,16.4320195 17.7890432,16.1976402 17.7382718,15.9742028 C17.6960842,15.7898289 17.3382763,14.3742211 17.1382786,13.8460271 L17.7585915,12.3460443 C18.238266,12.1280868 19.468732,11.3937152 19.6804495,11.2601167 L19.6796683,11.2601167 C19.879666,11.1390241 20.0015447,10.9218406 19.9999847,10.6882433 L19.9999847,9.31169901 C20.0015471,9.08202164 19.88358,8.8671641 19.6882682,8.74608549 L19.6882306,8.74608789 Z M10.0001415,14.3538237 C8.84469476,14.3530425 7.73616745,13.892889 6.91977679,13.0749383 C6.10338614,12.2569877 5.64557138,11.1476204 5.64635137,9.99217363 C5.64713256,8.83594686 6.10728609,7.72819954 6.92523673,6.91180888 C7.74318737,6.09541823 8.85255467,5.63682348 10.0080014,5.63838346 C11.1642282,5.63916465 12.2719755,6.09931818 13.0883662,6.91726882 C13.9047568,7.73521946 14.3633516,8.84458676 14.3617916,10.0000335 C14.3594478,11.1554803 13.8985169,12.2624076 13.0813463,13.0789983 C12.2633956,13.894609 11.1555883,14.3532037 10.0001815,14.3539837 L10.0001415,14.3538237 Z" id="Shape"></path>
            </g>
        </g>
    </g>
</svg>