<?xml version="1.0" encoding="UTF-8"?>
<svg width="34px" height="26px" viewBox="0 0 34 26" version="1.1" xmlns="http://www.w3.org/2000/svg" xmlns:xlink="http://www.w3.org/1999/xlink">
    <!-- Generator: Sketch 53.2 (72643) - https://sketchapp.com -->
    <title>Shape</title>
    <desc>Created with Sketch.</desc>
    <g id="Spotlight" stroke="none" stroke-width="1" fill="none" fill-rule="evenodd">
        <g id="d_01_start" transform="translate(-26.000000, -670.000000)" fill="#FFFFFF" fill-rule="nonzero">
            <g id="Group-8" transform="translate(10.000000, 652.000000)">
                <path d="M24.3095137,35.875 C26.0736626,35.875 27.8222009,34.5177023 27.8604651,31.8125 C25.4879364,32.1778623 23.1170051,32.1778623 20.744186,31.8125 C20.7810562,34.5099411 22.5451833,35.875 24.3093322,35.875 L24.3095137,35.875 Z M20.744186,29.375 C21.5356585,29.375 22.3255814,28.725 22.3255814,27.75 C22.3255814,26.775 21.5341089,26.125 20.744186,26.125 C19.9527136,26.125 19.1627907,26.775 19.1627907,27.75 C19.1627907,28.725 19.9542632,29.375 20.744186,29.375 Z M27.8604651,29.375 C28.6519376,29.375 29.4418605,28.725 29.4418605,27.75 C29.4418605,26.775 28.650388,26.125 27.8604651,26.125 C27.0689926,26.125 26.2790698,26.775 26.2790698,27.75 C26.2790698,28.725 27.0705423,29.375 27.8604651,29.375 Z M38.1395349,31 C41.2169296,30.5947515 42.9676757,30.5947515 46.0465116,31 C46.0465116,29.3709941 44.7257753,27.75 42.0930233,27.75 C39.4602712,27.75 38.1395349,29.3723294 38.1395349,31 L38.1395349,31 Z M38.9302326,26.125 C39.721705,26.125 40.5116279,25.475 40.5116279,24.5 C40.5116279,23.525 39.7201554,22.875 38.9302326,22.875 C38.1387601,22.875 37.3488372,23.525 37.3488372,24.5 C37.3488372,25.475 38.1403097,26.125 38.9302326,26.125 Z M45.255814,26.125 C46.0472864,26.125 46.8372093,25.475 46.8372093,24.5 C46.8372093,23.525 46.0457368,22.875 45.255814,22.875 C44.4643415,22.875 43.6744186,23.525 43.6744186,24.5 C43.6744186,25.475 44.4658911,26.125 45.255814,26.125 Z M36.2942844,35.0625 C34.7339281,35.0625 34.1860465,34.5083271 34.1860465,32.9300531 L34.1860465,20.1324469 C34.1860465,18.5541729 34.7339281,18 36.2942844,18 L47.8917621,18 C49.4521184,18 50,18.5541729 50,20.1324469 L50,32.9300531 C50,34.5083271 49.4521184,35.0625 47.8917621,35.0625 L36.2942844,35.0625 Z M20.744186,44 L20.744186,37.5 L27.0697674,37.6523451 L20.744186,44 Z M18.1082379,39.9375 C16.5478816,39.9375 16,39.3833271 16,37.8050531 L16,25.0074469 C16,23.4291729 16.5478816,22.875 18.1082379,22.875 L29.7057156,22.875 C31.2660719,22.875 31.8139535,23.4291729 31.8139535,25.0074469 L31.8139535,37.8050531 C31.8139535,39.3833271 31.2660719,39.9375 29.7057156,39.9375 L18.1082379,39.9375 Z M46.0465116,39.9375 L40.5116279,34.2706966 L46.0465116,34.25 L46.0465116,39.9375 Z" id="Shape"></path>
            </g>
        </g>
    </g>
</svg>