<?xml version="1.0" encoding="UTF-8"?>
<svg width="16px" height="11px" viewBox="0 0 16 11" version="1.1" xmlns="http://www.w3.org/2000/svg" xmlns:xlink="http://www.w3.org/1999/xlink">
    <!-- Generator: Sketch 47.1 (45422) - http://www.bohemiancoding.com/sketch -->
    <title>icon_views</title>
    <desc>Created with Sketch.</desc>
    <defs></defs>
    <g id="Page-1" stroke="none" stroke-width="1" fill="none" fill-rule="evenodd">
        <g id="Radar_mp_new" transform="translate(-276.000000, -301.000000)" fill-rule="nonzero" fill="#BBBBBB">
            <g id="Group-18" transform="translate(20.000000, 281.000000)">
                <g id="Group-15" transform="translate(256.000000, 17.000000)">
                    <g id="icon_views" transform="translate(0.000000, 3.000000)">
                        <path d="M8,0.0182222222 C3.37066667,0.0182222222 0.129333333,5.11111111 0.129333333,5.11111111 C0.129333333,5.11111111 2.49044444,10.204 8,10.204 C13.5555556,10.204 15.8706667,5.11111111 15.8706667,5.11111111 C15.8706667,5.11111111 12.6762222,0.0182222222 8,0.0182222222 Z M8,8.35155556 C6.19444444,8.35155556 4.75955556,6.91666667 4.75955556,5.11111111 C4.75955556,3.30555556 6.19444444,1.87066667 8,1.87066667 C9.80555556,1.87066667 11.2404444,3.30555556 11.2404444,5.11111111 C11.2404444,6.91666667 9.80555556,8.35155556 8,8.35155556 L8,8.35155556 Z" id="Shape"></path>
                        <path d="M9.38888889,5.11111111 C9.38888889,5.87846667 8.76735556,6.5 8,6.5 C7.23264444,6.5 6.61111111,5.87846667 6.61111111,5.11111111 C6.61111111,4.34375556 7.23264444,3.72222222 8,3.72222222 C8.76735556,3.72222222 9.38888889,4.34375556 9.38888889,5.11111111" id="Shape"></path>
                    </g>
                </g>
            </g>
        </g>
    </g>
</svg>