<?xml version="1.0" encoding="UTF-8"?>
<svg width="56px" height="37px" viewBox="0 0 56 37" version="1.1" xmlns="http://www.w3.org/2000/svg" xmlns:xlink="http://www.w3.org/1999/xlink">
    <desc>Created with Sketch.</desc>
    <defs></defs>
    <g id="Page-1" stroke="none" stroke-width="1" fill="none" fill-rule="evenodd">
        <g id="Team_mp_new-Copy" transform="translate(-307.000000, -100.000000)" fill-rule="nonzero" fill="#FFFFFF">
            <g id="Group-4" transform="translate(0.000000, 81.000000)">
                <g id="Group" transform="translate(206.000000, 19.000000)">
                    <g id="Group-3" transform="translate(101.000000, 0.000000)">
                        <path d="M54.6476299,0.163532291 C53.8881845,-0.215905659 52.9629334,0.0914858656 52.5832108,0.850367914 L49.9324117,6.14807641 L30.7186404,6.14807641 C20.7499969,6.14807641 11.7878769,11.6835215 7.33234912,20.5905598 L0.290991044,34.6635586 C0.0530675843,35.1390564 0.0770986412,35.7058003 0.358285386,36.1596946 C0.637060412,36.611179 1.13212726,36.8873519 1.66565855,36.8873519 L41.6558967,36.8873519 C42.5066428,36.8873519 43.1939827,36.2005162 43.1939827,35.3503942 L43.1939827,30.1559693 C46.53932,28.5301755 50.2378017,27.6656061 53.9605853,27.6656061 C54.4124012,27.6656061 54.8425854,27.4662811 55.1333452,27.1228695 C55.4265413,26.777054 55.5515139,26.3231597 55.477009,25.8765198 L52.4825399,7.92546954 L55.3351974,2.2243404 C55.7173134,1.46545221 55.4072968,0.543277633 54.6478575,0.163833535 L54.6476299,0.163532291 Z M40.1176383,33.8130677 L4.15534004,33.8130677 L5.69342612,30.7391525 L40.1176383,30.7391525 L40.1176383,33.8130677 Z M41.2784011,27.6652372 L7.23132763,27.6652372 L10.0839851,21.9665058 C14.0157023,14.1040453 21.9223261,9.22205314 30.7183327,9.22205314 L49.5814204,9.22205314 L52.1553152,24.6518781 C48.3702084,24.9016337 44.6500704,25.9294588 41.2779704,27.6657291 L41.2784011,27.6652372 Z" id="Shape" transform="translate(27.813700, 18.444160) scale(-1, 1) translate(-27.813700, -18.444160)"></path>
                        <path d="M26.2763645,12.295661 L17.047848,12.295661 C14.5028077,12.295661 12.4335897,14.3633608 12.4335897,16.9065339 C12.4335897,19.4497069 14.5028077,21.5174067 17.047848,21.5174067 L26.2763645,21.5174067 C28.8214047,21.5174067 30.8906227,19.4497069 30.8906227,16.9065339 C30.8906227,14.3633608 28.8214047,12.295661 26.2763645,12.295661 Z M26.2763645,18.4434915 L17.047848,18.4434915 C16.1995012,18.4434915 15.5097619,17.7542582 15.5097619,16.9065339 C15.5097619,16.0588095 16.1995012,15.3695762 17.047848,15.3695762 L26.2763645,15.3695762 C27.1247112,15.3695762 27.8144505,16.0588095 27.8144505,16.9065339 C27.8144505,17.7542582 27.1247112,18.4434915 26.2763645,18.4434915 Z" id="Shape" transform="translate(21.662106, 16.906534) scale(-1, 1) translate(-21.662106, -16.906534) "></path>
                    </g>
                </g>
            </g>
        </g>
    </g>
</svg>
