<?xml version="1.0" encoding="UTF-8"?>
<svg width="100px" height="100px" viewBox="0 0 100 100" version="1.1" xmlns="http://www.w3.org/2000/svg" xmlns:xlink="http://www.w3.org/1999/xlink">
    <!-- Generator: Sketch 48.2 (47327) - http://www.bohemiancoding.com/sketch -->
    <title>share-item-email</title>
    <desc>Created with Sketch.</desc>
    <defs>
        <circle id="path-1" cx="40" cy="40" r="40"></circle>
        <filter x="-21.9%" y="-15.6%" width="143.8%" height="143.8%" filterUnits="objectBoundingBox" id="filter-2">
            <feOffset dx="0" dy="5" in="SourceAlpha" result="shadowOffsetOuter1"></feOffset>
            <feGaussianBlur stdDeviation="5" in="shadowOffsetOuter1" result="shadowBlurOuter1"></feGaussianBlur>
            <feColorMatrix values="0 0 0 0 0   0 0 0 0 0   0 0 0 0 0  0 0 0 0.15 0" type="matrix" in="shadowBlurOuter1"></feColorMatrix>
        </filter>
    </defs>
    <g id="2.2.Share.Modal" stroke="none" stroke-width="1" fill="none" fill-rule="evenodd" transform="translate(-202.000000, -505.000000)">
        <g id="Group-5" transform="translate(71.000000, 510.000000)">
            <g id="share-item-email" transform="translate(141.000000, 0.000000)">
                <g id="Oval-2">
                    <use fill="black" fill-opacity="1" filter="url(#filter-2)" xlink:href="#path-1"></use>
                    <use fill="#37C2AC" fill-rule="evenodd" xlink:href="#path-1"></use>
                </g>
                <g id="Group-4" transform="translate(21.000000, 27.000000)" fill="#FFFFFF" fill-rule="nonzero">
                    <path d="M39,4.75471698 C39,2.12969057 36.8164333,0 34.125,0 L4.875,0 C2.18356667,0 0,2.12969057 0,4.75471698 L0,23.245283 C0,25.8703094 2.18356667,28 4.875,28 L34.125,28 C36.8164333,28 39,25.8703094 39,23.245283 L39,4.75471698 Z M34.125,3.16981132 C34.5249017,3.16981132 34.9099833,3.31633057 35.2083333,3.57635547 L19.7540417,13.9358272 L3.79166667,3.56578943 C4.09000583,3.30783019 4.4772,3.16749736 4.875,3.16956302 L34.125,3.16981132 Z M34.125,24.8301887 L4.875,24.8301887 C3.97789167,24.8301887 3.25,24.1202566 3.25,23.245283 L3.25,7.01056604 L18.8716667,17.1698113 C19.4217833,17.5330189 20.141225,17.5330189 20.6913417,17.1698113 L35.7502167,7.05758491 L35.7502167,23.245283 C35.7502167,24.1202566 35.022325,24.8301887 34.1252167,24.8301887 L34.125,24.8301887 Z" id="Shape"></path>
                </g>
            </g>
        </g>
    </g>
</svg>