<?xml version="1.0" encoding="UTF-8"?>
<svg width="20px" height="15px" viewBox="0 0 20 15" version="1.1" xmlns="http://www.w3.org/2000/svg" xmlns:xlink="http://www.w3.org/1999/xlink">
    <!-- Generator: Sketch 59 (86127) - https://sketch.com -->
    <title>share-icon-email</title>
    <desc>Created with Sketch.</desc>
    <g id="Page-1" stroke="none" stroke-width="1" fill="none" fill-rule="evenodd">
        <g id="m.video-P1-Share" transform="translate(-24.000000, -684.000000)" fill="#37C2AC" fill-rule="nonzero">
            <g id="Group-15" transform="translate(0.000000, 559.000000)">
                <g id="Group-2" transform="translate(24.000000, 81.000000)">
                    <g id="share-icon-email" transform="translate(0.000000, 44.000000)">
                        <path d="M2.3437561,9.9475983e-14 L17.5057073,9.9475983e-14 C18.8242927,9.9475983e-14 19.8494634,1.02514634 19.8494634,2.3437561 L19.8494634,12.0122927 C19.8494634,13.2575366 18.8243171,14.2826829 17.5057073,14.2826829 L2.3437561,14.2826829 C1.02517073,14.2826829 1.56319402e-13,13.2575366 1.56319402e-13,12.0122927 L1.56319402e-13,2.3437561 C1.56319402e-13,1.02517073 1.02514634,9.9475983e-14 2.3437561,9.9475983e-14 Z M17.7981463,12.9639024 L13.184,8.42317073 L12.0854878,9.30256098 C10.5477561,10.5478049 9.30256098,10.5478049 7.76378049,9.30256098 L6.66526829,8.42317073 L2.12453659,12.9639024 C2.19789756,13.0372634 2.27125854,13.0372634 2.34461951,13.0372634 L17.5065707,13.0372634 C17.6532927,13.0372634 17.7266537,13.0372634 17.8000098,12.9639024 L17.7981463,12.9639024 Z M14.209122,7.54365854 L18.5308293,11.9387805 L18.5308293,3.95487805 L14.209122,7.54365854 Z M1.31839024,11.9387805 L5.7135122,7.54365854 L1.31839024,3.95463415 L1.31839024,11.9387805 Z M1.31839024,2.34365854 L8.56960976,8.27634146 C9.66812195,9.15573171 10.2540488,9.15573171 11.279122,8.27634146 L18.5303415,2.34365854 C18.5303415,1.75773171 18.091122,1.3185122 17.5051951,1.3185122 L2.3432439,1.3185122 C1.75731707,1.3185122 1.31809756,1.75773171 1.31809756,2.34365854 L1.31839024,2.34365854 Z" id="Shape"></path>
                    </g>
                </g>
            </g>
        </g>
    </g>
</svg>