<?xml version="1.0" encoding="UTF-8"?>
<svg width="100px" height="100px" viewBox="0 0 100 100" version="1.1" xmlns="http://www.w3.org/2000/svg" xmlns:xlink="http://www.w3.org/1999/xlink">
    <!-- Generator: Sketch 48.2 (47327) - http://www.bohemiancoding.com/sketch -->
    <title>share-item-copy</title>
    <desc>Created with Sketch.</desc>
    <defs>
        <circle id="path-1" cx="40" cy="40" r="40"></circle>
        <filter x="-21.9%" y="-15.6%" width="143.8%" height="143.8%" filterUnits="objectBoundingBox" id="filter-2">
            <feOffset dx="0" dy="5" in="SourceAlpha" result="shadowOffsetOuter1"></feOffset>
            <feGaussianBlur stdDeviation="5" in="shadowOffsetOuter1" result="shadowBlurOuter1"></feGaussianBlur>
            <feColorMatrix values="0 0 0 0 0   0 0 0 0 0   0 0 0 0 0  0 0 0 0.15 0" type="matrix" in="shadowBlurOuter1"></feColorMatrix>
        </filter>
    </defs>
    <g id="2.2.Share.Modal" stroke="none" stroke-width="1" fill="none" fill-rule="evenodd" transform="translate(-75.000000, -505.000000)">
        <g id="Group-5" transform="translate(71.000000, 510.000000)">
            <g id="Group-2">
                <g id="share-item-copy" transform="translate(14.000000, 0.000000)">
                    <g id="Oval-2">
                        <use fill="black" fill-opacity="1" filter="url(#filter-2)" xlink:href="#path-1"></use>
                        <use fill="#37C2AC" fill-rule="evenodd" xlink:href="#path-1"></use>
                    </g>
                    <g id="Group" transform="translate(24.000000, 25.000000)" stroke="#FFFFFF" stroke-linecap="round" stroke-linejoin="round" stroke-width="3.125025">
                        <path d="M14.4128381,11.2382095 L28.6986667,11.2382095 C30.4516966,11.2382095 31.872819,12.9912394 31.872819,14.4123619 L31.872819,28.6981905 C31.872819,30.4512204 30.4516807,31.8723428 28.6986667,31.8723428 L14.4128381,31.8723428 C12.6598082,31.8723428 11.2386857,30.119313 11.2386857,28.6981905 L11.2386857,14.4123619 C11.2386857,12.659332 12.6598241,11.2382095 14.4128381,11.2382095 Z" id="Shape"></path>
                        <path d="M4.88847619,20.7620952 L3.30214604,20.7620952 C1.54768756,20.7620952 0.126565076,19.3409569 0.126565076,17.5879429 L0.126565076,3.30211429 C0.126565076,1.54765581 1.54770343,0.12653333 3.30214604,0.12653333 L17.5879746,0.12653333 C18.4287591,0.12653333 19.2368767,0.461361405 19.8321195,1.05660426 C20.4273624,1.65184712 20.7621905,2.45988533 20.7621905,3.30217778 L20.7621905,4.88996826" id="Shape"></path>
                    </g>
                </g>
            </g>
        </g>
    </g>
</svg>