<?xml version="1.0" encoding="UTF-8"?>
<svg width="120px" height="30px" viewBox="0 0 120 30" version="1.1" xmlns="http://www.w3.org/2000/svg" xmlns:xlink="http://www.w3.org/1999/xlink">
    <!-- Generator: Sketch 49.3 (51167) - http://www.bohemiancoding.com/sketch -->
    <title>logo_top_bar</title>
    <desc>Created with Sketch.</desc>
    <defs>
        <polygon id="path-1" points="9.5243244 0.0302690857 9.5243244 2.15342924 6.04511914 2.15342924 6.04511914 13.252094 3.50819864 13.252094 3.50819864 2.15342924 0.0289933772 2.15342924 0.0289933772 0.0302690857"></polygon>
        <path d="M2.75654534,0.0490070912 L5.65851998,0.0490070912 C6.2302139,0.0620506548 6.79699652,0.163549142 7.33822376,0.350256564 C8.3174751,0.681775122 9.08377005,1.4506099 9.40835085,2.4272924 C9.5769474,2.92211989 9.66073823,3.44145091 9.65624423,3.96380885 C9.68538263,4.7216891 9.47663033,5.46976793 9.05898068,6.10426562 C8.6230653,6.73213295 7.9723089,7.18083611 7.22804892,7.36691892 L10.147682,13.2607424 L7.33822376,13.2607424 L4.83609531,7.88293475 L2.64709533,7.88293475 L2.64709533,13.2607424 L0.107275496,13.2607424 L0.107275496,0.0490070912 L2.75654534,0.0490070912 Z M2.64564566,5.83328523 L4.52296684,5.83328523 C5.5164249,5.83328523 6.19733437,5.67761565 6.56555026,5.36627649 C6.93376615,5.05493732 7.11787409,4.58836098 7.11787409,3.96669162 C7.11787409,3.34502225 6.93376615,2.87844591 6.56555026,2.56710675 C6.19733437,2.25576758 5.6657408,2.100098 4.97091452,2.100098 L2.65144434,2.100098 L2.64564566,5.83328523 Z" id="path-3"></path>
        <path d="M3.93440128,0.0302690857 L7.1033774,0.0302690857 L10.8725165,13.2607424 L8.3500926,13.2607424 L7.61366085,10.4068 L3.41976884,10.4068 L2.62824964,13.2607424 L0.108725164,13.2607424 L3.93440128,0.0302690857 Z M3.970643,8.31679162 L7.06133701,8.31679162 L5.57252709,2.57287229 L5.53628537,2.57287229 L3.970643,8.31679162 Z" id="path-5"></path>
        <path d="M7.68324495,4.0358781 C7.52204175,3.50934015 7.22167038,3.03541274 6.81344363,2.66367954 C6.38709602,2.3000181 5.83810642,2.11047597 5.27679464,2.13324985 C4.43018803,2.13324985 3.76479002,2.52055001 3.28060063,3.29500619 C2.79641122,4.06946237 2.55475143,5.23698425 2.5557662,6.79757183 C2.51908958,9.90707178 3.45122665,11.4618938 5.35217742,11.4618938 C5.61543728,11.4643442 5.87797232,11.433931 6.13354894,11.3710866 C6.3723094,11.3102601 6.59715304,11.2046066 6.7960476,11.0597474 C7.02045634,10.8915378 7.21877104,10.6914735 7.38461316,10.4658967 C7.604238,10.1659445 7.79226007,9.84422738 7.945635,9.50593432 L10.2926488,10.1271713 C9.9002235,11.2735048 9.28411425,12.1383358 8.4443211,12.7216643 C7.60452795,13.3049928 6.57091403,13.5932699 5.34347941,13.5864953 C3.63866883,13.5864953 2.32338428,12.9979779 1.39748078,11.8207987 C0.47157728,10.6436195 0.00869801317,8.96973905 0.00869801317,6.79901321 C0.00869801317,4.62828735 0.47157728,2.9544069 1.39748078,1.77722775 C2.32338428,0.60004859 3.63866883,0.0115310803 5.34347941,0.0115310803 C6.619188,0.0115310803 7.63105687,0.295051516 8.37908602,0.861948249 C9.1271151,1.42884498 9.65870872,2.3037657 9.97372177,3.4867104 L7.68324495,4.0358781 Z" id="path-7"></path>
        <polygon id="path-9" points="0.00724834429 13.2607424 0.00724834429 0.0490070912 8.80238932 0.0490070912 8.80238932 2.17072587 2.54706818 2.17072587 2.54706818 5.3172694 7.09178005 5.3172694 7.09178005 7.43898817 2.54706818 7.43898817 2.54706818 11.1346994 9.00534292 11.1346994 9.00534292 13.2607424"></polygon>
    </defs>
    <g id="Symbols" stroke="none" stroke-width="1" fill="none" fill-rule="evenodd">
        <g id="header/web.mobile" transform="translate(-128.000000, -26.000000)">
            <g id="logo/darkGrey" transform="translate(128.000000, 26.000000)">
                <polygon id="Fill-4" fill="#444444" fill-rule="nonzero" points="26.5666315 27.8504417 28.8166315 27.8504417 28.8166315 0.765375453 26.5666315 0.765375453"></polygon>
                <ellipse id="Oval" fill="#444444" fill-rule="nonzero" cx="18.1208607" cy="17.5848974" rx="2.60940395" ry="2.59449307"></ellipse>
                <ellipse id="Oval-Copy" fill="#444444" fill-rule="nonzero" cx="10.5825827" cy="17.5848974" rx="2.60940395" ry="2.59449307"></ellipse>
                <ellipse id="Oval-Copy-2" fill="#444444" fill-rule="nonzero" cx="14.3517217" cy="11.2428033" rx="2.60940394" ry="2.59449307"></ellipse>
                <g id="Group-17" stroke-width="1" fill-rule="evenodd" transform="translate(35.661854, 7.639341)">
                    <g id="Fill-15-Clipped">
                        <mask id="mask-2" fill="white">
                            <use xlink:href="#path-1"></use>
                        </mask>
                        <g id="path-3"></g>
                        <polygon id="Fill-15" fill="#444444" fill-rule="nonzero" mask="url(#mask-2)" points="0.0260940395 13.2636251 9.5243244 13.2636251 9.5243244 0.0144138504 0.0260940395 0.0144138504"></polygon>
                    </g>
                </g>
                <g id="Group-20" stroke-width="1" fill-rule="evenodd" transform="translate(51.463244, 7.639341)">
                    <g id="Fill-18-Clipped">
                        <mask id="mask-4" fill="white">
                            <use xlink:href="#path-3"></use>
                        </mask>
                        <g id="path-5"></g>
                        <polygon id="Fill-18" fill="#444444" fill-rule="nonzero" mask="url(#mask-4)" points="0.089879469 13.2636251 10.1621787 13.2636251 10.1621787 0.0490070912 0.089879469 0.0490070912"></polygon>
                    </g>
                </g>
                <g id="Group-23" stroke-width="1" fill-rule="evenodd" transform="translate(67.119668, 7.639341)">
                    <g id="Fill-21-Clipped">
                        <mask id="mask-6" fill="white">
                            <use xlink:href="#path-5"></use>
                        </mask>
                        <g id="path-7"></g>
                        <polygon id="Fill-21" fill="#444444" fill-rule="nonzero" mask="url(#mask-6)" points="0.107275495 13.2636251 10.8754158 13.2636251 10.8754158 0.0144138504 0.107275495 0.0144138504"></polygon>
                    </g>
                </g>
                <g id="Group-26" stroke-width="1" fill-rule="evenodd" transform="translate(83.355959, 7.495202)">
                    <g id="Fill-24-Clipped">
                        <mask id="mask-8" fill="white">
                            <use xlink:href="#path-7"></use>
                        </mask>
                        <g id="path-9"></g>
                        <polygon id="Fill-24" fill="#444444" fill-rule="nonzero" mask="url(#mask-8)" points="-0.00289933771 13.5980264 10.2955482 13.5980264 10.2955482 0.00288277007 -0.00289933771 0.00288277007"></polygon>
                    </g>
                </g>
                <g id="Group-29" stroke-width="1" fill-rule="evenodd" transform="translate(100.172118, 7.639341)">
                    <g id="Fill-27-Clipped">
                        <mask id="mask-10" fill="white">
                            <use xlink:href="#path-9"></use>
                        </mask>
                        <g id="path-11"></g>
                        <polygon id="Fill-27" fill="#444444" fill-rule="nonzero" mask="url(#mask-10)" points="0.00289933771 13.2636251 9.01404097 13.2636251 9.01404097 0.0490070912 0.00289933771 0.0490070912"></polygon>
                    </g>
                </g>
                <path d="M0,0 L120,0 L120,29.0828571 L0,29.0828571 L0,0 Z M2.25,2.23714286 L2.25,26.8457143 L117.75,26.8457143 L117.75,2.23714286 L2.25,2.23714286 Z" id="Combined-Shape" fill="#444444" fill-rule="evenodd"></path>
            </g>
        </g>
    </g>
</svg>