<?xml version="1.0" encoding="UTF-8"?>
<svg width="414px" height="294px" viewBox="0 0 414 294" version="1.1" xmlns="http://www.w3.org/2000/svg" xmlns:xlink="http://www.w3.org/1999/xlink">
    <!-- Generator: Sketch 50.2 (55047) - http://www.bohemiancoding.com/sketch -->
    <title>Group 2</title>
    <desc>Created with Sketch.</desc>
    <defs>
        <linearGradient x1="50%" y1="50.1439538%" x2="50%" y2="87.8817617%" id="linearGradient-1">
            <stop stop-color="#F7FF00" offset="0%"></stop>
            <stop stop-color="#FFFE00" stop-opacity="0" offset="100%"></stop>
        </linearGradient>
        <linearGradient x1="50%" y1="22.0336914%" x2="50%" y2="100%" id="linearGradient-2">
            <stop stop-color="#F4FD00" offset="0%"></stop>
            <stop stop-color="#FFFE00" stop-opacity="0" offset="100%"></stop>
        </linearGradient>
    </defs>
    <g id="Final-Stuff" stroke="none" stroke-width="1" fill="none" fill-rule="evenodd">
        <g id="d06l_newGame_processing_new" transform="translate(-552.000000, -280.000000)">
            <g id="Group-2" transform="translate(552.000000, 280.000000)">
                <rect id="Rectangle" fill="#AAAAAA" x="53.592233" y="174.926941" width="46.8932039" height="33.4474886" rx="3.35"></rect>
                <path d="M100.325455,177.585583 C100.429338,177.908881 100.485437,178.253597 100.485437,178.611416 L100.485437,201.702088 L87.1445671,201.702088 C80.4849782,201.702088 75.0863147,196.303425 75.0863147,189.643836 C75.0863147,182.984247 80.4849782,177.585583 87.1445671,177.585583 L100.325455,177.585583 Z" id="Combined-Shape" fill="#4A4A4A" opacity="0.55"></path>
                <g id="Group-3" transform="translate(146.038835, 0.000000)">
                    <g id="Group-7" opacity="0.9">
                        <rect id="Rectangle-2" fill="#EFEFEF" transform="translate(133.980583, 77.260274) rotate(270.000000) translate(-133.980583, -77.260274) " x="57.6757044" y="-55.9316331" width="152.609756" height="266.383814" rx="13.266"></rect>
                        <path d="M131.207482,55.5559467 L131.207482,1.10923632 L136.753683,1.10923632 L136.753683,55.5559467 C147.697203,56.9186296 156.165389,66.240598 156.165389,77.5375841 C156.165389,88.8345701 147.697203,98.1565385 136.753683,99.5192214 L136.753683,153.411312 L131.207482,153.411312 L131.207482,99.5192214 C120.263962,98.1565385 111.795776,88.8345701 111.795776,77.5375841 C111.795776,66.240598 120.263962,56.9186296 131.207482,55.5559467 Z" id="Combined-Shape" fill-opacity="0.1" fill="#000000" style="mix-blend-mode: multiply;" transform="translate(133.980583, 77.260274) rotate(180.000000) translate(-133.980583, -77.260274) "></path>
                        <rect id="Combined-Shape" fill-opacity="0.1" fill="#000000" style="mix-blend-mode: multiply;" transform="translate(251.075165, 77.611704) rotate(270.000000) translate(-251.075165, -77.611704) " x="203.956024" y="61.4459314" width="94.2382827" height="32.3315447"></rect>
                        <rect id="Combined-Shape" fill-opacity="0.1" fill="#000000" style="mix-blend-mode: multiply;" transform="translate(17.940906, 77.260274) rotate(270.000000) translate(-17.940906, -77.260274) " x="-29.1782352" y="60.0402121" width="94.2382827" height="34.4401237"></rect>
                    </g>
                    <g id="Group-11" transform="translate(239.825243, 75.587900) rotate(-40.000000) translate(-239.825243, -75.587900) translate(230.446602, 53.178082)">
                        <path d="M9.33984583,44.343098 C14.3409164,44.343098 18.3950852,27.5242013 18.3950852,22.5735612 C18.3950852,17.622921 14.3409164,13.6096342 9.33984583,13.6096342 C4.33877522,13.6096342 0.284606464,17.622921 0.284606464,22.5735612 C0.284606464,27.5242013 4.33877522,44.343098 9.33984583,44.343098 Z" id="Oval-3" fill="url(#linearGradient-1)"></path>
                        <path d="M9.05523937,30.7334638 C14.05631,30.7334638 18.1104787,13.9145671 18.1104787,8.96392694 C18.1104787,4.01328679 14.05631,0 9.05523937,0 C4.05416876,0 2.27373675e-13,4.01328679 2.27373675e-13,8.96392694 C2.27373675e-13,13.9145671 4.05416876,30.7334638 9.05523937,30.7334638 Z" id="Oval-3" fill="url(#linearGradient-2)" opacity="0" transform="translate(9.055239, 15.366732) scale(1, -1) translate(-9.055239, -15.366732) "></path>
                    </g>
                    <g id="Group-11" transform="translate(169.150485, 50.836758) rotate(-40.000000) translate(-169.150485, -50.836758) translate(160.106796, 29.095890)">
                        <path d="M9.04368932,43.4817352 C14.038381,43.4817352 18.0873786,26.684988 18.0873786,21.7408676 C18.0873786,16.7967472 14.038381,12.7887456 9.04368932,12.7887456 C4.04899763,12.7887456 0,16.7967472 0,21.7408676 C0,26.684988 4.04899763,43.4817352 9.04368932,43.4817352 Z" id="Oval-3" fill="url(#linearGradient-1)"></path>
                        <path d="M9.04368932,30.6929895 C14.038381,30.6929895 18.0873786,13.8962424 18.0873786,8.95212194 C18.0873786,4.00800152 14.038381,0 9.04368932,0 C4.04899763,0 0,4.00800152 0,8.95212194 C0,13.8962424 4.04899763,30.6929895 9.04368932,30.6929895 Z" id="Oval-3" fill="url(#linearGradient-2)" opacity="0" transform="translate(9.043689, 15.346495) scale(1, -1) translate(-9.043689, -15.346495) "></path>
                    </g>
                    <ellipse id="Oval-3" fill="#AAAAAA" cx="239.490291" cy="74.9189498" rx="9.04368932" ry="9.03082192"></ellipse>
                    <ellipse id="Oval-3" fill="#AAAAAA" cx="220.063107" cy="49.4988584" rx="9.04368932" ry="9.03082192"></ellipse>
                    <ellipse id="Oval-3" fill="#AAAAAA" cx="207.334951" cy="74.9189498" rx="9.04368932" ry="9.03082192"></ellipse>
                    <g id="Group-11" transform="translate(220.063107, 107.028539) rotate(10.000000) translate(-220.063107, -107.028539) translate(211.019417, 85.287671)">
                        <path d="M9.04368932,43.4817352 C14.038381,43.4817352 18.0873786,26.684988 18.0873786,21.7408676 C18.0873786,16.7967472 14.038381,12.7887456 9.04368932,12.7887456 C4.04899763,12.7887456 0,16.7967472 0,21.7408676 C0,26.684988 4.04899763,43.4817352 9.04368932,43.4817352 Z" id="Oval-3" fill="url(#linearGradient-1)"></path>
                        <path d="M9.04368932,30.6929895 C14.038381,30.6929895 18.0873786,13.8962424 18.0873786,8.95212194 C18.0873786,4.00800152 14.038381,0 9.04368932,0 C4.04899763,0 0,4.00800152 0,8.95212194 C0,13.8962424 4.04899763,30.6929895 9.04368932,30.6929895 Z" id="Oval-3" fill="url(#linearGradient-2)" opacity="0" transform="translate(9.043689, 15.346495) scale(1, -1) translate(-9.043689, -15.346495) "></path>
                    </g>
                    <g id="Group-11" transform="translate(175.849515, 81.608447) rotate(30.000000) translate(-175.849515, -81.608447) translate(166.805825, 59.867580)">
                        <path d="M9.04368932,43.4817352 C14.038381,43.4817352 18.0873786,26.684988 18.0873786,21.7408676 C18.0873786,16.7967472 14.038381,12.7887456 9.04368932,12.7887456 C4.04899763,12.7887456 0,16.7967472 0,21.7408676 C0,26.684988 4.04899763,43.4817352 9.04368932,43.4817352 Z" id="Oval-3" fill="url(#linearGradient-1)"></path>
                        <path d="M9.04368932,30.6929895 C14.038381,30.6929895 18.0873786,13.8962424 18.0873786,8.95212194 C18.0873786,4.00800152 14.038381,0 9.04368932,0 C4.04899763,0 0,4.00800152 0,8.95212194 C0,13.8962424 4.04899763,30.6929895 9.04368932,30.6929895 Z" id="Oval-3" fill="url(#linearGradient-2)" opacity="0" transform="translate(9.043689, 15.346495) scale(1, -1) translate(-9.043689, -15.346495) "></path>
                    </g>
                    <g id="Group-11-Copy" transform="translate(86.082524, 107.028539) rotate(30.000000) translate(-86.082524, -107.028539) translate(77.038835, 85.287671)">
                        <path d="M9.04368932,43.4817352 C14.038381,43.4817352 18.0873786,26.684988 18.0873786,21.7408676 C18.0873786,16.7967472 14.038381,12.7887456 9.04368932,12.7887456 C4.04899763,12.7887456 0,16.7967472 0,21.7408676 C0,26.684988 4.04899763,43.4817352 9.04368932,43.4817352 Z" id="Oval-3" fill="url(#linearGradient-1)"></path>
                        <path d="M9.04368932,30.6929895 C14.038381,30.6929895 18.0873786,13.8962424 18.0873786,8.95212194 C18.0873786,4.00800152 14.038381,0 9.04368932,0 C4.04899763,0 0,4.00800152 0,8.95212194 C0,13.8962424 4.04899763,30.6929895 9.04368932,30.6929895 Z" id="Oval-3" fill="url(#linearGradient-2)" opacity="0" transform="translate(9.043689, 15.346495) scale(1, -1) translate(-9.043689, -15.346495) "></path>
                    </g>
                    <ellipse id="Oval-3" fill="#AAAAAA" cx="220.063107" cy="107.028539" rx="9.04368932" ry="9.03082192"></ellipse>
                    <path d="M175.179612,141.479452 C180.174303,141.479452 184.223301,124.639636 184.223301,119.682839 C184.223301,114.726041 180.174303,110.707763 175.179612,110.707763 C170.18492,110.707763 166.135922,114.726041 166.135922,119.682839 C166.135922,124.639636 170.18492,141.479452 175.179612,141.479452 Z" id="Oval-3" fill="url(#linearGradient-1)"></path>
                    <ellipse id="Oval-3" fill="#AAAAAA" cx="175.179612" cy="119.738584" rx="9.04368932" ry="9.03082192"></ellipse>
                    <ellipse id="Oval-3" fill="#AAAAAA" cx="175.179612" cy="81.6084475" rx="9.04368932" ry="9.03082192"></ellipse>
                    <ellipse id="Oval-3" fill="#AAAAAA" cx="169.150485" cy="49.4988584" rx="9.04368932" ry="9.03082192"></ellipse>
                    <ellipse id="Oval-3" fill="#AAAAAA" cx="143.694175" cy="24.0787671" rx="9.04368932" ry="9.03082192"></ellipse>
                    <ellipse id="Oval-3" fill="#AAAAAA" cx="92.1116505" cy="30.7682648" rx="9.04368932" ry="9.03082192"></ellipse>
                    <ellipse id="Oval-3" fill="#AAAAAA" cx="130.966019" cy="62.2089041" rx="9.04368932" ry="9.03082192"></ellipse>
                    <ellipse id="Oval-3" fill="#AAAAAA" cx="86.0825243" cy="107.028539" rx="9.04368932" ry="9.03082192"></ellipse>
                </g>
                <rect id="Rectangle" fill="#AAAAAA" x="53.592233" y="14.3789954" width="46.8932039" height="33.4474886" rx="3.35"></rect>
                <rect id="Rectangle" fill="#AAAAAA" x="53.592233" y="94.652968" width="46.8932039" height="33.4474886" rx="3.35"></rect>
                <rect id="Rectangle" fill="#AAAAAA" x="53.592233" y="134.789954" width="46.8932039" height="33.4474886" rx="3.35"></rect>
                <rect id="Rectangle" fill="#AAAAAA" x="0" y="14.3789954" width="46.8932039" height="33.4474886" rx="3.35"></rect>
                <rect id="Rectangle" fill="#AAAAAA" x="0" y="54.5159817" width="46.8932039" height="33.4474886" rx="3.35"></rect>
                <rect id="Rectangle" fill="#AAAAAA" x="0" y="134.789954" width="46.8932039" height="33.4474886" rx="3.35"></rect>
                <rect id="Rectangle-Copy" fill="#AAAAAA" x="223.747573" y="121.410959" width="46.8932039" height="33.4474886" rx="3.35"></rect>
                <path d="M250.885362,154.858447 L227.097573,154.858447 C225.247419,154.858447 223.747573,153.358601 223.747573,151.508447 L223.747573,147.673667 L234.492545,136.99019 C239.237214,132.272676 246.929841,132.272676 251.674509,136.99019 C256.419177,141.707703 256.419177,149.356304 251.674509,154.073817 L250.885362,154.858447 Z" id="Combined-Shape" fill="#4A4A4A" opacity="0.55"></path>
                <g id="Group" transform="translate(75.029126, 126.762557)">
                    <path d="M50.9609247,164.728881 C51.2365256,164.420956 51.6370356,164.227169 52.0828069,164.227169 L133.4803,164.227169 C133.926071,164.227169 134.326581,164.420956 134.602182,164.728881 L142.020847,164.728881 C142.575023,164.728881 143.024272,165.17813 143.024272,165.732306 C143.024272,166.286482 142.575023,166.735731 142.020847,166.735731 L134.602182,166.735731 C134.326581,167.043656 133.926071,167.237443 133.4803,167.237443 L52.0828069,167.237443 C51.6370356,167.237443 51.2365256,167.043656 50.9609247,166.735731 L43.5422596,166.735731 C42.9880835,166.735731 42.538835,166.286482 42.538835,165.732306 C42.538835,165.17813 42.9880835,164.728881 43.5422596,164.728881 L50.9609247,164.728881 Z" id="Combined-Shape-Copy-2" fill-opacity="0.15" fill="#000000" style="mix-blend-mode: multiply;"></path>
                    <path d="M40.1941748,95.9942922 L40.1941748,95.9942922 C46.8537637,95.9942922 52.2524272,90.5956287 52.2524272,83.9360398 L52.2524272,27.7785721 C52.2524272,21.1189831 46.8537637,15.7203196 40.1941748,15.7203196 L40.1941748,15.7203196 C33.5345858,15.7203196 28.1359223,21.1189831 28.1359223,27.7785721 L28.1359223,83.9360398 C28.1359223,90.5956287 33.5345858,95.9942922 40.1941748,95.9942922 Z" id="Rectangle-3-Copy-15" fill="#21D9C6" transform="translate(40.194175, 55.857306) rotate(-90.000000) translate(-40.194175, -55.857306) "></path>
                    <path d="M105.732013,74.1986743 C101.022972,69.4963338 101.022972,61.8723336 105.732013,57.1699932 L159.382735,3.59560502 C164.091776,-1.10673542 171.726639,-1.10673542 176.43568,3.59560502 C181.14472,8.29794547 181.14472,15.9219457 176.43568,20.6242861 L122.784957,74.1986743 C118.075916,78.9010147 110.441053,78.9010147 105.732013,74.1986743 Z" id="Rectangle-3-Copy-22" fill="#21D9C6"></path>
                    <path d="M110.868932,147.634316 L110.868932,147.634316 C119.193418,147.634316 125.941748,140.885987 125.941748,132.561501 L125.941748,107.053409 C125.941748,98.728923 119.193418,91.9805936 110.868932,91.9805936 L110.868932,91.9805936 C102.544446,91.9805936 95.7961165,98.728923 95.7961165,107.053409 L95.7961165,132.561501 C95.7961165,140.885987 102.544446,147.634316 110.868932,147.634316 Z" id="Rectangle-3-Copy-16" fill="#21D9C6"></path>
                    <polygon id="Rectangle-3-Copy-17" fill="#32B39F" points="95.7961165 100.007991 125.941748 100.007991 125.941748 126.258707 95.7961165 126.258707"></polygon>
                    <path d="M75.6990291,147.634316 L75.6990291,147.634316 C84.0235153,147.634316 90.7718447,140.885987 90.7718447,132.561501 L90.7718447,107.053409 C90.7718447,98.728923 84.0235153,91.9805936 75.6990291,91.9805936 L75.6990291,91.9805936 C67.374543,91.9805936 60.6262136,98.728923 60.6262136,107.053409 L60.6262136,132.561501 C60.6262136,140.885987 67.374543,147.634316 75.6990291,147.634316 Z" id="Rectangle-3-Copy-18" fill="#21D9C6"></path>
                    <polygon id="Rectangle-3-Copy-19" fill="#32B39F" points="60.6262136 100.007991 90.7718447 100.007991 90.7718447 126.258707 60.6262136 126.258707"></polygon>
                    <path d="M125.941748,110.744555 C122.769913,112.837618 118.969951,114.055936 114.885437,114.055936 L95.7961165,114.055936 L95.7961165,100.007991 L125.941748,100.007991 L125.941748,110.744555 Z" id="Combined-Shape-Copy-4" fill-opacity="0.15" fill="#000000" style="mix-blend-mode: multiply;"></path>
                    <path d="M90.7718447,110.744555 C87.6000096,112.837618 83.8000485,114.055936 79.715534,114.055936 L60.6262136,114.055936 L60.6262136,100.007991 L90.7718447,100.007991 L90.7718447,110.744555 Z" id="Combined-Shape-Copy-5" fill-opacity="0.15" fill="#000000" style="mix-blend-mode: multiply;" transform="translate(75.699029, 107.031963) scale(-1, 1) translate(-75.699029, -107.031963) "></path>
                    <path d="M70.6776699,111.045662 L114.885437,111.045662 C125.98636,111.045662 134.985437,102.046586 134.985437,90.9456621 L134.985437,24.7826484 C134.985437,13.6817249 125.98636,4.6826484 114.885437,4.6826484 L70.6776699,4.6826484 C59.5767464,4.6826484 50.5776699,13.6817249 50.5776699,24.7826484 L50.5776699,90.9456621 C50.5776699,102.046586 59.5767464,111.045662 70.6776699,111.045662 Z" id="Rectangle-3-Copy-20" fill="#39E3CF"></path>
                    <path d="M70.6776699,111.045662 L114.885437,111.045662 C125.98636,111.045662 134.985437,102.046586 134.985437,90.9456621 L134.985437,73.9189498 L50.5776699,73.9189498 L50.5776699,90.9456621 C50.5776699,102.046586 59.5767464,111.045662 70.6776699,111.045662 Z" id="Rectangle-3-Copy-21" fill="#32B39F"></path>
                </g>
            </g>
        </g>
    </g>
</svg>