<svg width="14" height="16" viewBox="0 0 14 16" fill="none" xmlns="http://www.w3.org/2000/svg">
<path fill-rule="evenodd" clip-rule="evenodd" d="M9.68906e-05 9.6836V2.85467L0.00284854 2.85648C2.82133 2.7163 5.07798 2.21294 6.9766 0C8.11104 1.06932 8.99365 1.73779 10.0312 2.16621C11.0786 2.59798 12.263 2.773 14 2.85719V9.70537C13.9966 10.0303 13.8449 13.9212 7.05765 16C7.02035 15.9908 6.97974 15.9908 6.94245 16C-0.050171 13.8581 -0.00120889 9.79237 7.87349e-05 9.68545L9.68906e-05 9.6836ZM3.81856 7.67946C3.1274 6.98515 2.07658 8.0412 2.76773 8.73634L5.64772 11.6328C5.95931 11.9462 6.4723 11.9178 6.7491 11.5752L11.3236 6.47595C11.975 5.74745 10.8719 4.74891 10.2206 5.4774L6.14569 10.02L3.81856 7.67946Z" fill="#37C2AC"/>
</svg>
