<?xml version="1.0" encoding="UTF-8"?>
<svg width="30px" height="27px" viewBox="0 0 30 27" version="1.1" xmlns="http://www.w3.org/2000/svg" xmlns:xlink="http://www.w3.org/1999/xlink">
    <!-- Generator: Sketch 52.4 (67378) - http://www.bohemiancoding.com/sketch -->
    <title>Group 7</title>
    <desc>Created with Sketch.</desc>
    <g id="VideoPlayer-zooming" stroke="none" stroke-width="1" fill="none" fill-rule="evenodd">
        <g id="02.desk.playing" transform="translate(-672.000000, -766.000000)" fill="#FFFFFF">
            <g id="Group-5" transform="translate(415.000000, 749.000000)">
                <g id="Group-7" transform="translate(257.000000, 17.000000)">
                    <path d="M29.7114129,17.4273399 L26.7103569,13.3308387 C26.2387354,12.693344 25.4285069,12.4572051 24.6868092,12.7602367 L19.965198,14.7750745 C19.1220532,15.1449987 18.7176134,16.1182997 19.0877878,16.9578155 C19.4593111,17.7973313 20.4368195,18.2000302 21.2799644,17.8314492 L22.7976251,17.1939545 C21.2799644,20.9220761 17.6045273,23.4731966 13.4559174,23.4731966 C7.89116133,23.4731966 3.37257942,18.9740637 3.37257942,13.4332597 C3.37257942,7.89245561 7.89116133,3.39332272 13.4559174,3.39332272 C16.3897917,3.39332272 19.1893024,4.66965533 21.1113354,6.91928894 C21.7186695,7.62501947 22.7633597,7.69191209 23.472141,7.08719209 C24.1809223,6.48247209 24.2481041,5.44227848 23.64077,4.73654795 C21.1113354,1.7116719 17.401498,1.3500312e-13 13.4559174,1.3500312e-13 C6.03624265,1.3500312e-13 -4.26325641e-14,6.01026127 -4.26325641e-14,13.398 C-4.26325641e-14,20.7857387 6.03624265,26.796 13.4559174,26.796 C19.1221881,26.796 24.1139429,23.2357815 26.0359759,18.0992883 L26.9463025,19.3756209 C27.2835605,19.8124377 27.7894474,20.0813514 28.2953343,20.0813514 C28.6325922,20.0813514 28.9698502,19.9803476 29.2728427,19.7796496 C30.0830375,19.2077379 30.2516664,18.166201 29.7115478,17.4276958 L29.7114129,17.4273399 Z" id="Path" transform="translate(15.012039, 13.398000) scale(1, -1) translate(-15.012039, -13.398000) "></path>
                    <path d="M12.7595,12.319 C14.0421731,12.319 14.9889969,12.5746641 15.6,13.086 C16.2110031,13.5973359 16.5165,14.2819957 16.5165,15.14 C16.5165,15.6946694 16.3778347,16.1994977 16.1005,16.6545 C15.8231653,17.1095023 15.4006695,17.4734986 14.833,17.7465 C14.2653305,18.0195014 13.5655042,18.156 12.7335,18.156 C12.0921635,18.156 11.4616698,18.0715008 10.842,17.9025 C10.2223302,17.7334992 9.6958355,17.4930016 9.2625,17.181 L10.0945,15.569 C10.4411684,15.8290013 10.8398311,16.0304993 11.2905,16.1735 C11.7411689,16.3165007 12.2048309,16.388 12.6815,16.388 C13.2101693,16.388 13.6261652,16.284001 13.9295,16.076 C14.2328348,15.867999 14.3845,15.5776685 14.3845,15.205 C14.3845,14.814998 14.2263349,14.5203343 13.91,14.321 C13.5936651,14.1216657 13.0455039,14.022 12.2655,14.022 L9.9385,14.022 L10.4065,8.9 L15.9575,8.9 L15.9575,10.59 L12.1615,10.59 L12.0185,12.319 L12.7595,12.319 Z" id="5"></path>
                </g>
            </g>
        </g>
    </g>
</svg>