<?xml version="1.0" encoding="UTF-8"?>
<svg width="266px" height="266px" viewBox="0 0 266 266" version="1.1" xmlns="http://www.w3.org/2000/svg" xmlns:xlink="http://www.w3.org/1999/xlink">
    <!-- Generator: Sketch 58 (84663) - https://sketch.com -->
    <title>Group</title>
    <desc>Created with Sketch.</desc>
    <g id="Play-Loader" stroke="none" stroke-width="1" fill="none" fill-rule="evenodd">
        <g id="d.video" transform="translate(-587.000000, -302.000000)">
            <g id="Group" transform="translate(587.000000, 302.000000)">
                <g id="play" transform="translate(8.000000, 8.000000)">
                    <circle id="Oval" fill="#222222" opacity="0.5" cx="125" cy="125" r="125"></circle>
                    <polygon id="Page-1-Copy-3" fill="#FFFFFF" transform="translate(140.337423, 125.000000) scale(-1, 1) translate(-140.337423, -125.000000) " points="192.484663 72.8527607 192.484663 177.147239 88.190184 125"></polygon>
                </g>
                <path d="M133,266 C59.5461283,266 0,206.453872 0,133 C0,59.5461283 59.5461283,0 133,0 L133,8 C63.9644063,8 8,63.9644063 8,133 C8,202.035594 63.9644063,258 133,258 C202.035594,258 258,202.035594 258,133 L266,133 C266,206.453872 206.453872,266 133,266 Z" id="loader" fill="#FFFFFF"></path>
            </g>
        </g>
    </g>
</svg>