<?xml version="1.0" encoding="UTF-8"?>
<svg width="21px" height="26px" viewBox="0 0 21 26" version="1.1" xmlns="http://www.w3.org/2000/svg" xmlns:xlink="http://www.w3.org/1999/xlink">
    <!-- Generator: Sketch 59 (86127) - https://sketch.com -->
    <title>icon-players</title>
    <desc>Created with Sketch.</desc>
    <g id="Page-1" stroke="none" stroke-width="1" fill="none" fill-rule="evenodd">
        <g id="m.video-P1" transform="translate(-228.000000, -290.000000)" fill="#FFFFFF" fill-rule="nonzero">
            <g id="Group-9" transform="translate(13.000000, 278.000000)">
                <g id="Group-5" transform="translate(200.000000, 0.000000)">
                    <g id="icon-players" transform="translate(15.000000, 12.000000)">
                        <path d="M4.68934884,5.3478566 C4.68934884,7.5726717 1.36802791,7.5726717 1.36802791,5.3478566 C1.36802791,3.12304151 4.68934884,3.12304151 4.68934884,5.3478566" id="Path"></path>
                        <path d="M4.20097674,7.50536604 L1.80873488,7.50536604 C0.881609302,7.50536604 0.149051163,8.24121509 0.149051163,9.17250566 L0.149051163,12.6064679 C0.149051163,13.4400377 0.734706977,14.078166 1.51688372,14.2736075 L1.51688372,18.0026943 C1.51688372,18.6887019 2.10253953,19.2291094 2.73781395,19.2291094 L3.27580465,19.2291094 C3.95874419,19.2291094 4.49673488,18.6408226 4.49673488,18.0026943 L4.49673488,14.2736075 C5.27891163,14.1260551 5.86456744,13.3901962 5.86456744,12.6064679 L5.86456744,9.17250566 C5.86075228,8.29100755 5.1282,7.50536604 4.20107442,7.50536604 L4.20097674,7.50536604 Z" id="Path"></path>
                        <polygon id="Path" points="-3.46389584e-14 19.8695925 6.00746512 19.8695925 6.00746512 25.9040453 -3.46389584e-14 25.9040453"></polygon>
                        <path d="M11.9153023,1.66861132 C11.9153023,3.89342642 8.59588605,3.89342642 8.59588605,1.66861132 C8.59588605,-0.556203774 11.9153023,-0.556203774 11.9153023,1.66861132" id="Path"></path>
                        <path d="M9.08450233,3.82612075 C8.15737674,3.82612075 7.4248186,4.56196981 7.4248186,5.49326038 L7.4248186,8.92722264 C7.4248186,9.76079245 8.01047442,10.3989208 8.79265116,10.5943623 L8.79265116,14.3234491 C8.79265116,15.0094566 9.37830698,15.5498642 10.0135814,15.5498642 L10.5515721,15.5498642 C11.2345116,15.5498642 11.7725023,14.9615774 11.7725023,14.3234491 L11.7725023,10.5943623 C12.5546791,10.4468098 13.1403349,9.71095094 13.1403349,8.92722264 L13.1403349,5.49326038 C13.1365197,4.61176226 12.3562535,3.82612075 11.4768419,3.82612075 L9.08450233,3.82612075 Z" id="Path"></path>
                        <polygon id="Path" points="7.27576744 16.1903472 13.2832326 16.1903472 13.2832326 25.9040453 7.27576744 25.9040453"></polygon>
                        <path d="M19.1935116,8.29125283 C19.1935116,10.5160679 15.8721907,10.5160679 15.8721907,8.29125283 C15.8721907,6.06643774 19.1935116,6.06643774 19.1935116,8.29125283" id="Path"></path>
                        <path d="M18.7525116,10.4487623 L16.3602698,10.4487623 C15.4331442,10.4487623 14.700586,11.1846113 14.700586,12.1159019 L14.700586,15.5498642 C14.700586,16.383434 15.2862419,17.0215623 16.0684186,17.2170038 L16.0684186,20.9460906 C16.0684186,21.6320981 16.6540744,22.1725057 17.2893488,22.1725057 L17.8273395,22.1725057 C18.5102791,22.1725057 19.0482698,21.5842189 19.0482698,20.9460906 L19.0482698,17.2170038 C19.8304465,17.0694513 20.4161023,16.3335925 20.4161023,15.5498642 L20.4161023,12.1159019 C20.4141943,11.2344038 19.6320209,10.4487623 18.7526093,10.4487623 L18.7525116,10.4487623 Z" id="Path"></path>
                        <polygon id="Path" points="14.5539767 22.8129887 20.5614419 22.8129887 20.5614419 25.9039472 14.5539767 25.9039472"></polygon>
                    </g>
                </g>
            </g>
        </g>
    </g>
</svg>