<?xml version="1.0" encoding="UTF-8"?>
<svg width="32px" height="27px" viewBox="0 0 32 27" version="1.1" xmlns="http://www.w3.org/2000/svg" xmlns:xlink="http://www.w3.org/1999/xlink">
    <!-- Generator: Sketch 52.6 (67491) - http://www.bohemiancoding.com/sketch -->
    <title>ico-feedback</title>
    <desc>Created with Sketch.</desc>
    <g id="Page-1" stroke="none" stroke-width="1" fill="none" fill-rule="evenodd">
        <g id="m.video-P1" transform="translate(-272.000000, -290.000000)" fill="#FFFFFF" fill-rule="nonzero">
            <g id="Group-9" transform="translate(13.000000, 278.000000)">
                <g id="Group-3" transform="translate(250.000000, 0.000000)">
                    <g id="feedback" transform="translate(9.000000, 12.000000)">
                        <g id="ico-feedback">
                            <path d="M1.93675317,27 L1.15853783,27 C0.518810228,27 -1.33226763e-14,26.4183685 -1.33226763e-14,25.7011782 L-1.33226763e-14,16.2011975 C-1.33226763e-14,15.4840072 0.518810228,14.9023757 1.15853783,14.9023757 L1.93675317,14.9023757 C2.57648077,14.9023757 3.09529099,15.4840072 3.09529099,16.2011975 L3.09529099,25.7011782 C3.09596648,26.4373103 2.57715522,27 1.93675317,27 Z M13.5586211,27 L5.01520012,27 C4.37547252,27 3.8566623,26.4183685 3.8566623,25.7011782 L3.8566623,15.7165047 C3.8566623,15.3673707 3.97758313,15.0379346 4.20253578,14.8054371 L6.07042554,12.71137 C6.13933045,12.6341216 6.19134637,12.5174928 6.19134637,12.4008563 L6.19134637,9.29882184 C6.19134637,8.58163147 6.7101566,8 7.34988419,8 C8.83741688,8 10.0480433,9.35714009 10.0480433,11.0248714 L10.0480433,13.9132532 C10.0480433,14.048816 10.0304798,14.1843711 9.99602734,14.3207055 L9.8230906,14.9220349 L15.8414622,14.9220349 C16.4811898,14.9220349 17,15.5036663 17,16.2208567 L17,23.2202098 C17,23.5693437 16.8790792,23.8987798 16.6541265,24.1312773 L14.4059489,26.6319048 C14.1465437,26.8833441 13.8695683,26.9999612 13.5588355,26.9999612 L13.5586211,27 Z" id="Combined-Shape"></path>
                            <path d="M30.0632468,8.8817842e-14 L30.8414622,8.8817842e-14 C31.4811898,8.8817842e-14 32,0.581631466 32,1.29882184 L32,10.7988025 C32,11.5159928 31.4811898,12.0976243 30.8414622,12.0976243 L30.0632468,12.0976243 C29.4235192,12.0976243 28.904709,11.5159928 28.904709,10.7988025 L28.904709,1.29882184 C28.9040335,0.562689668 29.4228448,8.8817842e-14 30.0632468,8.8817842e-14 Z M18.4413789,0 L26.9847999,0 C27.6245275,0 28.1433377,0.581631466 28.1433377,1.29882184 L28.1433377,11.2834953 C28.1433377,11.6326293 28.0224169,11.9620654 27.7974642,12.1945629 L25.9295745,14.28863 C25.8606695,14.3658784 25.8086536,14.4825072 25.8086536,14.5991437 L25.8086536,17.7011782 C25.8086536,18.4183685 25.2898434,19 24.6501158,19 C23.1625831,19 21.9519567,17.6428599 21.9519567,15.9751286 L21.9519567,13.0867468 C21.9519567,12.951184 21.9695202,12.8156289 22.0039727,12.6792945 L22.1769094,12.0779651 L16.1585378,12.0779651 C15.5188102,12.0779651 15,11.4963337 15,10.7791433 L15,3.77979025 C15,3.43065626 15.1209208,3.1012202 15.3458735,2.86872272 L17.5940511,0.368095167 C17.8534563,0.116655884 18.1304317,3.87754311e-05 18.4411645,3.87754311e-05 L18.4413789,0 Z" id="Combined-Shape"></path>
                        </g>
                    </g>
                </g>
            </g>
        </g>
    </g>
</svg>