<?xml version="1.0" encoding="UTF-8"?>
<svg width="123px" height="162px" viewBox="0 0 123 162" version="1.1" xmlns="http://www.w3.org/2000/svg" xmlns:xlink="http://www.w3.org/1999/xlink">
    <!-- Generator: Sketch 51.1 (57501) - http://www.bohemiancoding.com/sketch -->
    <title>waving_tracebot</title>
    <desc>Created with Sketch.</desc>
    <defs></defs>
    <g id="Final-Stuff" stroke="none" stroke-width="1" fill="none" fill-rule="evenodd">
        <g id="d01a_home_empty" transform="translate(-669.000000, -191.000000)">
            <g id="waving_tracebot" transform="translate(669.000000, 191.000000)">
                <path d="M9.38194675,159.5 C9.65660702,159.193125 10.0557501,159 10.5,159 L91.5,159 C91.9442499,159 92.343393,159.193125 92.6180533,159.5 L119,159.5 C119.552285,159.5 120,159.947715 120,160.5 C120,161.052285 119.552285,161.5 119,161.5 L92.6180533,161.5 C92.343393,161.806875 91.9442499,162 91.5,162 L10.5,162 C10.0557501,162 9.65660702,161.806875 9.38194675,161.5 L2,161.5 C1.44771525,161.5 1,161.052285 1,160.5 C1,159.947715 1.44771525,159.5 2,159.5 L9.38194675,159.5 Z" id="Combined-Shape-Copy-2" fill-opacity="0.15" fill="#000000" style="mix-blend-mode: multiply;"></path>
                <path d="M12,109 L12,109 C18.627417,109 24,103.627417 24,97 L24,41 C24,34.372583 18.627417,29 12,29 L12,29 C5.372583,29 2.58798134e-15,34.372583 1.77635684e-15,41 L1.77635684e-15,97 C9.64732338e-16,103.627417 5.372583,109 12,109 Z" id="Rectangle-3-Copy-15" fill="#21D9C6"></path>
                <path d="M69,142.463778 L69,142.463778 C77.2842712,142.463778 84,135.74805 84,127.463778 L84,102 C84,93.7157288 77.2842712,87 69,87 L69,87 C60.7157288,87 54,93.7157288 54,102 L54,127.463778 C54,135.74805 60.7157288,142.463778 69,142.463778 Z" id="Rectangle-3-Copy-16" fill="#21D9C6"></path>
                <polygon id="Rectangle-3-Copy-17" fill="#32B39F" points="54 95 84 95 84 121.161123 54 121.161123"></polygon>
                <path d="M34,142.463778 L34,142.463778 C42.2842712,142.463778 49,135.74805 49,127.463778 L49,102 C49,93.7157288 42.2842712,87 34,87 L34,87 C25.7157288,87 19,93.7157288 19,102 L19,127.463778 C19,135.74805 25.7157288,142.463778 34,142.463778 Z" id="Rectangle-3-Copy-18" fill="#21D9C6"></path>
                <polygon id="Rectangle-3-Copy-19" fill="#32B39F" points="19 95 49 95 49 121.161123 19 121.161123"></polygon>
                <path d="M69.1181117,72.7991281 C63.6892495,68.9977979 62.3698741,61.5152485 66.1712044,56.0863864 L101.159367,6.11811165 C104.960697,0.68924947 112.443247,-0.630125867 117.872109,3.17120436 C123.300971,6.97253458 124.620346,14.4550839 120.819016,19.8839461 L85.8308534,69.8522208 C82.0295232,75.281083 74.5469738,76.6004583 69.1181117,72.7991281 Z" id="Combined-Shape-Copy-3" fill="#21D9C6"></path>
                <path d="M84,105.705954 C80.8442078,107.788077 77.0636338,109 73,109 L54,109 L54,95 L84,95 L84,105.705954 Z" id="Combined-Shape-Copy-4" fill-opacity="0.15" fill="#000000" style="mix-blend-mode: multiply;"></path>
                <path d="M49,105.705954 C45.8442078,107.788077 42.0636338,109 38,109 L19,109 L19,95 L49,95 L49,105.705954 Z" id="Combined-Shape-Copy-5" fill-opacity="0.15" fill="#000000" style="mix-blend-mode: multiply;" transform="translate(34.000000, 102.000000) scale(-1, 1) translate(-34.000000, -102.000000) "></path>
                <path d="M29,106 L73,106 C84.045695,106 93,97.045695 93,86 L93,20 C93,8.954305 84.045695,0 73,0 L29,0 C17.954305,0 9,8.954305 9,20 L9,86 C9,97.045695 17.954305,106 29,106 Z" id="Rectangle-3-Copy-20" fill="#39E3CF"></path>
                <path d="M29,106 L73,106 C84.045695,106 93,97.045695 93,86 L93,69 L9,69 L9,86 C9,97.045695 17.954305,106 29,106 Z" id="Rectangle-3-Copy-21" fill="#32B39F"></path>
                <path d="M45,20.5 C45,22.9862464 42.9862464,25 40.5,25 C38.0137536,25 36,22.9862464 36,20.5 C36,18.0137536 38.0137536,16 40.5,16 C42.9862464,16 45,18.0137536 45,20.5" id="Shape" fill="#2B9988" fill-rule="nonzero"></path>
                <path d="M66,20.5 C66,22.9862464 63.9862464,25 61.5,25 C59.0137536,25 57,22.9862464 57,20.5 C57,18.0137536 59.0137536,16 61.5,16 C63.9862464,16 66,18.0137536 66,20.5" id="Shape" fill="#2B9988" fill-rule="nonzero"></path>
                <path d="M60,34 C58.3862069,37.0518053 54.9724138,39.1428571 51,39.1428571 C47.0275862,39.1428571 43.6137931,37.0518053 42,34" id="Shape-Copy" fill="#2B9988"></path>
            </g>
        </g>
    </g>
</svg>