<svg width="24px" height="24px" viewBox="0 0 24 24" version="1.1" xmlns="http://www.w3.org/2000/svg" xmlns:xlink="http://www.w3.org/1999/xlink">
    <!-- Generator: Sketch 48.2 (47327) - http://www.bohemiancoding.com/sketch -->
    <desc>Created with Sketch.</desc>
    <defs></defs>
    <g id="Symbols" stroke="none" stroke-width="1" fill="none" fill-rule="evenodd">
        <g id="module/gameInfo" transform="translate(-44.000000, -45.000000)" fill="#9B9B9B" fill-rule="nonzero">
            <g id="Group" transform="translate(44.000000, 45.000000)">
                <g id="calendar-2">
                    <rect id="Rectangle-path" x="12" y="16" width="4" height="3"></rect>
                    <rect id="Rectangle-path" x="7" y="16" width="4" height="3"></rect>
                    <rect id="Rectangle-path" x="12" y="12" width="4" height="3"></rect>
                    <rect id="Rectangle-path" x="7" y="12" width="4" height="3"></rect>
                    <path d="M0,23.5 C0,23.776 0.224,24 0.5,24 L23.5,24 C23.776,24 24,23.776 24,23.5 L24,8 L0,8 L0,23.5 Z M2.5,16 C2.224,16 2,15.776 2,15.5 C2,15.224 2.224,15 2.5,15 L6,15 L6,12 L2.5,12 C2.224,12 2,11.776 2,11.5 C2,11.224 2.224,11 2.5,11 L6,11 L6,9.5 C6,9.224 6.224,9 6.5,9 C6.776,9 7,9.224 7,9.5 L7,11 L11,11 L11,9.5 C11,9.224 11.224,9 11.5,9 C11.776,9 12,9.224 12,9.5 L12,11 L16,11 L16,9.5 C16,9.224 16.224,9 16.5,9 C16.776,9 17,9.224 17,9.5 L17,11 L21.5,11 C21.776,11 22,11.224 22,11.5 C22,11.776 21.776,12 21.5,12 L17,12 L17,15 L21.5,15 C21.776,15 22,15.224 22,15.5 C22,15.776 21.776,16 21.5,16 L17,16 L17,19 L21.5,19 C21.776,19 22,19.224 22,19.5 C22,19.776 21.776,20 21.5,20 L17,20 L17,21.5 C17,21.776 16.776,22 16.5,22 C16.224,22 16,21.776 16,21.5 L16,20 L12,20 L12,21.5 C12,21.776 11.776,22 11.5,22 C11.224,22 11,21.776 11,21.5 L11,20 L7,20 L7,21.5 C7,21.776 6.776,22 6.5,22 C6.224,22 6,21.776 6,21.5 L6,20 L2.5,20 C2.224,20 2,19.776 2,19.5 C2,19.224 2.224,19 2.5,19 L6,19 L6,16 L2.5,16 Z" id="Shape"></path>
                    <path d="M23.5,2 L20,2 L20,0.5 C20,0.224 19.776,0 19.5,0 L16.5,0 C16.224,0 16,0.224 16,0.5 L16,2 L8,2 L8,0.5 C8,0.224 7.776,0 7.5,0 L4.5,0 C4.224,0 4,0.224 4,0.5 L4,2 L0.5,2 C0.224,2 0,2.224 0,2.5 L0,7 L24,7 L24,2.5 C24,2.224 23.776,2 23.5,2 Z M7,4 L5,4 L5,1 L7,1 L7,4 Z M19,4 L17,4 L17,1 L19,1 L19,4 Z" id="Shape"></path>
                </g>
            </g>
        </g>
    </g>
</svg>