<svg width="24px" height="23px" viewBox="0 0 24 23" version="1.1" xmlns="http://www.w3.org/2000/svg" xmlns:xlink="http://www.w3.org/1999/xlink">
    <!-- Generator: Sketch 48.2 (47327) - http://www.bohemiancoding.com/sketch -->
    <desc>Created with Sketch.</desc>
    <defs></defs>
    <g id="Symbols" stroke="none" stroke-width="1" fill="none" fill-rule="evenodd">
        <g id="module/gameInfo" transform="translate(-234.000000, -45.000000)" fill="#9B9B9B" fill-rule="nonzero">
            <g id="alarm-clock" transform="translate(234.000000, 45.000000)">
                <path d="M19.5,0 C17.715,0 16.175,1.047 15.448,2.557 C18.307,3.503 20.651,5.59 21.934,8.279 C23.175,7.477 24,6.084 24,4.5 C24,2.019 21.981,0 19.5,0 Z" id="Shape"></path>
                <path d="M8.988,2.423 C8.236,0.984 6.732,0 5,0 C2.519,0 0.5,2.019 0.5,4.5 C0.5,5.923 1.166,7.19 2.199,8.016 C3.575,5.321 6.028,3.268 8.988,2.423 Z" id="Shape"></path>
                <path d="M12,3 C6.486,3 2,7.486 2,13 C2,18.514 6.486,23 12,23 C17.514,23 22,18.514 22,13 C22,7.486 17.514,3 12,3 Z M13,13.5 C13,13.776 12.776,14 12.5,14 L8.5,14 C8.224,14 8,13.776 8,13.5 C8,13.224 8.224,13 8.5,13 L12,13 L12,7.5 C12,7.224 12.224,7 12.5,7 C12.776,7 13,7.224 13,7.5 L13,13.5 Z" id="Shape"></path>
                <path d="M18.821,21.614 C18.557,21.824 18.284,22.023 18.001,22.208 L18.647,22.854 C18.842,23.049 19.159,23.049 19.354,22.854 C19.549,22.659 19.549,22.342 19.354,22.147 L18.821,21.614 Z" id="Shape"></path>
                <path d="M5.179,21.614 L4.646,22.147 C4.451,22.342 4.451,22.659 4.646,22.854 C4.841,23.049 5.158,23.049 5.353,22.854 L5.999,22.208 C5.716,22.022 5.443,21.824 5.179,21.614 Z" id="Shape"></path>
            </g>
        </g>
    </g>
</svg>