<svg width="22px" height="21px" viewBox="0 0 22 21" version="1.1" xmlns="http://www.w3.org/2000/svg" xmlns:xlink="http://www.w3.org/1999/xlink">
    <!-- Generator: Sketch 48.2 (47327) - http://www.bohemiancoding.com/sketch -->
    <desc>Created with Sketch.</desc>
    <defs></defs>
    <g id="Symbols" stroke="none" stroke-width="1" fill="none" fill-rule="evenodd" opacity="0.35">
        <g id="Menu" transform="translate(-25.000000, -23.000000)" fill="#000000" fill-rule="nonzero">
            <g id="np_download_1119430_000000" transform="translate(25.000000, 23.000000)">
                <path d="M2.47408333,21 L19.570375,21 C20.854075,21 21.8620417,19.9960174 21.8620417,18.7173913 L21.8620417,16.2065217 C21.8620417,15.4308 21.2658417,14.8369565 20.4870417,14.8369565 C19.7082417,14.8369565 19.1120417,15.4308 19.1120417,16.2065217 L19.1120417,18.2608696 L2.93241667,18.2608696 L2.93241667,16.2065217 C2.93241667,15.4308 2.33621667,14.8369565 1.55741667,14.8369565 C0.778616667,14.8369565 0.182416667,15.4308 0.182416667,16.2065217 L0.182416667,18.7173913 C0.182416667,19.9960174 1.19217083,21 2.47408333,21 Z" id="Shape"></path>
                <path d="M11,-1.93082265e-15 C10.2212,-1.93082265e-15 9.625,0.593843478 9.625,1.36956522 L9.625,10.4534348 L7.24203333,8.07988696 C6.6924,7.53242609 5.82046667,7.53242609 5.3174,8.07988696 C4.76776667,8.62734783 4.76776667,9.49583478 5.3174,9.99691304 L10.0386917,14.6995435 C10.1765492,14.8368561 10.3144067,14.9278043 10.497025,15.0187526 C10.6796433,15.1097009 10.8175008,15.1097009 11.001925,15.1097009 C11.1845433,15.1097009 11.3689492,15.0633365 11.506825,15.0187526 C11.6446825,14.9723883 11.8273008,14.8368561 11.9651583,14.6995435 L16.68645,9.99691304 C17.2360833,9.44945217 17.2360833,8.58096522 16.68645,8.07988696 C16.1368167,7.53242609 15.2648833,7.53242609 14.7618167,8.07988696 L12.375275,10.4534348 L12.375275,1.36956522 C12.375275,0.593843478 11.779075,-3.55271368e-15 11.000275,-3.55271368e-15 L11,-1.93082265e-15 Z" id="Shape"></path>
            </g>
        </g>
    </g>
</svg>