<svg width="6px" height="22px" viewBox="0 0 6 22" version="1.1" xmlns="http://www.w3.org/2000/svg" xmlns:xlink="http://www.w3.org/1999/xlink">
    <!-- Generator: Sketch 49 (51002) - http://www.bohemiancoding.com/sketch -->
    <desc>Created with Sketch.</desc>
    <defs></defs>
    <g id="Symbols" stroke="none" stroke-width="1" fill="none" fill-rule="evenodd">
        <g id="module/team_m" transform="translate(-294.000000, -38.000000)" fill="#37C2AC" fill-rule="nonzero">
            <g id="icon/more_teal" transform="translate(285.000000, 37.000000)">
                <path d="M12.1293073,6.49756098 C13.4506507,6.49756098 14.5293073,5.3964415 14.5293073,4.09756098 C14.5293073,2.79868045 13.4281878,1.69756098 12.1293073,1.69756098 C10.807964,1.69756098 9.72930732,2.79868045 9.72930732,4.09756098 C9.72930732,5.3964415 10.8304268,6.49756098 12.1293073,6.49756098 Z" id="Shape" transform="translate(12.129307, 4.097561) rotate(90.000000) translate(-12.129307, -4.097561) "></path>
                <path d="M12.1293073,14.4268683 C13.4506507,14.4268683 14.5293073,13.3257488 14.5293073,12.0268683 C14.5293073,10.7279878 13.4281878,9.62686829 12.1293073,9.62686829 C10.807964,9.62686829 9.72930732,10.7279878 9.72930732,12.0268683 C9.72930732,13.3257488 10.808052,14.4268683 12.1293073,14.4268683 Z" id="Shape" transform="translate(12.129307, 12.026868) rotate(90.000000) translate(-12.129307, -12.026868) "></path>
                <path d="M12.1293073,17.5561756 C10.807964,17.5561756 9.72930732,18.6572951 9.72930732,19.9561756 C9.72930732,21.2550561 10.8304268,22.3561756 12.1293073,22.3561756 C13.4506507,22.3561756 14.5293073,21.2550561 14.5293073,19.9561756 C14.5293073,18.6572951 13.4281878,17.5561756 12.1293073,17.5561756 Z" id="Shape" transform="translate(12.129307, 19.956176) rotate(90.000000) translate(-12.129307, -19.956176) "></path>
            </g>
        </g>
    </g>
</svg>