<svg width="40px" height="35px" viewBox="0 0 40 35" version="1.1" xmlns="http://www.w3.org/2000/svg" xmlns:xlink="http://www.w3.org/1999/xlink">
    <!-- Generator: Sketch 48.2 (47327) - http://www.bohemiancoding.com/sketch -->
    <desc>Created with Sketch.</desc>
    <defs></defs>
    <g id="Page-1" stroke="none" stroke-width="1" fill="none" fill-rule="evenodd">
        <g id="d06c_newGame_jersey" transform="translate(-845.000000, -132.000000)">
            <g id="Group-11-Copy" transform="translate(840.000000, 120.000000)">
                <g id="Group-10" transform="translate(2.000000, 2.000000)">
                    <g id="Group-13" transform="translate(3.000000, 10.000000)">
                        <path d="M14.8316252,9.85836077e-05 L14.8319981,0.00150914105 L14.8319981,1 L14.8315991,1 L14.8315991,0.000105473598 L14.8316252,9.85836077e-05 Z M14.2425207,1.22566785 C12.0091677,1.97108692 7.79616721,3.71071955 6.90093388,4.33580378 C6.85488044,4.42556833 6.79252289,4.55355285 6.71448339,4.71859478 C6.55988659,5.04554401 6.35327008,5.49697028 6.04102398,6.18789845 C5.92386715,6.44713931 5.3016629,7.82812822 5.11324791,8.24499673 C4.71209054,9.13255816 4.37168378,9.87956104 4.04113364,10.5954496 C3.91570596,10.8670945 3.79358821,11.1301131 3.67431195,11.3854271 C2.7273,13.4125317 1.96811887,14.9385035 1.3978985,15.9277427 C1.46225229,15.9571683 1.5300987,15.9878053 1.60132104,16.0195951 C2.28277826,16.3237611 3.24160734,16.7201079 4.43434599,17.1945271 C4.62837105,17.2716135 4.62837105,17.2716135 4.82293726,17.3485845 C6.05508538,17.835539 9.17160375,19.0357737 9.0552822,18.9900655 L9.68955749,19.239302 L9.68955749,37 L30.2105097,37 L30.2105097,19.239631 L30.8443669,18.99023 C30.768521,19.0200727 33.8539018,17.8318837 35.0774736,17.3484197 C35.272056,17.2714583 35.272056,17.2714583 35.4660966,17.1943819 C36.6588186,16.7200685 37.6170899,16.3240218 38.2982999,16.0199826 C38.3703522,15.9878241 38.4389494,15.9568448 38.5039711,15.927105 C37.9207748,14.915903 37.1657843,13.3974456 36.2257084,11.3852212 C36.106468,11.1299879 35.9843878,10.8670557 35.8590002,10.5955041 C35.5284322,9.87959399 35.1880017,9.13255891 34.786844,8.2450214 C34.5982992,7.8278773 33.9760298,6.44678012 33.8590325,6.18789799 C33.5467627,5.4969325 33.340151,5.0455226 33.1855569,4.71857692 C33.1074248,4.5533382 33.0450128,4.42524476 32.9989442,4.33546153 C32.1074974,3.71249032 27.8951748,1.97359564 25.6578449,1.2262377 C23.5991433,5.13035282 16.3011794,5.12905782 14.2425207,1.22566785 Z M6.8381005,4.3821267 C6.82439563,4.3929029 6.81194368,4.40325511 6.80078124,4.41316876 C6.83960727,4.37880541 6.86278567,4.36045959 6.87714344,4.34990471 Z M6.90855749,4.32103937 C6.90960636,4.31900682 6.9108285,4.31661963 6.91230343,4.31378202 C6.91125418,4.31580066 6.91019532,4.31784183 6.90912686,4.31990549 Z" id="Shape-Copy-2" stroke="#CCCCCC" stroke-width="2" fill-rule="nonzero"></path>
                        <text id="?" font-family=".AppleSystemUIFont" font-size="18" font-weight="normal" fill="#CCCCCC">
                            <tspan x="15.9010742" y="24">?</tspan>
                        </text>
                    </g>
                </g>
            </g>
        </g>
    </g>
</svg>