<svg width="40px" height="36px" viewBox="0 0 40 36" version="1.1" xmlns="http://www.w3.org/2000/svg" xmlns:xlink="http://www.w3.org/1999/xlink">
    <!-- Generator: Sketch 48.2 (47327) - http://www.bohemiancoding.com/sketch -->
    <desc>Created with Sketch.</desc>
    <defs></defs>
    <g id="Page-1" stroke="none" stroke-width="1" fill="none" fill-rule="evenodd">
        <g id="d06c_newGame_jersey" transform="translate(-555.000000, -132.000000)" fill="#E91E63" fill-rule="nonzero">
            <g id="Group-11" transform="translate(550.000000, 120.000000)">
                <g id="Group-10" transform="translate(2.000000, 2.000000)">
                    <path d="M17.868771,10 C16.3484917,10.4009292 10.1409779,12.7894379 9.15340429,13.6643373 C8.87528773,13.9098716 4.62392551,24.0312901 3.00356888,26.2611059 C2.81294998,26.5641381 10.3157732,29.3737776 11.7113358,29.9207886 L11.7113358,48 L34.2887316,48 L34.2887316,29.9207886 C35.6824543,29.3737776 43.1852935,26.5656816 42.9964985,26.2611059 C41.3762219,24.0310912 37.1246557,13.9097961 36.8466631,13.6643373 C35.8591695,12.7894379 29.6516557,10.4024808 28.1312964,10 C27.0172462,14.2066142 18.9831412,14.2034316 17.869171,10 L17.868771,10 Z" id="Shape-Copy-2"></path>
                </g>
            </g>
        </g>
    </g>
</svg>