<svg width="23px" height="20px" viewBox="0 0 23 20" version="1.1" xmlns="http://www.w3.org/2000/svg" xmlns:xlink="http://www.w3.org/1999/xlink">
    <!-- Generator: Sketch 49 (51002) - http://www.bohemiancoding.com/sketch -->
    <desc>Created with Sketch.</desc>
    <defs></defs>
    <g id="Symbols" stroke="none" stroke-width="1" fill="none" fill-rule="evenodd">
        <g id="modal/passphrase" transform="translate(-31.000000, -172.000000)" fill="#37C2AC">
            <g id="Group" transform="translate(30.000000, 170.000000)">
                <g id="icon/reload">
                    <g id="Group" transform="translate(1.000000, 2.000000)">
                        <g id="Group-2" fill-rule="nonzero">
                            <path d="M7.52799269,4.03241371 C8.71224099,3.10994081 10.1015504,2.63531532 11.5944712,2.63531532 C15.2998795,2.63531532 18.3119715,5.71874689 18.3119715,9.51485467 L18.3119715,9.5416222 C17.8234073,9.01449483 16.9990453,9.01449483 16.4843337,9.51485467 C15.9696222,10.0152145 15.9696222,10.8594512 16.4581967,11.3865786 L19.3665742,14.4444444 L22.5835213,11.4403455 C23.0982329,10.9399962 23.1494981,10.1225271 22.6609288,9.56862166 C22.1723646,9.04149429 21.37415,8.9889924 20.8332911,9.48934698 C20.8594281,4.24390248 16.7155988,0 11.5947337,0 C9.56203489,0 7.60571928,0.658909217 5.98412058,1.92422576 C5.41814377,2.37207318 5.31458381,3.18954231 5.72676481,3.76917157 C6.16406373,4.34880083 6.96227838,4.48058268 7.52825519,4.03273526 L7.52799269,4.03241371 Z" id="Shape"></path>
                            <path d="M1.27126299,10.8657487 C1.58142433,10.8657487 1.89158566,10.7599588 2.15022587,10.520373 L2.17649337,10.4934078 C2.22902837,15.751837 6.39258736,20 11.5139221,20 C13.5052448,20 15.3935252,19.3632004 16.9968358,18.1684045 C17.5656373,17.7431634 17.6949575,16.8937432 17.2817539,16.3098332 C16.8675157,15.7259232 16.040074,15.5931681 15.4712724,16.0173472 C14.3073915,16.8937432 12.9363915,17.3448981 11.5138186,17.3448981 C7.81500504,17.3448981 4.81555457,14.291531 4.76279197,10.4944698 C5.25379454,10.9985144 6.055993,10.9985144 6.57327341,10.4944698 C7.09055382,9.99042529 7.09055382,9.13994307 6.59954091,8.60892269 L3.65155984,5.55555556 L0.41855727,8.55608617 C-0.098723142,9.0601307 -0.150244271,9.8836371 0.340763469,10.4416333 C0.573136175,10.7330838 0.935842855,10.8658389 1.27127334,10.8658389 L1.27126299,10.8657487 Z" id="Shape"></path>
                        </g>
                    </g>
                </g>
            </g>
        </g>
    </g>
</svg>