<svg width="25px" height="23px" viewBox="0 0 25 23" version="1.1" xmlns="http://www.w3.org/2000/svg" xmlns:xlink="http://www.w3.org/1999/xlink">
    <!-- Generator: Sketch 49 (51002) - http://www.bohemiancoding.com/sketch -->
    <desc>Created with Sketch.</desc>
    <defs></defs>
    <g id="Symbols" stroke="none" stroke-width="1" fill="none" fill-rule="evenodd">
        <g id="module/menu2" transform="translate(-21.000000, -21.000000)" fill="#BBBBBB">
            <g id="icon/swap" transform="translate(21.000000, 21.000000)">
                <path d="M11.1887531,5.32526278 L10.1950801,4.32046385 L11.1887531,3.30905774 L12.9753876,1.50241877 L13.9690606,2.5072177 L12.8859497,3.60245587 L15.1874311,3.60245587 C16.4374386,3.60466193 17.6350622,4.10762244 18.5186622,5.00100293 C19.4021784,5.89551285 19.8973674,7.1076472 19.8973674,8.37179189 L19.8973674,10.5236699 L18.5012102,10.5236699 L18.5012102,8.37179189 C18.5012102,7.48391738 18.1510819,6.63241057 17.5293452,6.00594304 C16.9076085,5.37834607 16.0655581,5.02762928 15.1875149,5.02873048 L12.8860335,5.02873048 L13.9724113,6.13280645 L12.9787383,7.13760538 L11.1887531,5.32526278 Z M5.10457928,12.4713749 L5.10457928,14.6233376 C5.10566996,15.8862399 5.60194632,17.0972731 6.48546252,17.9896089 C7.36897872,18.8830176 8.56551336,19.3848523 9.81445974,19.3870547 L12.1148521,19.3870547 L11.0317413,20.4822929 L12.0254143,21.4870918 L13.8131377,19.6859588 L14.8068107,18.6811599 L13.8131377,17.6730574 L12.0265033,15.8664184 L11.0295633,16.8623795 L12.1126741,17.9576177 L9.81445974,17.9576177 C7.99292137,17.9565148 6.51506105,16.4652996 6.5083595,14.6232529 L6.5083595,12.4713749 L5.10457928,12.4713749 Z" id="Shape" fill-rule="nonzero"></path>
                <rect id="Rectangle" fill-rule="evenodd" x="17" y="13" width="8" height="10" rx="3"></rect>
                <rect id="Rectangle" fill-rule="evenodd" x="0" y="0" width="8" height="10" rx="3"></rect>
            </g>
        </g>
    </g>
</svg>