<?xml version="1.0" encoding="UTF-8"?>
<svg width="20px" height="22px" viewBox="0 0 20 22" version="1.1" xmlns="http://www.w3.org/2000/svg" xmlns:xlink="http://www.w3.org/1999/xlink">
    <!-- Generator: Sketch 49.3 (51167) - http://www.bohemiancoding.com/sketch -->
    <title>icn_trash</title>
    <desc>Created with Sketch.</desc>
    <defs></defs>
    <g id="Symbols" stroke="none" stroke-width="1" fill="none" fill-rule="evenodd">
        <g id="menu/team" transform="translate(-26.000000, -260.000000)" fill="#FF435A" fill-rule="nonzero">
            <g id="icn_trash" transform="translate(26.000000, 260.000000)">
                <path d="M0.224719101,7.19101124 C0.224719101,7.66766292 0.414325843,8.12498876 0.75141573,8.46206742 C1.08850562,8.79914607 1.5458427,8.98876404 2.02247191,8.98876404 L2.02247191,17.9775281 C2.02247191,18.9308315 2.40168539,19.8455056 3.0758427,20.5195506 C3.75,21.1935955 4.66467416,21.5729213 5.61786517,21.5729213 L14.6066292,21.5729213 C15.5599326,21.5729213 16.4746067,21.1937079 17.1486517,20.5195506 C17.8226966,19.8453933 18.2020225,18.9307191 18.2020225,17.9775281 L18.2020225,8.98876404 C18.6786742,8.98876404 19.136,8.7991573 19.4730787,8.46206742 C19.8101573,8.12497753 19.9997753,7.66764045 19.9997753,7.19101124 L19.9997753,5.39325843 C19.9997753,4.91660674 19.8101685,4.4592809 19.4730787,4.12220225 C19.1359888,3.7851236 18.6786517,3.59550562 18.2020225,3.59550562 L14.6065169,3.59550562 L14.6065169,1.79775281 C14.6065169,1.32110112 14.4169101,0.863775281 14.0798202,0.526696629 C13.7427303,0.189617978 13.2853933,0 12.808764,0 L7.41550562,0 C6.42269663,0 5.61775281,0.80494382 5.61775281,1.79775281 L5.61775281,3.59550562 L2.02224719,3.59550562 C1.0294382,3.59550562 0.224494382,4.40044944 0.224494382,5.39325843 L0.224719101,7.19101124 Z M16.4044944,17.9775281 C16.4044944,18.4541798 16.2148876,18.9115056 15.8777978,19.2485843 C15.5407079,19.5856629 15.0833708,19.7752809 14.6067416,19.7752809 L5.61797753,19.7752809 C4.62516854,19.7752809 3.82022472,18.9703371 3.82022472,17.9775281 L3.82022472,8.98876404 L16.4044944,8.98876404 L16.4044944,17.9775281 Z M7.41573034,1.79775281 L12.8089888,1.79775281 L12.8089888,3.59550562 L7.41573034,3.59550562 L7.41573034,1.79775281 Z M2.02247191,5.39325843 L18.2022472,5.39325843 L18.2022472,7.19101124 L2.02247191,7.19101124 L2.02247191,5.39325843 Z" id="Shape"></path>
                <path d="M6.51685393,17.9775281 C6.75561798,17.9775281 6.9838427,17.8827236 7.15238202,17.7141798 C7.32092135,17.545636 7.41573034,17.3174157 7.41573034,17.0786517 L7.41573034,11.6853933 C7.41573034,11.1885618 7.01368539,10.7865169 6.51685393,10.7865169 C6.02002247,10.7865169 5.61797753,11.1885618 5.61797753,11.6853933 L5.61797753,17.0786517 C5.61797753,17.3174157 5.71278202,17.5456404 5.88132584,17.7141798 C6.04986966,17.8827191 6.27808989,17.9775281 6.51685393,17.9775281 Z" id="Shape"></path>
                <path d="M10.1123596,17.9775281 C10.3511236,17.9775281 10.5793483,17.8827236 10.7478876,17.7141798 C10.916427,17.545636 11.011236,17.3174157 11.011236,17.0786517 L11.011236,11.6853933 C11.011236,11.1885618 10.609191,10.7865169 10.1123596,10.7865169 C9.61552809,10.7865169 9.21348315,11.1885618 9.21348315,11.6853933 L9.21348315,17.0786517 C9.21348315,17.3174157 9.30828764,17.5456404 9.47683146,17.7141798 C9.64537528,17.8827191 9.87359551,17.9775281 10.1123596,17.9775281 Z" id="Shape"></path>
                <path d="M13.7078652,17.9775281 C13.9466292,17.9775281 14.1748539,17.8827236 14.3433933,17.7141798 C14.5119326,17.545636 14.6067416,17.3174157 14.6067416,17.0786517 L14.6067416,11.6853933 C14.6067416,11.1885618 14.2046966,10.7865169 13.7078652,10.7865169 C13.2110337,10.7865169 12.8089888,11.1885618 12.8089888,11.6853933 L12.8089888,17.0786517 C12.8089888,17.3174157 12.9037933,17.5456404 13.0723371,17.7141798 C13.2408809,17.8827191 13.4691011,17.9775281 13.7078652,17.9775281 Z" id="Shape"></path>
            </g>
        </g>
    </g>
</svg>